<svg xmlns:xlink="http://www.w3.org/1999/xlink" xmlns="http://www.w3.org/2000/svg" fill="currentColor" class="css-1uu1fpi" width="24"  height="24" ><defs><symbol viewBox="0 0 24 24" id="copy-trading-g"><path fill-rule="evenodd" clip-rule="evenodd" d="M17.5 2C19.1569 2 20.5 3.34315 20.5 5C20.5 6.65685 19.1569 8 17.5 8C15.8431 8 14.5 6.65685 14.5 5C14.5 3.34315 15.8431 2 17.5 2Z" fill="url(&quot;#paint0_linear_756_673&quot;)"></path><path fill-rule="evenodd" clip-rule="evenodd" d="M13 12.5C13 10.8431 14.3431 9.5 16 9.5H19C20.6569 9.5 22 10.8431 22 12.5V15.5H13V12.5Z" fill="#76808F"></path><path d="M4 7L2 7L2 2L10 2L10 4L4 4L4 7Z" fill="#76808F"></path><path d="M22 18L20 18L20 20L14 20L14 22L22 22L22 18Z" fill="#76808F"></path><path fill-rule="evenodd" clip-rule="evenodd" d="M6.5 9.5C8.98528 9.5 11 11.5147 11 14C11 14.9251 10.7209 15.785 10.2422 16.5H8V15.5H4V16.5H2.75777C2.27914 15.785 2 14.9251 2 14C2 11.5147 4.01472 9.5 6.5 9.5Z" fill="#76808F"></path><path fill-rule="evenodd" clip-rule="evenodd" d="M6.5 13C8.98528 13 11 15.0147 11 17.5C11 19.9853 8.98528 22 6.5 22C4.01472 22 2 19.9853 2 17.5C2 15.0147 4.01472 13 6.5 13ZM6.5 19.4286L4.57143 17.5L6.5 15.5714L8.42857 17.5L6.5 19.4286Z" fill="url(&quot;#paint1_linear_756_673&quot;)"></path><defs><linearGradient id="paint0_linear_756_673" x1="17.5" y1="8" x2="17.5" y2="2" gradientUnits="userSpaceOnUse"><stop stop-color="#F0B90B"></stop><stop offset="1" stop-color="#F8D33A"></stop></linearGradient><linearGradient id="paint1_linear_756_673" x1="6.5" y1="22" x2="6.5" y2="13" gradientUnits="userSpaceOnUse"><stop stop-color="#F0B90B"></stop><stop offset="1" stop-color="#F8D33A"></stop></linearGradient></defs></symbol></defs><use xlink:href="#copy-trading-g" fill="#1E2329"></use></svg>