<svg xmlns:xlink="http://www.w3.org/1999/xlink" xmlns="http://www.w3.org/2000/svg" viewBox="0 0 50 50" fill="none" class="css-1rurn1s" width="50"  height="50" ><path fill-rule="evenodd" clip-rule="evenodd" d="M29.167 19.792a7.292 7.292 0 1114.583 0 7.292 7.292 0 01-14.583 0z" fill="url(&quot;#users-g_svg__paint0_linear_2218_19600&quot;)"></path><path d="M39.584 31.25h-6.25v10.417h12.5V37.5a6.25 6.25 0 00-6.25-6.25z" fill="#76808F"></path><path fill-rule="evenodd" clip-rule="evenodd" d="M7.291 15.625A9.375 9.375 0 1116.666 25a9.375 9.375 0 01-9.375-9.375z" fill="url(&quot;#users-g_svg__paint1_linear_2218_19600&quot;)"></path><path d="M29.166 37.5a8.333 8.333 0 00-8.333-8.333h-8.334A8.333 8.333 0 004.166 37.5v4.167h25V37.5z" fill="#76808F"></path><defs><linearGradient id="users-g_svg__paint0_linear_2218_19600" x1="36.458" y1="27.083" x2="36.458" y2="12.5" gradientUnits="userSpaceOnUse"><stop stop-color="#F0B90B"></stop><stop offset="1" stop-color="#F8D33A"></stop></linearGradient><linearGradient id="users-g_svg__paint1_linear_2218_19600" x1="16.666" y1="25" x2="16.666" y2="6.25" gradientUnits="userSpaceOnUse"><stop stop-color="#F0B90B"></stop><stop offset="1" stop-color="#F8D33A"></stop></linearGradient><linearGradient id="users-g_svg__paint0_linear_2218_19600" x1="36.458" y1="27.083" x2="36.458" y2="12.5" gradientUnits="userSpaceOnUse"><stop stop-color="#F0B90B"></stop><stop offset="1" stop-color="#F8D33A"></stop></linearGradient><linearGradient id="users-g_svg__paint1_linear_2218_19600" x1="16.666" y1="25" x2="16.666" y2="6.25" gradientUnits="userSpaceOnUse"><stop stop-color="#F0B90B"></stop><stop offset="1" stop-color="#F8D33A"></stop></linearGradient></defs></svg>