<svg xmlns:xlink="http://www.w3.org/1999/xlink" xmlns="http://www.w3.org/2000/svg" viewBox="0 0 24 24" fill="none" class="css-1rurn1s" width="40"  height="40" ><path fill-rule="evenodd" clip-rule="evenodd" d="M22 19.879l-5.94-5.94L15 15l-1.06 1.062L19.879 22 22 19.879z" fill="#76808F"></path><path fill-rule="evenodd" clip-rule="evenodd" d="M15.94 10a6 6 0 10-12 0 6 6 0 0012 0zm-6-8a8 8 0 110 16 8 8 0 010-16z" fill="url(&quot;#zoom-in-g_svg__paint0_linear&quot;)"></path><path d="M9 11v3h2v-3h3V9h-3V6H9v3H6v2h3z" fill="#76808F"></path><defs><linearGradient id="zoom-in-g_svg__paint0_linear" x1="9.939" y1="18" x2="9.939" y2="2" gradientUnits="userSpaceOnUse"><stop stop-color="#F0B90B"></stop><stop offset="1" stop-color="#F8D33A"></stop></linearGradient><linearGradient id="zoom-in-g_svg__paint0_linear" x1="9.939" y1="18" x2="9.939" y2="2" gradientUnits="userSpaceOnUse"><stop stop-color="#F0B90B"></stop><stop offset="1" stop-color="#F8D33A"></stop></linearGradient></defs></svg>