<svg xmlns:xlink="http://www.w3.org/1999/xlink" xmlns="http://www.w3.org/2000/svg" viewBox="0 0 90 90" fill="none" class="css-ade6fb" width="90"  height="90" ><circle cx="45" cy="45" r="45" fill="#929AA5"></circle><mask id="reason-3-g_svg__a" maskUnits="userSpaceOnUse" x="0" y="0" width="90" height="90" style="mask-type: alpha;" fill="#1E2329"><path d="M90 45c0 24.853-20.147 45-45 45S0 69.853 0 45 20.147 0 45 0s45 20.147 45 45z" fill="#FCEA9C"></path></mask><g mask="url(#reason-3-g_svg__a)" fill="#1E2329"><path fill-rule="evenodd" clip-rule="evenodd" d="M25.569 59.435v-9.42H15.29v10.09c0 5.325 4.328 9.608 9.625 9.608h17.782V59.435h-17.13z" fill="#474D57"></path><path d="M50.402 59.436l5.995 5.995 5.995-5.995H72.67v60.508H42.693V59.436h7.709z" fill="url(&quot;#reason-3-g_svg__paint0_linear_2218_19670&quot;)"></path><path fill-rule="evenodd" clip-rule="evenodd" d="M85.958 69.714H72.67V59.436h14.115c8.851 0 13.284 10.702 7.025 16.96l-8.085 8.086-7.268-7.268 7.5-7.5z" fill="url(&quot;#reason-3-g_svg__paint1_linear_2218_19670&quot;)"></path><path d="M77.805 96.264h-5.14l.001-10.277h5.139v10.277z" fill="#F0B90B"></path><path d="M61.926 70.464l3.779-3.779 3.78 3.78-3.78 3.778-3.78-3.779z" fill="url(&quot;#reason-3-g_svg__paint2_linear_2218_19670&quot;)"></path><path d="M66.673 59.436H62.39l-5.995 5.995-5.995-5.995h-4.283l10.278 10.278 10.278-10.278z" fill="url(&quot;#reason-3-g_svg__paint3_linear_2218_19670&quot;)"></path><path d="M25.568 50.015v-3.426H15.291v3.426h10.277z" fill="url(&quot;#reason-3-g_svg__paint4_linear_2218_19670&quot;)"></path><path d="M78.463 77.216l-2.422 2.422 7.265 7.265 2.422-2.422-7.264-7.265z" fill="url(&quot;#reason-3-g_svg__paint5_linear_2218_19670&quot;)"></path><path d="M50.23 39.102A8.993 8.993 0 1062.948 51.82L50.23 39.102z" fill="#F0B90B"></path><path d="M53.408 27.746l20.894 20.893-1.363 1.363-20.893-20.894 1.362-1.362z" fill="#2B2F36"></path><path d="M56.591 36.467a8.965 8.965 0 00-6.359 2.634L62.95 51.819a8.965 8.965 0 002.634-6.36v-2.816l-6.176-6.176H56.59z" fill="url(&quot;#reason-3-g_svg__paint6_linear_2218_19670&quot;)"></path><path d="M66.585 48.185h2.725v2.725h-2.725v-2.725z" fill="#2B2F36"></path><path d="M28.125 41.45h6.852v5.995l-3.426-3.426-3.426 3.426V41.45zM20.422 17.468h20.555V41.45H20.422V17.468z" fill="#474D57"></path><path d="M38.408 41.45H20.422V17.468h17.986V41.45z" fill="#5E6673"></path><path d="M40.977 39.737h-2.57V19.18h2.57v20.556z" fill="#FFFFFF"></path><path d="M40.977 17.468h1.713V41.45h-1.713V17.468zM19.564 17.468h3.426V41.45h-3.425V17.468z" fill="#474D57"></path><path d="M21.285 44.019h-5.139V33.741h5.14l-.001 10.278z" fill="#F0B90B"></path></g><path d="M39.452 49.772l2.178 2.178-2.178 2.179-2.179-2.179 2.179-2.178zM50.029 12.81l1.939 1.94-1.94 1.939-1.938-1.94 1.939-1.939zM9.017 37.773l1.122 1.122-1.122 1.123-1.122-1.123 1.122-1.122z" fill="#AEB4BC"></path><defs><linearGradient id="reason-3-g_svg__paint0_linear_2218_19670" x1="72.67" y1="119.944" x2="42.693" y2="119.944" gradientUnits="userSpaceOnUse"><stop stop-color="#2B2F36"></stop><stop offset="1" stop-color="#474D57"></stop></linearGradient><linearGradient id="reason-3-g_svg__paint1_linear_2218_19670" x1="72.67" y1="69.584" x2="92.776" y2="96.825" gradientUnits="userSpaceOnUse"><stop stop-color="#2B2F36"></stop><stop offset="1" stop-color="#474D57"></stop></linearGradient><linearGradient id="reason-3-g_svg__paint2_linear_2218_19670" x1="65.705" y1="66.685" x2="65.705" y2="74.243" gradientUnits="userSpaceOnUse"><stop stop-color="#F0B90B"></stop><stop offset="1" stop-color="#F8D33A"></stop></linearGradient><linearGradient id="reason-3-g_svg__paint3_linear_2218_19670" x1="56.395" y1="59.436" x2="56.395" y2="69.714" gradientUnits="userSpaceOnUse"><stop stop-color="#F0B90B"></stop><stop offset="1" stop-color="#F8D33A"></stop></linearGradient><linearGradient id="reason-3-g_svg__paint4_linear_2218_19670" x1="25.568" y1="48.302" x2="15.291" y2="48.302" gradientUnits="userSpaceOnUse"><stop stop-color="#F0B90B"></stop><stop offset="1" stop-color="#F8D33A"></stop></linearGradient><linearGradient id="reason-3-g_svg__paint5_linear_2218_19670" x1="77.252" y1="78.427" x2="84.517" y2="85.692" gradientUnits="userSpaceOnUse"><stop stop-color="#F0B90B"></stop><stop offset="1" stop-color="#F8D33A"></stop></linearGradient><linearGradient id="reason-3-g_svg__paint6_linear_2218_19670" x1="50.232" y1="36.467" x2="50.232" y2="51.819" gradientUnits="userSpaceOnUse"><stop stop-color="#2B2F36"></stop><stop offset="1" stop-color="#474D57"></stop></linearGradient><linearGradient id="reason-3-g_svg__paint0_linear_2218_19670" x1="72.67" y1="119.944" x2="42.693" y2="119.944" gradientUnits="userSpaceOnUse"><stop stop-color="#2B2F36"></stop><stop offset="1" stop-color="#474D57"></stop></linearGradient><linearGradient id="reason-3-g_svg__paint1_linear_2218_19670" x1="72.67" y1="69.584" x2="92.776" y2="96.825" gradientUnits="userSpaceOnUse"><stop stop-color="#2B2F36"></stop><stop offset="1" stop-color="#474D57"></stop></linearGradient><linearGradient id="reason-3-g_svg__paint2_linear_2218_19670" x1="65.705" y1="66.685" x2="65.705" y2="74.243" gradientUnits="userSpaceOnUse"><stop stop-color="#F0B90B"></stop><stop offset="1" stop-color="#F8D33A"></stop></linearGradient><linearGradient id="reason-3-g_svg__paint3_linear_2218_19670" x1="56.395" y1="59.436" x2="56.395" y2="69.714" gradientUnits="userSpaceOnUse"><stop stop-color="#F0B90B"></stop><stop offset="1" stop-color="#F8D33A"></stop></linearGradient><linearGradient id="reason-3-g_svg__paint4_linear_2218_19670" x1="25.568" y1="48.302" x2="15.291" y2="48.302" gradientUnits="userSpaceOnUse"><stop stop-color="#F0B90B"></stop><stop offset="1" stop-color="#F8D33A"></stop></linearGradient><linearGradient id="reason-3-g_svg__paint5_linear_2218_19670" x1="77.252" y1="78.427" x2="84.517" y2="85.692" gradientUnits="userSpaceOnUse"><stop stop-color="#F0B90B"></stop><stop offset="1" stop-color="#F8D33A"></stop></linearGradient><linearGradient id="reason-3-g_svg__paint6_linear_2218_19670" x1="50.232" y1="36.467" x2="50.232" y2="51.819" gradientUnits="userSpaceOnUse"><stop stop-color="#2B2F36"></stop><stop offset="1" stop-color="#474D57"></stop></linearGradient></defs></svg>