<svg xmlns:xlink="http://www.w3.org/1999/xlink" xmlns="http://www.w3.org/2000/svg" viewBox="0 0 50 50" fill="none" class="css-1rurn1s" width="50"  height="50" ><path d="M26.786 8.333c8.054 0 14.584 6.53 14.584 14.584h4.166c0-10.356-8.394-18.75-18.75-18.75v4.166z" fill="#76808F"></path><path d="M35.416 14.583V37.5h-4.167V21.696l-6.755 6.756-2.947-2.947 6.756-6.755H12.499v-4.167h22.917zM4.88 42.172l8.334-8.333 2.946 2.946-8.333 8.334-2.946-2.947z" fill="#76808F"></path><path d="M10.268 39.731c8.136 8.136 21.327 8.136 29.463 0L10.268 10.27c-8.136 8.136-8.136 21.327 0 29.462z" fill="url(&quot;#communications-g_svg__paint0_linear_2218_19589&quot;)"></path><defs><linearGradient id="communications-g_svg__paint0_linear_2218_19589" x1="21.948" y1="45.833" x2="21.948" y2="10.269" gradientUnits="userSpaceOnUse"><stop stop-color="#F0B90B"></stop><stop offset="1" stop-color="#F8D33A"></stop></linearGradient><linearGradient id="communications-g_svg__paint0_linear_2218_19589" x1="21.948" y1="45.833" x2="21.948" y2="10.269" gradientUnits="userSpaceOnUse"><stop stop-color="#F0B90B"></stop><stop offset="1" stop-color="#F8D33A"></stop></linearGradient></defs></svg>