<svg xmlns:xlink="http://www.w3.org/1999/xlink" xmlns="http://www.w3.org/2000/svg" viewBox="0 0 90 90" fill="none" class="css-ade6fb" width="90"  height="90" ><circle cx="45" cy="45" r="45" fill="#929AA5"></circle><mask id="reason-2-g_svg__a" maskUnits="userSpaceOnUse" x="0" y="0" width="90" height="90" style="mask-type: alpha;" fill="#1E2329"><path d="M90 45c0 24.853-20.147 45-45 45S0 69.853 0 45 20.147 0 45 0s45 20.147 45 45z" fill="#E6E8EA"></path></mask><g mask="url(#reason-2-g_svg__a)" fill="#1E2329"><path d="M41.63 69.706h69.78v38.16H41.63v-38.16z" fill="#F5F5F5"></path><path d="M111.41 58.803H41.631v10.903h69.779V58.803z" fill="url(&quot;#reason-2-g_svg__paint0_linear_2218_19632&quot;)"></path><path fill-rule="evenodd" clip-rule="evenodd" d="M58.219 65.867v-3.225h-3.22v3.225h3.22z" fill="#02C076"></path><path fill-rule="evenodd" clip-rule="evenodd" d="M53.145 65.867v-3.225h-3.221v3.225h3.22z" fill="#F0B90B"></path><path fill-rule="evenodd" clip-rule="evenodd" d="M48.072 65.867v-3.225h-3.22v3.225h3.22z" fill="#F84960"></path><path fill-rule="evenodd" clip-rule="evenodd" d="M108.189 62.642v3.225H61.441v-3.225h46.748z" fill="#F5F5F5"></path><path fill-rule="evenodd" clip-rule="evenodd" d="M44.852 77.513v-3.225h63.337v3.225H44.852z" fill="url(&quot;#reason-2-g_svg__paint1_linear_2218_19632&quot;)"></path><path fill-rule="evenodd" clip-rule="evenodd" d="M44.852 90.399v-3.226h63.337V90.4H44.852z" fill="url(&quot;#reason-2-g_svg__paint2_linear_2218_19632&quot;)"></path><path fill-rule="evenodd" clip-rule="evenodd" d="M44.852 83.956V80.73h63.337v3.225H44.852z" fill="url(&quot;#reason-2-g_svg__paint3_linear_2218_19632&quot;)"></path><path fill-rule="evenodd" clip-rule="evenodd" d="M43.56 38.352h-5.984a6.441 6.441 0 01-4.554-1.886l-7.26-7.26 4.25-4.251 7.26 7.26c.081.08.19.125.304.125h5.985v6.012z" fill="#F0B90B"></path><path fill-rule="evenodd" clip-rule="evenodd" d="M42.916 32.18h8.803v6.87h-8.803v-6.87z" fill="url(&quot;#reason-2-g_svg__paint4_linear_2218_19632&quot;)"></path><path fill-rule="evenodd" clip-rule="evenodd" d="M49.788 59.66H37.601l-.051 11.244-6.012-.028.05-11.243a6.012 6.012 0 016.013-5.984h12.187v6.012z" fill="#E6AF0A"></path><path fill-rule="evenodd" clip-rule="evenodd" d="M39.052 51.073h10.735v8.588H39.052v-8.588z" fill="#AEB4BC"></path><path d="M37.336 70.826h-6.012l-3.006 3.006-3.006 3.006h12.024v-6.012z" fill="#F5F5F5"></path><path fill-rule="evenodd" clip-rule="evenodd" d="M49.284 59.608h-7.193a.43.43 0 00-.43.43v10.799h-6.01l-.001-10.8a6.441 6.441 0 016.441-6.441h7.193v6.012z" fill="#F0B90B"></path><path d="M48.797 18.521a5.582 5.582 0 107.895 7.895l-7.895-7.895z" fill="#F0B90B"></path><path d="M48.797 18.52a5.582 5.582 0 017.894 7.895l-7.894-7.895z" fill="#FFFFFF"></path><circle cx="60.944" cy="22.888" r="2.791" transform="rotate(-90 60.944 22.888)" fill="#FFFFFF"></circle><path fill-rule="evenodd" clip-rule="evenodd" d="M57.518 51.073v.86a7.73 7.73 0 01-7.73 7.728h-7.085v-8.588h14.815z" fill="#AEB4BC"></path><path d="M41.629 70.826h-6.012l-3.006 3.006-3.006 3.006H41.63v-6.012z" fill="#FFFFFF"></path><path fill="#F0B90B" d="M26.17 18.438v6.012h-6.012v-6.012z"></path><path fill-rule="evenodd" clip-rule="evenodd" d="M58.805 35.615v15.458h-14.17V39.05l6.87-6.87h3.865l3.435 3.435z" fill="#474D57"></path><path fill="#F0B90B" d="M69.968 53.65v6.012h-6.012V53.65z"></path><path fill-rule="evenodd" clip-rule="evenodd" d="M63.957 51.18v-4.91a.429.429 0 00-.126-.304l-3.288-3.288 4.251-4.251 3.288 3.288a6.441 6.441 0 011.887 4.554v4.911h-6.012z" fill="#F0B90B"></path><path fill-rule="evenodd" clip-rule="evenodd" d="M53.865 32.179h3.086a6.87 6.87 0 014.858 2.012l3.718 3.718-4.858 4.858-3.718-3.718h-3.086v-6.87z" fill="url(&quot;#reason-2-g_svg__paint5_linear_2218_19632&quot;)"></path></g><path d="M22.542 40.644l2.178 2.178L22.542 45l-2.179-2.178 2.179-2.178zM36.039 11.406l1.939 1.94-1.94 1.938-1.938-1.939 1.939-1.939zM13.95 33.764l1.123 1.122-1.123 1.123-1.122-1.123 1.123-1.122z" fill="#AEB4BC"></path><defs><linearGradient id="reason-2-g_svg__paint0_linear_2218_19632" x1="41.631" y1="69.692" x2="110.521" y2="69.692" gradientUnits="userSpaceOnUse"><stop stop-color="#5E6673"></stop><stop offset="1" stop-color="#76808F"></stop></linearGradient><linearGradient id="reason-2-g_svg__paint1_linear_2218_19632" x1="44.91" y1="77.701" x2="97.127" y2="77.69" gradientUnits="userSpaceOnUse"><stop offset="0.589" stop-color="#76808F"></stop><stop offset="1" stop-color="#AEB4BC"></stop></linearGradient><linearGradient id="reason-2-g_svg__paint2_linear_2218_19632" x1="44.91" y1="90.586" x2="97.127" y2="90.575" gradientUnits="userSpaceOnUse"><stop offset="0.589" stop-color="#76808F"></stop><stop offset="1" stop-color="#AEB4BC"></stop></linearGradient><linearGradient id="reason-2-g_svg__paint3_linear_2218_19632" x1="44.91" y1="84.14" x2="96.977" y2="84.14" gradientUnits="userSpaceOnUse"><stop stop-color="#76808F"></stop><stop offset="1" stop-color="#AEB4BC"></stop></linearGradient><linearGradient id="reason-2-g_svg__paint4_linear_2218_19632" x1="42.916" y1="35.614" x2="57.194" y2="35.614" gradientUnits="userSpaceOnUse"><stop stop-color="#474D57"></stop><stop offset="1" stop-color="#2B2F36"></stop></linearGradient><linearGradient id="reason-2-g_svg__paint5_linear_2218_19632" x1="60.736" y1="35.614" x2="66.318" y2="47.853" gradientUnits="userSpaceOnUse"><stop stop-color="#474D57"></stop><stop offset="1" stop-color="#2B2F36"></stop></linearGradient><linearGradient id="reason-2-g_svg__paint0_linear_2218_19632" x1="41.631" y1="69.692" x2="110.521" y2="69.692" gradientUnits="userSpaceOnUse"><stop stop-color="#5E6673"></stop><stop offset="1" stop-color="#76808F"></stop></linearGradient><linearGradient id="reason-2-g_svg__paint1_linear_2218_19632" x1="44.91" y1="77.701" x2="97.127" y2="77.69" gradientUnits="userSpaceOnUse"><stop offset="0.589" stop-color="#76808F"></stop><stop offset="1" stop-color="#AEB4BC"></stop></linearGradient><linearGradient id="reason-2-g_svg__paint2_linear_2218_19632" x1="44.91" y1="90.586" x2="97.127" y2="90.575" gradientUnits="userSpaceOnUse"><stop offset="0.589" stop-color="#76808F"></stop><stop offset="1" stop-color="#AEB4BC"></stop></linearGradient><linearGradient id="reason-2-g_svg__paint3_linear_2218_19632" x1="44.91" y1="84.14" x2="96.977" y2="84.14" gradientUnits="userSpaceOnUse"><stop stop-color="#76808F"></stop><stop offset="1" stop-color="#AEB4BC"></stop></linearGradient><linearGradient id="reason-2-g_svg__paint4_linear_2218_19632" x1="42.916" y1="35.614" x2="57.194" y2="35.614" gradientUnits="userSpaceOnUse"><stop stop-color="#474D57"></stop><stop offset="1" stop-color="#2B2F36"></stop></linearGradient><linearGradient id="reason-2-g_svg__paint5_linear_2218_19632" x1="60.736" y1="35.614" x2="66.318" y2="47.853" gradientUnits="userSpaceOnUse"><stop stop-color="#474D57"></stop><stop offset="1" stop-color="#2B2F36"></stop></linearGradient></defs></svg>