<svg xmlns:xlink="http://www.w3.org/1999/xlink" xmlns="http://www.w3.org/2000/svg" viewBox="0 0 24 24" fill="none" class="css-1rurn1s" width="40"  height="40" ><path fill-rule="evenodd" clip-rule="evenodd" d="M14.987 4.391l2.066 1.195 2.672-.16 1.818 3.149-1.474 2.232v2.386l1.474 2.232-1.818 3.15-2.672-.16-2.066 1.194L13.792 22h-3.636L8.96 19.609l-2.066-1.195-2.672.16-1.818-3.149 1.474-2.232v-2.386L2.404 8.575l1.818-3.15 2.672.16L8.96 4.392 10.155 2h3.637l1.195 2.391zm-2.99 2.155a5.454 5.454 0 110 10.909 5.454 5.454 0 010-10.91z" fill="url(&quot;#settings-cog-g_svg__paint0_linear&quot;)"></path><path d="M9.27 12l2.727-2.727L14.725 12l-2.728 2.727L9.27 12z" fill="#76808F"></path><defs><linearGradient id="settings-cog-g_svg__paint0_linear" x1="11.974" y1="22" x2="11.974" y2="2" gradientUnits="userSpaceOnUse"><stop stop-color="#F0B90B"></stop><stop offset="1" stop-color="#F8D33A"></stop></linearGradient><linearGradient id="settings-cog-g_svg__paint0_linear" x1="11.974" y1="22" x2="11.974" y2="2" gradientUnits="userSpaceOnUse"><stop stop-color="#F0B90B"></stop><stop offset="1" stop-color="#F8D33A"></stop></linearGradient></defs></svg>