<svg xmlns:xlink="http://www.w3.org/1999/xlink" xmlns="http://www.w3.org/2000/svg" viewBox="0 0 90 90" fill="none" class="css-ade6fb" width="90"  height="90" ><circle cx="45" cy="45" r="45" fill="#929AA5"></circle><mask id="reason-1_svg__a" maskUnits="userSpaceOnUse" x="0" y="0" width="90" height="90" style="mask-type: alpha;" fill="#1E2329"><circle cx="45" cy="45" r="45" fill="#E6E8EA"></circle></mask><g mask="url(#reason-1_svg__a)" fill="#1E2329"><path d="M95.56 8.648l-6.502 6.503 6.502 6.503 6.503-6.503-6.502-6.503zM13.93 48.494l-6.503 6.503L13.93 61.5l6.502-6.503-6.502-6.503z" fill="#F0B90B"></path><path d="M73.297 23.072h-18.04l-3.972 14.03h25.147l-3.135-14.03z" fill="#FFFFFF"></path><path d="M74.64 25.919c0-5.477-4.439-9.917-9.916-9.917-5.476 0-9.916 4.44-9.916 9.917h19.833z" fill="#FFFFFF"></path><path d="M56.06 25.975a8.54 8.54 0 0017.08 0H56.06z" fill="#F0B90B"></path><path d="M69.402 25.914l4.847-2.842 3.972 14.03H67.252l2.15-11.188z" fill="#FFFFFF"></path><path fill-rule="evenodd" clip-rule="evenodd" d="M51.263 40.514l-8.934 8.933H23.967v10.5h18.362a10.5 10.5 0 007.425-3.075l8.933-8.933-7.424-7.425z" fill="#474D57"></path><path d="M51.29 69.178v1.775c0 6.953 5.635 12.59 12.588 12.59V69.177H51.289z" fill="#484E58"></path><path fill-rule="evenodd" clip-rule="evenodd" d="M60.951 64.328h13.866l29.84 29.84-9.281 9.281L69.38 77.453h-8.429V64.328z" fill="url(&quot;#reason-1_svg__paint0_linear_2218_19603&quot;)"></path><path fill-rule="evenodd" clip-rule="evenodd" d="M51.012 69.393h13.125v45.054H51.012V69.393z" fill="url(&quot;#reason-1_svg__paint1_linear_2218_19603&quot;)"></path><path fill-rule="evenodd" clip-rule="evenodd" d="M72.767 51.054h17.648c5.799 0 10.5-4.701 10.5-10.5V25.97h-10.5v14.584H72.767v10.5z" fill="#474D57"></path><path fill-rule="evenodd" clip-rule="evenodd" d="M72.478 40.556l-4.917 4.917-4.917-4.917H51.112v28.902h28.902V40.556h-7.536z" fill="#474D57"></path></g><path d="M47.178 11.165l2.179 2.179-2.179 2.178L45 13.344l2.178-2.178zM9.365 33.826l1.939 1.94-1.94 1.938-1.938-1.939 1.939-1.939zM15.935 41.47l1.122 1.122-1.122 1.122-1.123-1.122 1.123-1.123z" fill="#AEB4BC"></path><path d="M46.192 29.619c0-7.785-6.311-14.096-14.096-14.096S18 21.833 18 29.619c0 7.784 6.31 14.095 14.096 14.095 7.785 0 14.096-6.31 14.096-14.095z" fill="#F8D33A"></path><path d="M42.742 29.618c0-5.878-4.766-10.644-10.645-10.644-5.878 0-10.644 4.766-10.644 10.644 0 5.88 4.766 10.645 10.644 10.645 5.88 0 10.645-4.766 10.645-10.645z" fill="url(&quot;#reason-1_svg__paint2_linear_2218_19603&quot;)"></path><path d="M33.277 36.888v-1.62c2.293-.37 3.362-1.77 3.362-3.424 0-1.72-1.155-2.681-3.569-3.22v-2.8c.828.185 1.38.556 1.793 1.011l1.57-1.383c-.76-.843-1.776-1.366-3.156-1.518V22.35h-1.966v1.585c-2.224.253-3.413 1.434-3.413 3.205 0 1.636 1.051 2.749 3.638 3.272v3.036c-.966-.135-1.776-.59-2.431-1.265l-1.552 1.383c.862.928 2.017 1.619 3.758 1.77v1.553h1.966zm-3-9.817c0-.657.38-1.113 1.259-1.281v2.496c-.88-.236-1.259-.574-1.259-1.215zm3.983 4.96c0 .64-.38 1.163-1.19 1.382v-2.665c.983.287 1.19.793 1.19 1.282z" fill="#FFFFFF"></path><defs><linearGradient id="reason-1_svg__paint0_linear_2218_19603" x1="82.804" y1="64.328" x2="82.804" y2="103.449" gradientUnits="userSpaceOnUse"><stop offset="0.333" stop-color="#F0B90B"></stop><stop offset="1" stop-color="#FBDA3C"></stop></linearGradient><linearGradient id="reason-1_svg__paint1_linear_2218_19603" x1="72.119" y1="77.375" x2="43.029" y2="106.465" gradientUnits="userSpaceOnUse"><stop offset="0.333" stop-color="#F0B90B"></stop><stop offset="1" stop-color="#FBDA3C"></stop></linearGradient><linearGradient id="reason-1_svg__paint2_linear_2218_19603" x1="32.097" y1="40.263" x2="32.097" y2="18.974" gradientUnits="userSpaceOnUse"><stop stop-color="#F5BF00"></stop><stop offset="1" stop-color="#F5BF00" stop-opacity="0"></stop></linearGradient><linearGradient id="reason-1_svg__paint0_linear_2218_19603" x1="82.804" y1="64.328" x2="82.804" y2="103.449" gradientUnits="userSpaceOnUse"><stop offset="0.333" stop-color="#F0B90B"></stop><stop offset="1" stop-color="#FBDA3C"></stop></linearGradient><linearGradient id="reason-1_svg__paint1_linear_2218_19603" x1="72.119" y1="77.375" x2="43.029" y2="106.465" gradientUnits="userSpaceOnUse"><stop offset="0.333" stop-color="#F0B90B"></stop><stop offset="1" stop-color="#FBDA3C"></stop></linearGradient><linearGradient id="reason-1_svg__paint2_linear_2218_19603" x1="32.097" y1="40.263" x2="32.097" y2="18.974" gradientUnits="userSpaceOnUse"><stop stop-color="#F5BF00"></stop><stop offset="1" stop-color="#F5BF00" stop-opacity="0"></stop></linearGradient></defs></svg>