<svg xmlns:xlink="http://www.w3.org/1999/xlink" xmlns="http://www.w3.org/2000/svg" viewBox="0 0 24 24" fill="none" class="css-1rurn1s" width="40"  height="40" ><path d="M6 10a6 6 0 1112 0v7h2v-7a8 8 0 10-16 0v7h2v-7zM12 18a2.5 2.5 0 110 5 2.5 2.5 0 010-5z" fill="#76808F"></path><path d="M.5 13.5A3.5 3.5 0 004 17v-7a3.5 3.5 0 00-3.5 3.5z" fill="url(&quot;#customer-service-g_svg__paint0_linear&quot;)"></path><path d="M23.5 13.5A3.5 3.5 0 0120 17v-7a3.5 3.5 0 013.5 3.5z" fill="url(&quot;#customer-service-g_svg__paint1_linear&quot;)"></path><defs><linearGradient id="customer-service-g_svg__paint0_linear" x1="12" y1="17" x2="12" y2="10" gradientUnits="userSpaceOnUse"><stop stop-color="#F0B90B"></stop><stop offset="1" stop-color="#F8D33A"></stop></linearGradient><linearGradient id="customer-service-g_svg__paint1_linear" x1="12" y1="17" x2="12" y2="10" gradientUnits="userSpaceOnUse"><stop stop-color="#F0B90B"></stop><stop offset="1" stop-color="#F8D33A"></stop></linearGradient><linearGradient id="customer-service-g_svg__paint0_linear" x1="12" y1="17" x2="12" y2="10" gradientUnits="userSpaceOnUse"><stop stop-color="#F0B90B"></stop><stop offset="1" stop-color="#F8D33A"></stop></linearGradient><linearGradient id="customer-service-g_svg__paint1_linear" x1="12" y1="17" x2="12" y2="10" gradientUnits="userSpaceOnUse"><stop stop-color="#F0B90B"></stop><stop offset="1" stop-color="#F8D33A"></stop></linearGradient></defs></svg>