<svg xmlns:xlink="http://www.w3.org/1999/xlink" xmlns="http://www.w3.org/2000/svg" viewBox="0 0 24 24" fill="none" class="css-1rurn1s" width="40"  height="40" ><path transform="matrix(1 0 0 -1 3 19)" fill="url(&quot;#business-development-g_svg__paint0&quot;)" d="M0 0h3v4H0z"></path><path fill="#76808F" d="M8 11h3v10H8zM13 6h3v15h-3zM18 3h3v18h-3z"></path><path transform="matrix(1 0 0 -1 8 21)" fill="url(&quot;#business-development-g_svg__paint1&quot;)" d="M0 0h3v6H0z"></path><path transform="matrix(1 0 0 -1 13 21)" fill="url(&quot;#business-development-g_svg__paint2&quot;)" d="M0 0h3v10H0z"></path><path transform="matrix(1 0 0 -1 18 21)" fill="url(&quot;#business-development-g_svg__paint3&quot;)" d="M0 0h3v15H0z"></path><path fill="#76808F" d="M3 19h18v2H3zM3 3h2v2H3zM3 7h2v2H3zM3 11h2v2H3z"></path><defs><linearGradient id="business-development-g_svg__paint0" x1="1.5" y1="0" x2="1.5" y2="4" gradientUnits="userSpaceOnUse"><stop stop-color="#F0B90B"></stop><stop offset="1" stop-color="#F8D33A"></stop></linearGradient><linearGradient id="business-development-g_svg__paint1" x1="1.5" y1="0" x2="1.5" y2="6" gradientUnits="userSpaceOnUse"><stop stop-color="#F0B90B"></stop><stop offset="1" stop-color="#F8D33A"></stop></linearGradient><linearGradient id="business-development-g_svg__paint2" x1="1.5" y1="0" x2="1.5" y2="10" gradientUnits="userSpaceOnUse"><stop stop-color="#F0B90B"></stop><stop offset="1" stop-color="#F8D33A"></stop></linearGradient><linearGradient id="business-development-g_svg__paint3" x1="1.5" y1="0" x2="1.5" y2="15" gradientUnits="userSpaceOnUse"><stop stop-color="#F0B90B"></stop><stop offset="1" stop-color="#F8D33A"></stop></linearGradient><linearGradient id="business-development-g_svg__paint0" x1="1.5" y1="0" x2="1.5" y2="4" gradientUnits="userSpaceOnUse"><stop stop-color="#F0B90B"></stop><stop offset="1" stop-color="#F8D33A"></stop></linearGradient><linearGradient id="business-development-g_svg__paint1" x1="1.5" y1="0" x2="1.5" y2="6" gradientUnits="userSpaceOnUse"><stop stop-color="#F0B90B"></stop><stop offset="1" stop-color="#F8D33A"></stop></linearGradient><linearGradient id="business-development-g_svg__paint2" x1="1.5" y1="0" x2="1.5" y2="10" gradientUnits="userSpaceOnUse"><stop stop-color="#F0B90B"></stop><stop offset="1" stop-color="#F8D33A"></stop></linearGradient><linearGradient id="business-development-g_svg__paint3" x1="1.5" y1="0" x2="1.5" y2="15" gradientUnits="userSpaceOnUse"><stop stop-color="#F0B90B"></stop><stop offset="1" stop-color="#F8D33A"></stop></linearGradient></defs></svg>