<svg xmlns:xlink="http://www.w3.org/1999/xlink" xmlns="http://www.w3.org/2000/svg" viewBox="0 0 24 24" class="chat-icon" style="width: 32px; height: 32px;" width="32"  height="32" ><path d="M21.002 17V12C21.002 11.6893 20.9862 11.3824 20.9555 11.0798C20.9528 11.0532 20.95 11.0266 20.947 11C20.4496 6.50005 16.6345 3 12.002 3C7.03139 3 3.00195 7.02944 3.00195 12V17H8.00195V11H5.5784C6.05941 7.88491 8.75217 5.5 12.002 5.5C15.2517 5.5 17.9445 7.88491 18.4255 11H16.002V17H16.9009C16.0053 17.8777 14.8748 18.5166 13.6124 18.8139C13.2482 18.3202 12.6625 18 12.002 18C10.8974 18 10.002 18.8954 10.002 20C10.002 21.1046 10.8974 22 12.002 22C12.8165 22 13.5173 21.5131 13.8292 20.8144C16.18 20.3296 18.1958 18.9281 19.4864 17H21.002Z" fill="#181A20"></path></svg>