<svg xmlns:xlink="http://www.w3.org/1999/xlink" xmlns="http://www.w3.org/2000/svg" viewBox="0 0 50 50" fill="none" class="css-1rurn1s" width="50"  height="50" ><path d="M16.667 23.958v7.292H9.376a7.292 7.292 0 117.291-7.292zM36.458 2.083C30.13 2.083 25 7.213 25 13.542h22.917c0-6.329-5.13-11.459-11.459-11.459z" fill="#76808F"></path><path d="M13.772 28.356c-4.475 4.475-4.475 11.73 0 16.205l16.205-16.205c-4.475-4.475-11.73-4.475-16.205 0z" fill="#76808F"></path><path d="M36.458 25C30.13 25 25 19.87 25 13.542h22.917C47.917 19.87 42.787 25 36.458 25z" fill="url(&quot;#hr-g_svg__paint0_linear_2218_19597&quot;)"></path><path d="M29.978 44.56c-4.475 4.475-11.73 4.475-16.205 0l16.205-16.204c4.475 4.475 4.475 11.73 0 16.205z" fill="url(&quot;#hr-g_svg__paint1_linear_2218_19597&quot;)"></path><path d="M18.75 9.375h10.417v4.167H18.75V9.375z" fill="#76808F"></path><defs><linearGradient id="hr-g_svg__paint0_linear_2218_19597" x1="25" y1="19.271" x2="47.917" y2="19.271" gradientUnits="userSpaceOnUse"><stop stop-color="#F0B90B"></stop><stop offset="1" stop-color="#F8D33A"></stop></linearGradient><linearGradient id="hr-g_svg__paint1_linear_2218_19597" x1="23.554" y1="47.917" x2="23.554" y2="28.356" gradientUnits="userSpaceOnUse"><stop stop-color="#F0B90B"></stop><stop offset="1" stop-color="#F8D33A"></stop></linearGradient><linearGradient id="hr-g_svg__paint0_linear_2218_19597" x1="25" y1="19.271" x2="47.917" y2="19.271" gradientUnits="userSpaceOnUse"><stop stop-color="#F0B90B"></stop><stop offset="1" stop-color="#F8D33A"></stop></linearGradient><linearGradient id="hr-g_svg__paint1_linear_2218_19597" x1="23.554" y1="47.917" x2="23.554" y2="28.356" gradientUnits="userSpaceOnUse"><stop stop-color="#F0B90B"></stop><stop offset="1" stop-color="#F8D33A"></stop></linearGradient></defs></svg>