<svg xmlns:xlink="http://www.w3.org/1999/xlink" xmlns="http://www.w3.org/2000/svg" viewBox="0 0 24 24" fill="none" class="css-1sm7ur8" width="48"  height="48" ><path d="M13.22 2.556l-1.221 1.22-1.22-1.22a3.615 3.615 0 00-5.112 5.111L11.999 14l6.332-6.332a3.615 3.615 0 10-5.112-5.112z" fill="url(&quot;#charity-g_svg__paint0_linear&quot;)"></path><path d="M9.536 15.036L3 8.5v3.929a5 5 0 001.464 3.535L11 22.5v-3.929a5 5 0 00-1.464-3.536zM14.464 15.036L21 8.5v3.929a5 5 0 01-1.465 3.535L13 22.5v-3.929a5 5 0 011.464-3.536z" fill="#76808F"></path><defs><linearGradient id="charity-g_svg__paint0_linear" x1="11.999" y1="14" x2="11.999" y2="1.497" gradientUnits="userSpaceOnUse"><stop stop-color="#F0B90B"></stop><stop offset="1" stop-color="#F8D33A"></stop></linearGradient><linearGradient id="charity-g_svg__paint0_linear" x1="11.999" y1="14" x2="11.999" y2="1.497" gradientUnits="userSpaceOnUse"><stop stop-color="#F0B90B"></stop><stop offset="1" stop-color="#F8D33A"></stop></linearGradient></defs></svg>