<svg xmlns:xlink="http://www.w3.org/1999/xlink" xmlns="http://www.w3.org/2000/svg" viewBox="0 0 96 96" fill="none" class="css-13eh8r2" width="96"  height="96" ><path d="M28 54h8l12 12 12-12h8c8.837 0 16 7.163 16 16v14H12V70c0-8.837 7.163-16 16-16z" fill="url(&quot;#cs-light_svg__paint0_linear&quot;)"></path><path d="M74 9l4 4 4-4-4-4-4 4zM5 41l3 3 3-3-3-3-3 3zM85 53h3v-3h-3v3z" fill="#E6E8EA"></path><circle cx="48" cy="47" r="4" fill="url(&quot;#cs-light_svg__paint1_linear&quot;)"></circle><path d="M36 54l12 12 12-12v30H36V54z" fill="#E6E8EA"></path><path d="M33 24c0-8.284 6.716-15 15-15 8.284 0 15 6.716 15 15v2h4v-2c0-10.493-8.507-19-19-19s-19 8.507-19 19v2h4v-2z" fill="url(&quot;#cs-light_svg__paint2_linear&quot;)"></path><path d="M71 35.857C71 38.697 68.612 41 65.667 41H63V25.5h2.667c2.945 0 5.333 2.302 5.333 5.143v5.214z" fill="url(&quot;#cs-light_svg__paint3_linear&quot;)"></path><path d="M25 35.857C25 38.697 27.388 41 30.333 41H33V25.5h-2.667C27.388 25.5 25 27.802 25 30.643v5.214z" fill="url(&quot;#cs-light_svg__paint4_linear&quot;)"></path><defs><linearGradient id="cs-light_svg__paint0_linear" x1="48" y1="84" x2="48" y2="54" gradientUnits="userSpaceOnUse"><stop stop-color="#76808F"></stop><stop offset="1" stop-color="#929AA5"></stop></linearGradient><linearGradient id="cs-light_svg__paint1_linear" x1="48" y1="43" x2="48" y2="51" gradientUnits="userSpaceOnUse"><stop stop-color="#F0B90B"></stop><stop offset="1" stop-color="#F8D33A"></stop></linearGradient><linearGradient id="cs-light_svg__paint2_linear" x1="48" y1="5" x2="48" y2="26" gradientUnits="userSpaceOnUse"><stop stop-color="#929AA5"></stop><stop offset="1" stop-color="#76808F"></stop></linearGradient><linearGradient id="cs-light_svg__paint3_linear" x1="67" y1="41" x2="67" y2="25.5" gradientUnits="userSpaceOnUse"><stop stop-color="#F0B90B"></stop><stop offset="1" stop-color="#F8D33A"></stop></linearGradient><linearGradient id="cs-light_svg__paint4_linear" x1="29" y1="41" x2="29" y2="25.5" gradientUnits="userSpaceOnUse"><stop stop-color="#F0B90B"></stop><stop offset="1" stop-color="#F8D33A"></stop></linearGradient><linearGradient id="cs-light_svg__paint0_linear" x1="48" y1="84" x2="48" y2="54" gradientUnits="userSpaceOnUse"><stop stop-color="#76808F"></stop><stop offset="1" stop-color="#929AA5"></stop></linearGradient><linearGradient id="cs-light_svg__paint1_linear" x1="48" y1="43" x2="48" y2="51" gradientUnits="userSpaceOnUse"><stop stop-color="#F0B90B"></stop><stop offset="1" stop-color="#F8D33A"></stop></linearGradient><linearGradient id="cs-light_svg__paint2_linear" x1="48" y1="5" x2="48" y2="26" gradientUnits="userSpaceOnUse"><stop stop-color="#929AA5"></stop><stop offset="1" stop-color="#76808F"></stop></linearGradient><linearGradient id="cs-light_svg__paint3_linear" x1="67" y1="41" x2="67" y2="25.5" gradientUnits="userSpaceOnUse"><stop stop-color="#F0B90B"></stop><stop offset="1" stop-color="#F8D33A"></stop></linearGradient><linearGradient id="cs-light_svg__paint4_linear" x1="29" y1="41" x2="29" y2="25.5" gradientUnits="userSpaceOnUse"><stop stop-color="#F0B90B"></stop><stop offset="1" stop-color="#F8D33A"></stop></linearGradient></defs></svg>