<svg xmlns:xlink="http://www.w3.org/1999/xlink" xmlns="http://www.w3.org/2000/svg" viewBox="0 0 24 24" fill="none" class="css-1sm7ur8" width="48"  height="48" ><path transform="matrix(1 0 0 -1 3 21)" fill="url(&quot;#nft-marketplace-g_svg__paint0_linear_10143_17&quot;)" d="M0 0h18v18H0z"></path><path d="M4 12l8-8 8 8-8 8-8-8z" fill="#76808F"></path><path d="M8 8v8h8V8H8z" fill="url(&quot;#nft-marketplace-g_svg__paint1_linear_10143_17&quot;)"></path><path d="M9.5 12l2.5 2.5 2.5-2.5L12 9.5 9.5 12zM5 16l3 3H5v-3zM5 8l3-3H5v3zM16 5h3v3l-3-3zM16 19h3v-3l-3 3z" fill="#76808F"></path><defs><linearGradient id="nft-marketplace-g_svg__paint0_linear_10143_17" x1="9" y1="0" x2="9" y2="18" gradientUnits="userSpaceOnUse"><stop stop-color="#F0B90B"></stop><stop offset="1" stop-color="#F8D33A"></stop></linearGradient><linearGradient id="nft-marketplace-g_svg__paint1_linear_10143_17" x1="12" y1="16" x2="12" y2="8" gradientUnits="userSpaceOnUse"><stop stop-color="#F0B90B"></stop><stop offset="1" stop-color="#F8D33A"></stop></linearGradient><linearGradient id="nft-marketplace-g_svg__paint0_linear_10143_17" x1="9" y1="0" x2="9" y2="18" gradientUnits="userSpaceOnUse"><stop stop-color="#F0B90B"></stop><stop offset="1" stop-color="#F8D33A"></stop></linearGradient><linearGradient id="nft-marketplace-g_svg__paint1_linear_10143_17" x1="12" y1="16" x2="12" y2="8" gradientUnits="userSpaceOnUse"><stop stop-color="#F0B90B"></stop><stop offset="1" stop-color="#F8D33A"></stop></linearGradient></defs></svg>