<svg xmlns:xlink="http://www.w3.org/1999/xlink" xmlns="http://www.w3.org/2000/svg" viewBox="0 0 48 48" fill="none" class="css-cnf2ji" width="48"  height="48" ><path fill-rule="evenodd" clip-rule="evenodd" d="M4 4h40.001v32h-20.92l-9 9v-9H4.001V4Zm13.081 9.73c8.286 0 15.002 6.716 15.002 15.001h4c0-10.494-8.507-19.002-19.002-19.002v4Zm7 15.001a7 7 0 0 0-7-7v-4c6.075 0 11 4.925 11 11h-4Zm-7 3a3 3 0 1 0 0-6 3 3 0 0 0 0 6Z" fill="url(&quot;#a&quot;)"></path><path d="M17.081 13.73c8.286 0 15.002 6.716 15.002 15.001h4c0-10.494-8.507-19.002-19.002-19.002v4Z" fill="#76808F"></path><path d="M24.081 28.731a7 7 0 0 0-7-7v-4c6.075 0 11 4.925 11 11h-4ZM20.081 28.732a3 3 0 1 1-6 0 3 3 0 0 1 6 0Z" fill="#76808F"></path><defs><linearGradient id="a" x1="24.001" y1="4" x2="24.001" y2="45" gradientUnits="userSpaceOnUse"><stop stop-color="#F0B90B"></stop><stop offset="1" stop-color="#F8D33A"></stop></linearGradient><linearGradient id="a" x1="24.001" y1="4" x2="24.001" y2="45" gradientUnits="userSpaceOnUse"><stop stop-color="#F0B90B"></stop><stop offset="1" stop-color="#F8D33A"></stop></linearGradient></defs></svg>