<svg width="40" height="40" viewBox="0 0 40 40" fill="none" xmlns="http://www.w3.org/2000/svg">
<g clip-path="url(#clip0_81_21)">
<rect width="40" height="40" fill="white"/>
<circle cx="20" cy="20" r="20" fill="#F5F5F5"/>
<g clip-path="url(#clip1_81_21)">
<path fill-rule="evenodd" clip-rule="evenodd" d="M22.5691 16.6852C21.8458 15.962 20.8466 15.5147 19.743 15.5147C18.6393 15.5147 17.6401 15.962 16.9169 16.6852C16.1937 17.4084 15.7464 18.4076 15.7464 19.5113C15.7464 20.615 16.1937 21.6141 16.9169 22.3374C17.6401 23.0606 18.6393 23.5079 19.743 23.5079C20.8467 23.5079 21.8458 23.0606 22.5691 22.3374C23.2923 21.6141 23.7396 20.615 23.7396 19.5113C23.7396 18.4076 23.2923 17.4084 22.5691 16.6852ZM31.3857 15.8249C31.784 16.9992 32 18.2592 32 19.5713C32 20.7897 31.8137 21.9632 31.4682 23.0649C31.1538 24.0672 30.7086 25.0103 30.1527 25.8739L26.1984 21.9195C26.3312 21.5889 26.4366 21.2455 26.512 20.8919C26.6031 20.4641 26.6511 20.0222 26.6511 19.5713C26.6511 19.0148 26.5781 18.473 26.4411 17.9553C26.3243 17.5136 26.1607 17.0909 25.9561 16.6927L29.8399 12.8088C30.4933 13.7247 31.0173 14.7389 31.3857 15.8249ZM24.5779 30.1445C25.6991 29.6221 26.7225 28.9278 27.6139 28.096L23.8261 24.3082C23.4467 24.642 23.0262 24.9314 22.5728 25.1679C22.1123 25.4081 21.6189 25.5932 21.1014 25.7144V31.1427C22.3274 30.9913 23.4965 30.6484 24.5779 30.1445ZM11.0478 27.4334C9.15473 25.3616 8 22.6022 8 19.5713C8 16.5405 9.15473 13.7811 11.0478 11.7093C12.875 9.70951 15.3894 8.34862 18.2169 8.00005V13.4283C16.8591 13.746 15.6699 14.5021 14.807 15.5393C13.8965 16.6338 13.3489 18.0393 13.3489 19.5713C13.3489 21.1034 13.8965 22.5089 14.807 23.6033C15.6699 24.6405 16.8591 25.3967 18.2169 25.7143V31.1426C15.3894 30.7941 12.875 29.4331 11.0478 27.4334ZM20.0701 21.4556V21.8775C20.0701 22.0766 19.9087 22.238 19.7096 22.238C19.5105 22.238 19.3491 22.0766 19.3491 21.8775V21.4582H18.9029C18.7038 21.4582 18.5424 21.2968 18.5424 21.0977C18.5424 20.8986 18.7038 20.7372 18.9029 20.7372H19.9914C20.11 20.7372 20.2182 20.6884 20.2968 20.6098C20.3753 20.5312 20.4241 20.4231 20.4241 20.3044C20.4241 20.1858 20.3753 20.0777 20.2968 19.9991C20.2182 19.9205 20.11 19.8717 19.9914 19.8717H19.4945C19.1768 19.8717 18.8883 19.742 18.6794 19.5331C18.4705 19.3241 18.3408 19.0356 18.3408 18.718C18.3408 18.4003 18.4705 18.1118 18.6794 17.9029C18.856 17.7263 19.0893 17.6063 19.3491 17.5734V17.145C19.3491 16.9459 19.5105 16.7845 19.7096 16.7845C19.9087 16.7845 20.0701 16.9459 20.0701 17.145V17.5643H20.5831C20.7822 17.5643 20.9436 17.7257 20.9436 17.9248C20.9436 18.1239 20.7822 18.2853 20.5831 18.2853H19.4946C19.3759 18.2853 19.2678 18.3341 19.1893 18.4127C19.1107 18.4912 19.0619 18.5994 19.0619 18.718C19.0619 18.8366 19.1107 18.9447 19.1893 19.0233C19.2678 19.1019 19.3759 19.1507 19.4946 19.1507H19.9915C20.3091 19.1507 20.5976 19.2805 20.8066 19.4894C21.0155 19.6983 21.1452 19.9868 21.1452 20.3044C21.1452 20.6221 21.0155 20.9106 20.8066 21.1196C20.615 21.3112 20.3566 21.4361 20.0701 21.4556Z" fill="#FF4C54"/>
<path fill-rule="evenodd" clip-rule="evenodd" d="M24.3386 8.88898C23.3255 8.44467 22.2382 8.14029 21.1014 8V13.4282C21.5241 13.527 21.9295 13.6678 22.313 13.846C22.6965 14.0241 23.0598 14.2404 23.3981 14.4898L27.2056 10.6824C26.3483 9.95404 25.3837 9.3473 24.3386 8.88898Z" fill="#FDAA26"/>
</g>
</g>
<defs>
<clipPath id="clip0_81_21">
<rect width="40" height="40" fill="white"/>
</clipPath>
<clipPath id="clip1_81_21">
<rect width="24" height="24" fill="white" transform="translate(8 8)"/>
</clipPath>
</defs>
</svg>
