<svg width="40" height="40" viewBox="0 0 40 40" fill="none" xmlns="http://www.w3.org/2000/svg">
<g clip-path="url(#clip0_84_149)">
<rect width="40" height="40" fill="white"/>
<circle cx="20" cy="20" r="20" fill="#F5F5F5"/>
<path d="M30.38 25.1449C30.1856 24.6895 29.8223 24.3272 29.3663 24.1342C28.9103 23.9412 28.3973 23.9325 27.935 24.1099L22.5 25.9999C22.2827 26.3265 21.9838 26.5905 21.633 26.7659C21.2822 26.9414 20.8916 27.022 20.5 26.9999C20.3179 27.0119 20.1351 26.9915 19.96 26.9399L15.867 25.4934C15.7397 25.456 15.6322 25.37 15.5676 25.254C15.5031 25.138 15.4867 25.0014 15.522 24.8734C15.5509 24.7683 15.6135 24.6757 15.7002 24.6097C15.787 24.5437 15.893 24.5081 16.002 24.5084C16.0494 24.5073 16.0968 24.5141 16.142 24.5284L19.96 25.9319C20.2369 26.0105 20.53 26.0118 20.8075 25.9354C20.9312 25.8967 21.0459 25.8337 21.1447 25.7499C21.2436 25.6661 21.3246 25.5633 21.383 25.4476C21.4415 25.332 21.4761 25.2057 21.4848 25.0764C21.4936 24.9471 21.4763 24.8174 21.434 24.6949L21.4305 24.6874C21.3442 24.4988 21.2209 24.3295 21.0679 24.1894C20.915 24.0493 20.7354 23.9413 20.54 23.8719L17.1 22.2149C16.7494 22.0831 16.3794 22.0104 16.005 21.9999C15.5627 21.982 15.1216 22.0569 14.71 22.2199L12.9355 22.9854L12.795 23.0249L9.43 23.5049C9.31179 23.5223 9.20395 23.5821 9.12665 23.6732C9.04935 23.7643 9.00788 23.8805 9.01 23.9999H9V29.4999H9.01C9.00667 29.5366 9.00835 29.5736 9.015 29.6099C9.02898 29.6739 9.05554 29.7344 9.09314 29.788C9.13073 29.8415 9.17861 29.8871 9.23398 29.922C9.28935 29.9569 9.35111 29.9804 9.41567 29.9912C9.48022 30.002 9.54628 29.9999 9.61 29.9849L15.77 28.5649C15.877 28.5403 15.9892 28.5525 16.0885 28.5994L19.1885 30.0699C19.7137 30.3497 20.2991 30.4973 20.8941 30.4999C21.4892 30.5025 22.0759 30.3601 22.6035 30.0849L29.0785 27.7949C29.0973 27.7877 29.1157 27.7794 29.1335 27.7699C30.435 27.1199 30.69 25.9549 30.38 25.1449Z" fill="#FDAA26"/>
<path d="M21.1635 22.8701C21.2556 22.9538 21.3756 23.0002 21.5 23.0002C21.6245 23.0002 21.7445 22.9538 21.8365 22.8701L27.8315 17.4201C28.9345 16.3201 29.4955 15.1701 29.5 14.0031C29.5035 12.9706 29.21 11.5701 28.3755 10.7351C27.5541 9.93523 26.4505 9.49148 25.304 9.50007C24.5544 9.49127 23.8143 9.66888 23.1503 10.0169C22.4864 10.365 21.9193 10.8726 21.5 11.4941C21.0808 10.8726 20.5137 10.365 19.8497 10.0169C19.1857 9.66888 18.4457 9.49127 17.696 9.50007C16.5498 9.49108 15.4462 9.93428 14.6245 10.7336C13.79 11.5686 13.4965 12.9691 13.5 14.0001C13.5045 15.1651 14.0655 16.3146 15.1855 17.4336L21.1635 22.8701Z" fill="#FF4C54"/>
</g>
<defs>
<clipPath id="clip0_84_149">
<rect width="40" height="40" fill="white"/>
</clipPath>
</defs>
</svg>
