<svg width="40" height="40" viewBox="0 0 40 40" fill="none" xmlns="http://www.w3.org/2000/svg">
<g clip-path="url(#clip0_84_130)">
<rect width="40" height="40" fill="white"/>
<circle cx="20" cy="20" r="20" fill="#F5F5F5"/>
<path d="M30.5 26V27.875C30.5 28.9092 29.6585 29.75 28.625 29.75H12.5C10.8455 29.75 9.5 28.4045 9.5 26.75C9.5 26.75 9.5 14.0112 9.5 14C9.5 12.3455 10.8455 11 12.5 11H26.375C26.9967 11 27.5 11.504 27.5 12.125C27.5 12.746 26.9967 13.25 26.375 13.25H12.5C12.0868 13.25 11.75 13.586 11.75 14C11.75 14.414 12.0868 14.75 12.5 14.75H28.625C29.6585 14.75 30.5 15.5908 30.5 16.625V18.5H26.75C24.6823 18.5 23 20.1823 23 22.25C23 24.3177 24.6823 26 26.75 26H30.5Z" fill="#FF4C54"/>
<path d="M30.5 20V24.5H26.75C25.5073 24.5 24.5 23.4927 24.5 22.25C24.5 21.0073 25.5073 20 26.75 20H30.5Z" fill="#FDAA26"/>
</g>
<defs>
<clipPath id="clip0_84_130">
<rect width="40" height="40" fill="white"/>
</clipPath>
</defs>
</svg>
