<svg width="40" height="40" viewBox="0 0 40 40" fill="none" xmlns="http://www.w3.org/2000/svg">
<g clip-path="url(#clip0_84_138)">
<rect width="40" height="40" fill="white"/>
<circle cx="20" cy="20" r="20" fill="#F5F5F5"/>
<g clip-path="url(#clip1_84_138)">
<path d="M20.544 17.54V18.7466C20.544 19.1299 20.6205 19.4514 20.7716 19.7019C20.9799 20.0476 21.322 20.2457 21.7103 20.2457C22.0908 20.2457 22.469 20.0604 22.8341 19.6953L26.8195 15.7098C27.6946 14.8348 27.6946 13.4109 26.8195 12.5359L22.8341 8.55042C22.469 8.18512 22.0908 8 21.7103 8C21.1297 8 20.544 8.46362 20.544 9.49908V10.595C14.8856 10.9291 10.2014 15.2715 9.50527 20.9567C9.46627 21.2742 9.64681 21.5782 9.94436 21.6959C10.0286 21.7292 10.1163 21.7454 10.2029 21.7454C10.4223 21.7454 10.635 21.6426 10.7705 21.4575C12.6378 18.9061 15.636 17.3829 18.7905 17.3829C19.375 17.3829 19.9628 17.4356 20.544 17.54Z" fill="#FF4C54"/>
<path d="M30.0432 18.3041C29.7456 18.1862 29.4061 18.2843 29.217 18.5427C27.3499 21.0939 24.3517 22.6172 21.1972 22.6172C20.6127 22.6172 20.0249 22.5644 19.4437 22.4601V21.2534C19.4437 20.2179 18.8578 19.7543 18.2774 19.7543C17.8969 19.7543 17.5187 19.9396 17.1535 20.3049L13.168 24.2902C12.2931 25.1653 12.2931 26.5891 13.1682 27.4643L17.1535 31.4496C17.5187 31.8149 17.8969 32 18.2774 32C18.8578 32 19.4437 31.5364 19.4437 30.5009V29.4051C25.1022 29.0709 29.7863 24.7285 30.4824 19.0435C30.5214 18.7258 30.3409 18.4218 30.0432 18.3041Z" fill="#FDAA26"/>
</g>
</g>
<defs>
<clipPath id="clip0_84_138">
<rect width="40" height="40" fill="white"/>
</clipPath>
<clipPath id="clip1_84_138">
<rect width="24" height="24" fill="white" transform="translate(8 8)"/>
</clipPath>
</defs>
</svg>
