<svg width="40" height="40" viewBox="0 0 40 40" fill="none" xmlns="http://www.w3.org/2000/svg">
<g clip-path="url(#clip0_84_125)">
<rect width="40" height="40" fill="white"/>
<circle cx="20" cy="20" r="20" fill="#F5F5F5"/>
<path d="M13.1379 22.8965H10.6552C9.74104 22.8965 9 23.6375 9 24.5516V30.3447C9 31.2588 9.74104 31.9998 10.6552 31.9998H13.1379C14.052 31.9998 14.793 31.2588 14.793 30.3447V24.5516C14.793 23.6375 14.052 22.8965 13.1379 22.8965Z" fill="#FF4C54"/>
<path d="M21.4136 19.5864H18.1033C17.1892 19.5864 16.4481 20.3275 16.4481 21.2416V30.3449C16.4481 31.259 17.1892 32.0001 18.1033 32.0001H21.4136C22.3277 32.0001 23.0687 31.259 23.0687 30.3449V21.2416C23.0687 20.3275 22.3277 19.5864 21.4136 19.5864Z" fill="#FF4C54"/>
<path d="M28.8619 23.7241H26.3792C25.465 23.7241 24.724 24.4652 24.724 25.3793V30.3447C24.724 31.2589 25.465 31.9999 26.3792 31.9999H28.8619C29.776 31.9999 30.517 31.2589 30.517 30.3447V25.3793C30.517 24.4652 29.776 23.7241 28.8619 23.7241Z" fill="#FF4C54"/>
<path d="M24.2306 12.3202L22.6376 13.8735L23.0141 16.0666C23.1382 16.7899 22.3785 17.3419 21.7289 17.0001L19.7592 15.9648L17.7896 17.0001C17.14 17.3419 16.3802 16.7899 16.5044 16.0666L16.8809 13.8735L15.2878 12.3202C14.7623 11.8079 15.052 10.9149 15.7786 10.809L17.9808 10.4887L18.9656 8.49344C19.2908 7.83552 20.2293 7.83552 20.5537 8.49344L21.5385 10.4887L23.7407 10.809C24.4673 10.9149 24.757 11.8071 24.2315 12.3202H24.2306Z" fill="#FDAA26"/>
</g>
<defs>
<clipPath id="clip0_84_125">
<rect width="40" height="40" fill="white"/>
</clipPath>
</defs>
</svg>
