<svg width="40" height="40" viewBox="0 0 40 40" fill="none" xmlns="http://www.w3.org/2000/svg">
<g clip-path="url(#clip0_84_109)">
<rect width="40" height="40" fill="white"/>
<circle cx="20" cy="20" r="20" fill="#F5F5F5"/>
<g clip-path="url(#clip1_84_109)">
<path fill-rule="evenodd" clip-rule="evenodd" d="M28.1774 14.9965C27.7902 14.9965 27.4743 15.3124 27.4743 15.6997V30.0494C27.4743 30.4367 27.7902 30.7525 28.1774 30.7525H30.5469C30.9342 30.7525 31.25 30.4367 31.25 30.0494V15.6997C31.25 15.3124 30.9342 14.9965 30.5469 14.9965H28.1774ZM21.9489 20.7308C21.5616 20.7308 21.2458 21.0466 21.2458 21.4339V30.1964C21.2458 30.5837 21.5617 30.8995 21.9489 30.8995H24.3185C24.7057 30.8995 25.0215 30.5837 25.0215 30.1964C25.0215 27.2756 25.0215 24.3548 25.0215 21.4339C25.0215 21.0466 24.7057 20.7308 24.3185 20.7308C23.5286 20.7308 22.7388 20.7308 21.9489 20.7308ZM15.7205 18.6721C15.3332 18.6721 15.0173 18.988 15.0173 19.3753V30.3434C15.0173 30.7307 15.3331 31.0465 15.7205 31.0465H18.0899C18.4772 31.0465 18.7931 30.7307 18.7931 30.3434V19.3753C18.7931 18.988 18.4772 18.6721 18.0899 18.6721H15.7205ZM9.49203 24.7245H11.8614C12.2487 24.7245 12.5646 25.0403 12.5646 25.4276V30.4904C12.5646 30.8776 12.2487 31.1935 11.8614 31.1935H9.49203C9.10475 31.1935 8.78886 30.8776 8.78886 30.4904V25.4276C8.78891 25.0403 9.1048 24.7245 9.49203 24.7245Z" fill="#FF4C54"/>
<path fill-rule="evenodd" clip-rule="evenodd" d="M11.0315 17.9006L15.4424 14.0402C15.3813 13.8732 15.3479 13.6929 15.3479 13.5048C15.3479 12.6448 16.0452 11.9476 16.9052 11.9476C17.7488 11.9476 18.4356 12.6184 18.4617 13.4557L21.9478 14.6762C22.2335 14.3409 22.6587 14.1282 23.1336 14.1282C23.4016 14.1282 23.6538 14.1959 23.8739 14.3151L27.893 10.8813C27.836 10.7194 27.8048 10.5453 27.8048 10.3639C27.8048 9.50386 28.502 8.80664 29.3621 8.80664C30.2222 8.80664 30.9194 9.50386 30.9194 10.3639C30.9194 11.224 30.2222 11.9212 29.3621 11.9212C29.0941 11.9212 28.8419 11.8535 28.6218 11.7343L24.6028 15.1681C24.6598 15.33 24.6909 15.5041 24.6909 15.6855C24.6909 16.5456 23.9937 17.2428 23.1336 17.2428C22.29 17.2428 21.6032 16.572 21.5772 15.7348L18.091 14.5142C17.8054 14.8495 17.3802 15.0622 16.9052 15.0622C16.6437 15.0622 16.3973 14.9977 16.1809 14.8837L11.7701 18.7442C11.8312 18.9111 11.8645 19.0914 11.8645 19.2795C11.8645 20.1397 11.1673 20.8368 10.3072 20.8368C9.44722 20.8367 8.75 20.1396 8.75 19.2795C8.75 18.4193 9.44722 17.7222 10.3072 17.7222C10.5688 17.7222 10.8152 17.7867 11.0315 17.9006Z" fill="#FDAA26"/>
</g>
</g>
<defs>
<clipPath id="clip0_84_109">
<rect width="40" height="40" fill="white"/>
</clipPath>
<clipPath id="clip1_84_109">
<rect width="24" height="24" fill="white" transform="translate(8 8)"/>
</clipPath>
</defs>
</svg>
