<svg width="40" height="40" viewBox="0 0 40 40" fill="none" xmlns="http://www.w3.org/2000/svg">
<g clip-path="url(#clip0_81_2)">
<rect width="40" height="40" fill="white"/>
<circle cx="20" cy="20" r="20" fill="#F5F5F5"/>
<g clip-path="url(#clip1_81_2)">
<path d="M8 31.2969C8 31.4834 8.07408 31.6622 8.20594 31.7941C8.3378 31.9259 8.51664 32 8.70312 32H31.2969C31.4834 32 31.6622 31.9259 31.7941 31.7941C31.9259 31.6622 32 31.4834 32 31.2969V29.1875H8V31.2969Z" fill="#FF4C54"/>
<path d="M31.543 12.2656L20.2461 8.04686C20.0874 7.98731 19.9126 7.98731 19.7539 8.04686L8.45703 12.2656C8.3232 12.3156 8.20778 12.4052 8.12613 12.5224C8.04449 12.6397 8.00049 12.779 8 12.9219V14.5625H32V12.9219C31.9995 12.779 31.9555 12.6397 31.8739 12.5224C31.7922 12.4052 31.6768 12.3156 31.543 12.2656Z" fill="#FDAA26"/>
<path d="M8 16.6719C8 16.8584 8.07408 17.0372 8.20594 17.1691C8.3378 17.3009 8.51664 17.375 8.70312 17.375H9.21875V19.4844C9.21875 19.6709 9.29283 19.8497 9.42469 19.9816C9.55655 20.1134 9.73539 20.1875 9.92188 20.1875H10.625V24.9688H9.92188C9.73539 24.9688 9.55655 25.0428 9.42469 25.1747C9.29283 25.3066 9.21875 25.4854 9.21875 25.6719V27.7812H15.3125V25.6719C15.3125 25.4854 15.2384 25.3066 15.1066 25.1747C14.9747 25.0428 14.7959 24.9688 14.6094 24.9688H13.9062V20.1875H14.6094C14.7959 20.1875 14.9747 20.1134 15.1066 19.9816C15.2384 19.8497 15.3125 19.6709 15.3125 19.4844V17.375H16.9531V19.4844C16.9531 19.6709 17.0272 19.8497 17.1591 19.9816C17.2909 20.1134 17.4698 20.1875 17.6562 20.1875H18.3594V24.9688H17.6562C17.4698 24.9688 17.2909 25.0428 17.1591 25.1747C17.0272 25.3066 16.9531 25.4854 16.9531 25.6719V27.7812H23.0469V25.6719C23.0469 25.4854 22.9728 25.3066 22.8409 25.1747C22.7091 25.0428 22.5302 24.9688 22.3438 24.9688H21.6406V20.1875H22.3438C22.5302 20.1875 22.7091 20.1134 22.8409 19.9816C22.9728 19.8497 23.0469 19.6709 23.0469 19.4844V17.375H24.6875V19.4844C24.6875 19.6709 24.7616 19.8497 24.8934 19.9816C25.0253 20.1134 25.2041 20.1875 25.3906 20.1875H26.0938V24.9688H25.3906C25.2041 24.9688 25.0253 25.0428 24.8934 25.1747C24.7616 25.3066 24.6875 25.4854 24.6875 25.6719V27.7812H30.7812V25.6719C30.7812 25.4854 30.7072 25.3066 30.5753 25.1747C30.4434 25.0428 30.2646 24.9688 30.0781 24.9688H29.375V20.1875H30.0781C30.2646 20.1875 30.4434 20.1134 30.5753 19.9816C30.7072 19.8497 30.7812 19.6709 30.7812 19.4844V17.375H31.2969C31.4834 17.375 31.6622 17.3009 31.7941 17.1691C31.9259 17.0372 32 16.8584 32 16.6719V15.9688H8V16.6719Z" fill="#FF4C54"/>
</g>
</g>
<defs>
<clipPath id="clip0_81_2">
<rect width="40" height="40" fill="white"/>
</clipPath>
<clipPath id="clip1_81_2">
<rect width="24" height="24" fill="white" transform="translate(8 8)"/>
</clipPath>
</defs>
</svg>
