<svg width="40" height="40" viewBox="0 0 40 40" fill="none" xmlns="http://www.w3.org/2000/svg">
<g clip-path="url(#clip0_84_79)">
<rect width="40" height="40" fill="white"/>
<circle cx="20" cy="20" r="20" fill="#F5F5F5"/>
<path d="M28.0875 9.6001C24.657 9.6001 20.0538 11.9537 16.9626 16.0001H14.4C12.5483 16.0001 11.487 17.3822 10.7563 18.8438L9.77808 20.8001H12.0875H14.4L16.8 23.2001L19.2 25.6001V27.9126V30.222L21.1563 29.2439C22.6179 28.5131 24 27.4518 24 25.6001V23.0375C28.0464 19.9463 30.4 15.3431 30.4 11.9126V9.6001H28.0875ZM24 14.4001C24.8837 14.4001 25.6 15.1164 25.6 16.0001C25.6 16.8838 24.8837 17.6001 24 17.6001C23.1163 17.6001 22.4 16.8838 22.4 16.0001C22.4 15.1164 23.1163 14.4001 24 14.4001Z" fill="#FF4C54"/>
<path d="M13.6 24.0001L12.8 24.8001C11.6445 25.9556 11.2 28.8001 11.2 28.8001C11.2 28.8001 13.9168 28.4833 15.2 27.2001L16 26.4001L13.6 24.0001Z" fill="#FDAA26"/>
</g>
<defs>
<clipPath id="clip0_84_79">
<rect width="40" height="40" fill="white"/>
</clipPath>
</defs>
</svg>
