<svg width="40" height="40" viewBox="0 0 40 40" fill="none" xmlns="http://www.w3.org/2000/svg">
<g clip-path="url(#clip0_81_32)">
<rect width="40" height="40" fill="white"/>
<circle cx="20" cy="20" r="20" fill="#F5F5F5"/>
<g clip-path="url(#clip1_81_32)">
<path d="M18.57 23.1447C18.1123 23.1447 17.6819 22.9663 17.3577 22.6426C14.7968 20.0815 14.7968 15.9142 17.3577 13.3532L20.7898 9.92108C22.0284 8.68222 23.6778 8 25.4343 8C27.1909 8 28.8403 8.68222 30.0788 9.92108C32.6397 12.4821 32.6397 16.6493 30.0788 19.2103L27.7909 21.4984C27.4672 21.8223 27.0368 22.0006 26.5785 22.0008C26.1209 22.0008 25.6905 21.8224 25.3662 21.4987C25.0425 21.1748 24.8639 20.7442 24.8639 20.2861C24.8639 19.8281 25.0424 19.3975 25.3662 19.0736L27.6541 16.7855C28.8782 15.5615 28.8782 13.57 27.6541 12.346C27.0625 11.7544 26.2738 11.4284 25.4343 11.4284C24.5948 11.4284 23.8062 11.7544 23.2145 12.346L19.7824 15.7782C18.5583 17.0021 18.5583 18.9936 19.7824 20.2175C20.451 20.8861 20.451 21.974 19.7824 22.6425C19.458 22.9664 19.0277 23.1447 18.57 23.1447Z" fill="#FDAA26"/>
<path d="M14.5657 32C12.8092 32 11.1598 31.3178 9.92127 30.079C7.36039 27.5179 7.36039 23.3507 9.92127 20.7897L11.6376 19.0735C11.9614 18.7497 12.3923 18.5714 12.85 18.5714C13.3077 18.5714 13.7386 18.7498 14.0623 19.0737C14.386 19.3975 14.5647 19.8281 14.5647 20.2861C14.5647 20.7442 14.3861 21.1748 14.0623 21.4987L12.3459 23.2148C11.1219 24.4385 11.1219 26.4301 12.3459 27.654C12.9376 28.2457 13.7263 28.5716 14.5657 28.5716C15.4052 28.5716 16.1939 28.2458 16.7855 27.654L20.2177 24.2219C21.4417 22.998 21.4417 21.0064 20.2177 19.7825C19.894 19.4586 19.7153 19.028 19.7153 18.57C19.7153 18.112 19.8939 17.6814 20.2177 17.3575C20.5414 17.0337 20.9723 16.8555 21.43 16.8555C21.8877 16.8555 22.3186 17.0336 22.6423 17.3574C25.2032 19.9186 25.2032 24.0858 22.6423 26.6468L19.2102 30.079C17.9717 31.3178 16.3223 32 14.5657 32Z" fill="#FF4C54"/>
</g>
</g>
<defs>
<clipPath id="clip0_81_32">
<rect width="40" height="40" fill="white"/>
</clipPath>
<clipPath id="clip1_81_32">
<rect width="24" height="24" fill="white" transform="translate(8 8)"/>
</clipPath>
</defs>
</svg>
