<svg width="40" height="40" viewBox="0 0 40 40" fill="none" xmlns="http://www.w3.org/2000/svg">
<g clip-path="url(#clip0_84_98)">
<rect width="40" height="40" fill="white"/>
<circle cx="20" cy="20" r="20" fill="#F5F5F5"/>
<g clip-path="url(#clip1_84_98)">
<path d="M22.8065 15.3101C22.744 15.3331 22.6815 15.3586 22.619 15.3791C22.702 15.6741 23.2695 17.5501 24.6855 18.9641C24.882 19.1596 24.882 19.4756 24.6865 19.6711C24.589 19.7691 24.4605 19.8181 24.3325 19.8181C24.2045 19.8181 24.076 19.7691 23.9795 19.6721C23.132 18.8266 22.5595 17.8536 22.1935 17.0681C22.0015 17.5611 21.732 18.1021 21.3575 18.5786C21.187 18.7961 20.8725 18.8346 20.6565 18.6631C20.439 18.4926 20.401 18.1781 20.5715 17.9616C21.1995 17.1621 21.48 16.1056 21.582 15.6336C21.094 15.7171 20.612 15.7541 20.148 15.7541C18.915 15.7541 17.821 15.5121 17.1225 15.3106C14.4375 17.4876 11.1825 22.7321 11.203 27.1151C11.214 29.4686 12.4915 32.0011 15.2705 32.0011H24.661H24.6755C26.8945 31.9341 28.82 29.6476 28.7965 27.1081C28.757 22.7191 25.4815 17.4816 22.8065 15.3101ZM20 24.4156C21.259 24.4156 22.283 25.2871 22.283 26.3591C22.283 27.2846 21.5185 28.0571 20.5 28.2516V28.8411C20.5 29.1176 20.2765 29.3411 20 29.3411C19.7235 29.3411 19.5 29.1176 19.5 28.8411V28.2516C18.481 28.0566 17.716 27.2831 17.716 26.3591C17.716 26.0826 17.94 25.8591 18.216 25.8591C18.492 25.8591 18.716 26.0826 18.716 26.3591C18.716 26.8701 19.304 27.3021 20 27.3021C20.6955 27.3021 21.283 26.8711 21.283 26.3591C21.283 25.8481 20.696 25.4156 20 25.4156C18.7405 25.4156 17.716 24.5441 17.716 23.4716C17.716 22.5466 18.481 21.7736 19.5 21.5796V21.0626C19.5 20.7861 19.724 20.5626 20 20.5626C20.276 20.5626 20.5 20.7861 20.5 21.0626V21.5796C21.5185 21.7746 22.283 22.5476 22.283 23.4716C22.283 23.7486 22.0595 23.9716 21.783 23.9716C21.5065 23.9716 21.283 23.7486 21.283 23.4716C21.283 22.9826 20.742 22.5241 19.997 22.5241C19.252 22.5241 18.7155 22.9831 18.7155 23.4716C18.716 23.9836 19.304 24.4156 20 24.4156Z" fill="#FF4C54"/>
<path d="M16.911 14.1931C15.668 12.8871 14.4745 11.0161 14.494 9.98458C14.516 9.52008 14.5935 9.03458 15.0045 8.84608C15.44 8.64658 15.8405 8.95858 16.1925 9.23258C16.4235 9.41258 16.773 9.68058 16.949 9.64608C17.0515 9.62258 17.1865 9.46308 17.5855 8.88458C17.985 8.30558 18.471 7.96408 18.9705 8.00158C19.5775 8.04608 19.8915 8.62258 20.1955 9.18058C20.4335 9.59008 20.6435 9.96008 20.9415 10.2536C21.021 10.1861 21.1495 10.0301 21.2395 9.92008C21.7305 9.32208 22.645 8.20758 24.5705 8.97808C24.761 9.05358 24.885 9.23808 24.885 9.44258C24.885 10.8146 23.8955 12.8566 22.8305 14.2211C20.454 15.2736 17.6665 14.4536 16.911 14.1931Z" fill="#FDAA26"/>
</g>
</g>
<defs>
<clipPath id="clip0_84_98">
<rect width="40" height="40" fill="white"/>
</clipPath>
<clipPath id="clip1_84_98">
<rect width="24" height="24" fill="white" transform="translate(8 8)"/>
</clipPath>
</defs>
</svg>
