<svg width="40" height="40" viewBox="0 0 40 40" fill="none" xmlns="http://www.w3.org/2000/svg">
<g clip-path="url(#clip0_84_85)">
<rect width="40" height="40" fill="white"/>
<circle cx="20" cy="20" r="20" fill="#F5F5F5"/>
<g clip-path="url(#clip1_84_85)">
<path d="M23.8868 12.5766L20.3518 16.1116C20.1566 16.3068 20.1566 16.6234 20.3518 16.8186L23.1798 19.6466C23.375 19.8418 23.6916 19.8418 23.8868 19.6466L27.4218 16.1116C27.617 15.9164 27.617 15.5998 27.4218 15.4046L24.5938 12.5766C24.3986 12.3814 24.082 12.3814 23.8868 12.5766Z" fill="#FDAA26"/>
<path d="M22.7894 12.2611C19.3362 9.25186 16.6441 8.91026 16.52 8.89636C16.417 8.88493 16.313 8.90578 16.2224 8.95601C16.1318 9.00625 16.059 9.08339 16.0142 9.17678C15.9693 9.27017 15.9545 9.37519 15.972 9.47732C15.9894 9.57946 16.0381 9.67366 16.1113 9.74691L20.7075 14.3431L22.7894 12.2611Z" fill="#FF4C54"/>
<path d="M31.1033 23.48C31.0894 23.3557 30.7478 20.664 27.7392 17.2112L25.6572 19.2931L30.2527 23.8886C30.326 23.9619 30.4202 24.0106 30.5223 24.028C30.6245 24.0454 30.7295 24.0307 30.8229 23.9858C30.9162 23.9409 30.9934 23.8682 31.0436 23.7776C31.0939 23.6869 31.1147 23.583 31.1033 23.48Z" fill="#FF4C54"/>
<path d="M20.0003 17.8787L9.04 28.8388C8.94623 28.9326 8.89355 29.0598 8.89355 29.1924C8.89355 29.325 8.94623 29.4521 9.04 29.5459L10.4544 30.96C10.5482 31.0537 10.6753 31.1064 10.8079 31.1064C10.9406 31.1064 11.0677 31.0537 11.1615 30.96L22.1216 20L20.0003 17.8787Z" fill="#FF4C54"/>
</g>
</g>
<defs>
<clipPath id="clip0_84_85">
<rect width="40" height="40" fill="white"/>
</clipPath>
<clipPath id="clip1_84_85">
<rect width="24" height="24" fill="white" transform="translate(8 8)"/>
</clipPath>
</defs>
</svg>
