<svg width="40" height="40" viewBox="0 0 40 40" fill="none" xmlns="http://www.w3.org/2000/svg">
<g clip-path="url(#clip0_84_119)">
<rect width="40" height="40" fill="white"/>
<circle cx="20" cy="20" r="20" fill="#F5F5F5"/>
<path d="M9.59998 16.4116V23.5888C9.60104 24.2947 9.78912 24.9878 10.1451 25.5974C10.501 26.207 11.0121 26.7114 11.6264 27.0592L18.0264 30.6804C18.6304 31.0147 19.3094 31.1901 19.9998 31.1901C20.6901 31.1901 21.3692 31.0147 21.9732 30.6804L28.3732 27.0592C28.9874 26.7114 29.4986 26.207 29.8546 25.5974C30.2106 24.9878 30.3988 24.2948 30.4 23.5888V16.4116C30.399 15.7057 30.2109 15.0127 29.8549 14.4031C29.499 13.7935 28.9879 13.2891 28.3736 12.9412L21.9736 9.31963C21.3714 8.97904 20.6914 8.80005 19.9996 8.80005C19.3078 8.80005 18.6277 8.97904 18.0256 9.31963L11.6256 12.9408C11.0114 13.2889 10.5005 13.7934 10.1447 14.403C9.78887 15.0127 9.60093 15.7057 9.59998 16.4116ZM12.2172 13.9852L18.6172 10.364C19.0393 10.1267 19.5155 10.002 19.9998 10.002C20.4841 10.002 20.9602 10.1267 21.3824 10.364L27.7824 13.9852C28.212 14.2283 28.5696 14.5809 28.8186 15.0071C29.0676 15.4334 29.1992 15.918 29.2 16.4116V23.5888C29.1991 24.0824 29.0675 24.5669 28.8185 24.9931C28.5695 25.4192 28.212 25.7718 27.7824 26.0148L21.3824 29.636C20.9602 29.8734 20.4841 29.998 19.9998 29.998C19.5155 29.998 19.0393 29.8734 18.6172 29.636L12.2172 26.0148C11.7877 25.7716 11.4304 25.4191 11.1815 24.9929C10.9325 24.5668 10.8009 24.0823 10.8 23.5888V16.4116C10.8008 15.9181 10.9324 15.4335 11.1814 15.0073C11.4303 14.5811 11.7877 14.2285 12.2172 13.9852Z" fill="#FDAA26"/>
<path d="M12.6116 25.32L19.0116 28.9412C19.3136 29.1105 19.654 29.1994 20.0002 29.1994C20.3464 29.1994 20.6868 29.1105 20.9888 28.9412L27.3888 25.32C27.6953 25.1465 27.9503 24.8949 28.1279 24.5908C28.3056 24.2867 28.3994 23.9409 28.4 23.5888V16.4116C28.3995 16.0593 28.3057 15.7135 28.1281 15.4093C27.9505 15.1051 27.6954 14.8534 27.3888 14.68L20.9888 11.0584C20.6869 10.8887 20.3465 10.7996 20.0002 10.7996C19.6539 10.7996 19.3134 10.8887 19.0116 11.0584L12.6116 14.68C12.3049 14.8534 12.0497 15.105 11.872 15.4092C11.6943 15.7134 11.6004 16.0593 11.6 16.4116V23.5888C11.6005 23.941 11.6944 24.2868 11.8721 24.5909C12.0498 24.895 12.305 25.1466 12.6116 25.32ZM23.2 16.4H26.4C26.5061 16.4 26.6078 16.4421 26.6828 16.5171C26.7578 16.5921 26.8 16.6939 26.8 16.8C26.8 16.906 26.7578 17.0078 26.6828 17.0828C26.6078 17.1578 26.5061 17.2 26.4 17.2H25.2V23.2C25.2 23.306 25.1578 23.4078 25.0828 23.4828C25.0078 23.5578 24.9061 23.6 24.8 23.6C24.6939 23.6 24.5921 23.5578 24.5171 23.4828C24.4421 23.4078 24.4 23.306 24.4 23.2V17.2H23.2C23.0939 17.2 22.9921 17.1578 22.9171 17.0828C22.8421 17.0078 22.8 16.906 22.8 16.8C22.8 16.6939 22.8421 16.5921 22.9171 16.5171C22.9921 16.4421 23.0939 16.4 23.2 16.4ZM18.4 16.8C18.4 16.6939 18.4421 16.5921 18.5171 16.5171C18.5921 16.4421 18.6939 16.4 18.8 16.4H22C22.1061 16.4 22.2078 16.4421 22.2828 16.5171C22.3578 16.5921 22.4 16.6939 22.4 16.8C22.4 16.906 22.3578 17.0078 22.2828 17.0828C22.2078 17.1578 22.1061 17.2 22 17.2H19.2V19.6H20.8C20.9061 19.6 21.0078 19.6421 21.0828 19.7171C21.1578 19.7921 21.2 19.8939 21.2 20C21.2 20.106 21.1578 20.2078 21.0828 20.2828C21.0078 20.3578 20.9061 20.4 20.8 20.4H19.2V23.2C19.2 23.306 19.1578 23.4078 19.0828 23.4828C19.0078 23.5578 18.9061 23.6 18.8 23.6C18.6939 23.6 18.5921 23.5578 18.5171 23.4828C18.4421 23.4078 18.4 23.306 18.4 23.2V16.8ZM13.2 16.8C13.1999 16.7098 13.2303 16.6222 13.2862 16.5515C13.3422 16.4807 13.4204 16.431 13.5081 16.4103C13.5959 16.3896 13.6881 16.3991 13.7698 16.4374C13.8514 16.4757 13.9177 16.5404 13.958 16.6212L16.4 21.5056V16.8C16.4 16.6939 16.4421 16.5921 16.5171 16.5171C16.5921 16.4421 16.6939 16.4 16.8 16.4C16.9061 16.4 17.0078 16.4421 17.0828 16.5171C17.1578 16.5921 17.2 16.6939 17.2 16.8V23.2C17.2 23.2901 17.1697 23.3776 17.1138 23.4484C17.0579 23.5191 16.9797 23.5688 16.892 23.5896C16.8618 23.5964 16.8309 23.5998 16.8 23.6C16.7256 23.6 16.6528 23.5793 16.5895 23.5402C16.5263 23.5012 16.4752 23.4453 16.442 23.3788L14 18.4944V23.2C14 23.306 13.9578 23.4078 13.8828 23.4828C13.8078 23.5578 13.7061 23.6 13.6 23.6C13.4939 23.6 13.3921 23.5578 13.3171 23.4828C13.2421 23.4078 13.2 23.306 13.2 23.2V16.8Z" fill="#FF4C54"/>
</g>
<defs>
<clipPath id="clip0_84_119">
<rect width="40" height="40" fill="white"/>
</clipPath>
</defs>
</svg>
