<svg width="40" height="40" viewBox="0 0 40 40" fill="none" xmlns="http://www.w3.org/2000/svg">
<g clip-path="url(#clip0_84_90)">
<rect width="40" height="40" fill="white"/>
<circle cx="20" cy="20" r="20" fill="#F5F5F5"/>
<path d="M8 18.2859H32V20.8573H8V18.2859Z" fill="#FF4C54"/>
<path d="M32 16.5715V13.143C32 12.461 31.7291 11.8069 31.2468 11.3247C30.7646 10.8425 30.1106 10.5715 29.4286 10.5715H10.5714C9.88944 10.5715 9.23539 10.8425 8.75315 11.3247C8.27092 11.8069 8 12.461 8 13.143V16.5715H32Z" fill="#FDAA26"/>
<path d="M8 20.8572V26.8572C8 27.5392 8.27092 28.1932 8.75315 28.6755C9.23539 29.1577 9.88944 29.4286 10.5714 29.4286H29.4286C30.1106 29.4286 30.7646 29.1577 31.2468 28.6755C31.7291 28.1932 32 27.5392 32 26.8572V20.8572H8ZM16.5714 25.5715H13.1429C12.9155 25.5715 12.6975 25.4812 12.5368 25.3204C12.376 25.1597 12.2857 24.9416 12.2857 24.7143C12.2857 24.487 12.376 24.269 12.5368 24.1082C12.6975 23.9475 12.9155 23.8572 13.1429 23.8572H16.5714C16.7988 23.8572 17.0168 23.9475 17.1775 24.1082C17.3383 24.269 17.4286 24.487 17.4286 24.7143C17.4286 24.9416 17.3383 25.1597 17.1775 25.3204C17.0168 25.4812 16.7988 25.5715 16.5714 25.5715Z" fill="#FF4C54"/>
</g>
<defs>
<clipPath id="clip0_84_90">
<rect width="40" height="40" fill="white"/>
</clipPath>
</defs>
</svg>
