<svg width="40" height="40" viewBox="0 0 40 40" fill="none" xmlns="http://www.w3.org/2000/svg">
<g clip-path="url(#clip0_81_43)">
<rect width="40" height="40" fill="white"/>
<circle cx="20" cy="20" r="20" fill="#F5F5F5"/>
<path d="M25.4019 21.2174C21.8627 19.8089 17.7774 22.6192 17.8614 26.4303C17.853 31.3653 23.892 33.8611 27.3782 30.3741C30.244 27.5795 29.1217 22.5754 25.4019 21.2174ZM23.0998 26.0016H23.7686C25.6052 26.0405 25.6881 28.714 23.8629 28.8695C23.8629 28.8695 23.8629 29.1867 23.8629 29.1867C23.8629 29.4225 23.67 29.6154 23.4342 29.6154C23.1985 29.6154 23.0056 29.4225 23.0056 29.1867V28.8738H22.0925C21.5292 28.8624 21.5288 28.0248 22.0925 28.0164C22.0925 28.0164 23.7686 28.0164 23.7686 28.0164C24.53 28.0025 24.5294 26.8698 23.7686 26.859H23.0998C21.2633 26.8201 21.1803 24.1465 23.0056 23.9911C23.0055 23.9911 23.0055 23.6738 23.0055 23.6738C23.0055 23.438 23.1985 23.2452 23.4342 23.2452C23.67 23.2452 23.8629 23.438 23.8629 23.6738V23.9868H24.776C25.3393 23.9981 25.3397 24.8358 24.776 24.8441H23.0998C22.3385 24.8581 22.3391 25.9907 23.0998 26.0016Z" fill="#FDAA26"/>
<path d="M15.7265 21.3076C16.4047 21.2744 17.1279 21.2792 17.7928 21.329C18.3072 21.3676 18.8045 21.4405 19.2846 21.5305C19.4904 21.3547 19.7047 21.1875 19.9405 21.0375C20.9736 20.3602 22.1868 20.0044 23.4429 20.0044C24.3199 19.998 25.2202 20.1895 26.0193 20.5403C27.1206 19.1697 27.7246 17.4848 27.7211 15.7132C27.7363 8.98905 19.5567 5.4686 14.6933 10.1147C11.4527 13.0725 11.5393 18.5292 14.7792 21.389C15.1649 21.3419 15.495 21.3204 15.7265 21.3076ZM23.4343 18.2082C23.3737 20.2738 20.746 20.2688 20.6864 18.2082C20.7477 16.1418 23.3724 16.1376 23.4343 18.2082ZM21.7281 11.8722C22.0183 11.3912 22.7451 11.8037 22.4697 12.3009C22.4697 12.3009 18.2815 19.5542 18.2815 19.5542C17.992 20.0389 17.2649 19.6159 17.5399 19.1255C17.5399 19.1256 21.7281 11.8722 21.7281 11.8722ZM17.9514 11.6579C19.7645 11.7233 19.7598 14.7192 17.9514 14.783C16.1364 14.7202 16.1327 11.7216 17.9514 11.6579Z" fill="#FF4C54"/>
<path d="M17.9514 13.9257C18.6247 13.8996 18.6284 12.5428 17.9514 12.5154C17.2704 12.5339 17.2744 13.9089 17.9514 13.9257Z" fill="#FF4C54"/>
<path d="M21.5437 18.2083C21.5662 19.1293 22.5568 19.1329 22.5768 18.2083C22.5494 17.2749 21.5735 17.2789 21.5437 18.2083Z" fill="#FF4C54"/>
<path d="M17.7027 29.3455C16.9586 29.5221 16.1268 29.4069 15.3663 29.3884C14.0274 29.2885 12.5641 29.0285 11.4181 28.3638C11.2595 28.2695 11.1224 28.1709 11.0023 28.0723V28.5738C11.0023 29.9799 13.8059 30.7173 16.5752 30.7173C17.2568 30.7173 17.917 30.6744 18.5343 30.5929C18.2002 30.2129 17.9295 29.7947 17.7027 29.3455Z" fill="#FF4C54"/>
<path d="M11.8597 27.6309C12.9662 28.2584 14.4042 28.4755 15.6921 28.5483C16.2329 28.5804 16.8223 28.5822 17.364 28.5569C17.3554 28.5269 17.3426 28.4969 17.334 28.4668C17.2132 28.1129 17.105 27.679 17.0596 27.2794C16.8995 27.2875 16.7396 27.2882 16.5752 27.288C14.1819 27.2421 12.3379 26.9247 11.0023 25.9248C11.0014 26.6336 10.917 27.0283 11.8597 27.6309Z" fill="#FF4C54"/>
<path d="M11.8598 25.4829C12.9552 26.1578 15.1591 26.4916 17.004 26.4217C16.9957 25.1843 17.3557 23.9852 18.0371 22.9279C18.1893 22.6976 18.3491 22.4828 18.5301 22.272C17.8833 22.1812 17.2464 22.1446 16.5753 22.1434C14.356 22.0893 11.0119 22.8157 11.0111 24.2012C10.9571 24.7236 11.2994 25.1415 11.8598 25.4829Z" fill="#FF4C54"/>
</g>
<defs>
<clipPath id="clip0_81_43">
<rect width="40" height="40" fill="white"/>
</clipPath>
</defs>
</svg>
