<svg width="48" height="48" viewBox="0 0 48 48" fill="none" xmlns="http://www.w3.org/2000/svg">
<path d="M15.933 10.1795C18.3015 8.79404 21.058 8 24 8C26.942 8 29.6985 8.79404 32.067 10.1795C32.2983 8.77867 33.1118 7.57424 34.2507 6.82309C31.253 5.03032 27.7468 4 24 4C20.2532 4 16.747 5.03032 13.7493 6.82308C14.8882 7.57424 15.7017 8.77867 15.933 10.1795Z" fill="#76808F"/>
<path d="M10.1795 15.933C8.77867 15.7017 7.57424 14.8882 6.82308 13.7493C5.03032 16.747 4 20.2532 4 24C4 27.7468 5.03032 31.253 6.82309 34.2507C7.57424 33.1118 8.77867 32.2983 10.1795 32.067C8.79404 29.6985 8 26.942 8 24C8 21.058 8.79404 18.3015 10.1795 15.933Z" fill="#76808F"/>
<path d="M15.933 37.8205C15.7017 39.2213 14.8882 40.4258 13.7493 41.1769C16.747 42.9697 20.2532 44 24 44C27.7468 44 31.253 42.9697 34.2507 41.1769C33.1118 40.4258 32.2983 39.2213 32.067 37.8205C29.6985 39.206 26.942 40 24 40C21.058 40 18.3015 39.206 15.933 37.8205Z" fill="#76808F"/>
<path d="M37.8205 32.067C39.2213 32.2983 40.4258 33.1118 41.1769 34.2507C42.9697 31.253 44 27.7468 44 24C44 20.2532 42.9697 16.747 41.1769 13.7493C40.4258 14.8882 39.2213 15.7017 37.8205 15.933C39.206 18.3015 40 21.058 40 24C40 26.942 39.206 29.6985 37.8205 32.067Z" fill="#76808F"/>
<path d="M32 24C32 19.5817 28.4183 16 24 16C19.5817 16 16 19.5817 16 24C16 28.4183 19.5817 32 24 32C28.4183 32 32 28.4183 32 24Z" fill="url(#paint0_linear_651_69465)"/>
<path d="M43 11C43 7.68629 40.3137 5 37 5C33.6863 5 31 7.68629 31 11C31 14.3137 33.6863 17 37 17C40.3137 17 43 14.3137 43 11Z" fill="url(#paint1_linear_651_69465)"/>
<path d="M43 37C43 33.6863 40.3137 31 37 31C33.6863 31 31 33.6863 31 37C31 40.3137 33.6863 43 37 43C40.3137 43 43 40.3137 43 37Z" fill="url(#paint2_linear_651_69465)"/>
<path d="M17 11C17 7.68629 14.3137 5 11 5C7.68629 5 5 7.68629 5 11C5 14.3137 7.68629 17 11 17C14.3137 17 17 14.3137 17 11Z" fill="url(#paint3_linear_651_69465)"/>
<path d="M17 37C17 33.6863 14.3137 31 11 31C7.68629 31 5 33.6863 5 37C5 40.3137 7.68629 43 11 43C14.3137 43 17 40.3137 17 37Z" fill="url(#paint4_linear_651_69465)"/>
<defs>
<linearGradient id="paint0_linear_651_69465" x1="24" y1="32" x2="24" y2="16" gradientUnits="userSpaceOnUse">
<stop stop-color="#F0B90B"/>
<stop offset="1" stop-color="#F8D33A"/>
</linearGradient>
<linearGradient id="paint1_linear_651_69465" x1="37" y1="17" x2="37" y2="5" gradientUnits="userSpaceOnUse">
<stop stop-color="#F0B90B"/>
<stop offset="1" stop-color="#F8D33A"/>
</linearGradient>
<linearGradient id="paint2_linear_651_69465" x1="37" y1="43" x2="37" y2="31" gradientUnits="userSpaceOnUse">
<stop stop-color="#F0B90B"/>
<stop offset="1" stop-color="#F8D33A"/>
</linearGradient>
<linearGradient id="paint3_linear_651_69465" x1="11" y1="17" x2="11" y2="5" gradientUnits="userSpaceOnUse">
<stop stop-color="#F0B90B"/>
<stop offset="1" stop-color="#F8D33A"/>
</linearGradient>
<linearGradient id="paint4_linear_651_69465" x1="11" y1="43" x2="11" y2="31" gradientUnits="userSpaceOnUse">
<stop stop-color="#F0B90B"/>
<stop offset="1" stop-color="#F8D33A"/>
</linearGradient>
</defs>
</svg>
