<svg width="280" height="280" fill="none" xmlns="http://www.w3.org/2000/svg"><path fill="#929AA5" d="M144.576 223.929v8.479l-85.488-49.365v-8.479z" opacity=".31"/><path transform="matrix(.86604 .49997 -.86604 .49997 99.137 161)" fill="url(#paint0_linear_3647_91969)" d="M0 0h69.706v24.406H0z"/><path fill="#CACED3" d="M144.576 223.83v8.67l72.336-41.77v-8.67z" opacity=".36"/><path fill="#CACED3" fill-opacity=".12" d="M130.951 132.676l85.724 49.489-72.058 41.599-85.724-49.489z"/><path d="M157.2 138.952l-57.26-33.06c-5.008-2.891-5.024-7.606-.036-10.53 4.988-2.925 13.092-2.952 18.099-.061l57.261 33.06-18.064 10.591z" fill="#474D57"/><path d="M110.284 146.999c0 4.778 3.355 10.587 7.492 12.975l51.025 29.46-.004-56.648-58.517-33.784.004 47.997z" fill="url(#paint1_linear_3647_91969)"/><path d="M106.066 150.162c.001 4.778 3.355 10.587 7.492 12.976l50.089 28.918-.004-56.647-57.58-33.244.003 47.997z" fill="#929AA5"/><path fill-rule="evenodd" clip-rule="evenodd" d="M96.236 101.062l-.072-.041.004 51.42c0 4.777 3.367 10.563 7.521 12.924l53.974 30.676-.004-57.451a13.388 13.388 0 01-1.467-.717l-56.24-31.962c-2.367-1.344-3.605-3.087-3.716-4.849z" fill="url(#paint2_linear_3647_91969)"/><path fill-rule="evenodd" clip-rule="evenodd" d="M99.94 105.892l57.26 33.059 2.254-1.321-57.564-33.234c-3.8-2.194-3.812-5.771-.027-7.99 3.784-2.219 9.932-2.24 13.732-.046l57.564 33.235 2.105-1.235-57.261-33.06c-5.007-2.89-13.111-2.863-18.099.061-4.988 2.925-4.972 7.64.035 10.531z" fill="#CACED3"/><path d="M175.237 186.403l-2.272 1.311.004-58.2 2.272-1.312-.004 58.201z" fill="#76808F"/><path d="M168.079 190.535l4.885-2.821.005-58.2-4.886 2.821-.004 58.2z" fill="#474D57"/><path d="M159.589 194.856l-2.272 1.312.004-57.369 2.272-1.312-.004 57.369z" fill="#AEB4BC"/><path d="M172.999 164.683l-15.338 8.855.001-17.667 15.339-8.855-.002 17.667z" fill="#76808F"/><path d="M141.648 164.669l15.938 9.202-.001-17.656-15.938-9.202.001 17.656z" fill="#474D57"/><path d="M157.106 156.17l-15.605-9.01 1.387-.801 15.606 9.01-1.388.801z" fill="#AEB4BC"/><path d="M157.316 156.17l16.894-9.754-1.387-.801-16.894 9.754 1.387.801z" fill="#CACED3"/><path d="M153.873 163.335l-5.087-8.811-5.087 2.937 5.087 8.811 5.087-2.937z" fill="#F0B90B"/><g opacity=".7"><path opacity=".33" fill="#E6E8EA" d="M23.632 86.032l10.412 6.047-10.562 6.133-10.413-6.046z"/><path opacity=".23" fill="#AEB4BC" d="M23.473 98.21v9.77l-10.42-6.052v-9.771z"/><path opacity=".21" fill="#CACED3" d="M34.047 92.086v9.906l-10.474-6.084v-9.906z"/><path opacity=".4" fill="#929AA5" d="M23.473 98.217v9.853l10.573-6.14v-9.854z"/><path transform="matrix(.86477 .50217 -.86477 .50217 23.506 95.832)" fill="url(#paint3_linear_3647_91969)" d="M0 0h12.132v12.103H0z" opacity=".62"/></g><path fill="#FCEA9C" d="M176.431 12.025l8.258 4.742-8.376 4.81-8.258-4.742z"/><path opacity=".76" fill="#F8D33A" d="M176.306 21.575v7.662l-8.264-4.747v-7.662z"/><path fill="#F0B90B" d="M176.306 21.58v7.726l8.385-4.816v-7.726z"/><path opacity=".19" fill="#FCEA9C" d="M176.332 19.71l8.32 4.778-8.3 4.766-8.32-4.777z"/><path fill-rule="evenodd" clip-rule="evenodd" d="M106 107.31c0-10.453-7.339-23.166-16.391-28.393-5.064-2.924-9.591-2.887-12.598-.458l-6.28 3.426 2.591 4.397a20.15 20.15 0 00-.105 2.098c0 10.453 7.339 23.166 16.392 28.393.81.469 1.608.861 2.387 1.18l2.194 3.72 5.484-3.076a7.82 7.82 0 002.726-1.528l.658-.369-.103-.156c1.917-1.992 3.045-5.135 3.045-9.234z" fill="#54E8B4"/><rect width="37.856" height="37.856" rx="18.928" transform="matrix(0 -1 .86599 .50006 67 110.856)" fill="#FAFAFA"/><path fill-rule="evenodd" clip-rule="evenodd" d="M99.783 110.859c0-10.454-7.339-23.166-16.391-28.394C74.339 77.238 67 81.475 67 91.928c0 5.492 2.025 11.608 5.261 16.933v.381h.234c2.896 4.651 6.713 8.664 10.897 11.08 9.052 5.227 16.391.991 16.391-9.463zm-7.53-9.2l.182-.107-.182-.319v.426z" fill="#02C076"/><path opacity=".23" fill-rule="evenodd" clip-rule="evenodd" d="M99.783 110.859c0-10.454-7.339-23.166-16.391-28.394C74.339 77.238 67 81.475 67 91.928c0 5.492 2.025 11.608 5.261 16.933v.381h.234c2.896 4.651 6.713 8.664 10.897 11.08 9.052 5.227 16.391.991 16.391-9.463zm-7.53-9.2l.182-.107-.182-.319v.426z" fill="#0F8F62"/><path d="M75.61 97.874c.181-4.419 3.356-6.082 7.092-3.716 1.687 1.069 3.198 2.773 4.334 4.732.122.212.24.426.355.644l1.929-1.01c-.157-.3-.321-.597-.49-.89-1.572-2.709-3.668-5.075-6.002-6.553-5.172-3.276-9.569-.973-9.82 5.145-.25 6.118 3.74 13.733 8.912 17.009 5.173 3.277 9.57.973 9.82-5.144l2.667 1.688-3.775-7.205-4.16 2.18 2.667 1.689c-.181 4.418-3.357 6.082-7.093 3.715-3.735-2.366-6.617-7.866-6.436-12.284z" fill="#fff" stroke="#06B572" stroke-width=".966"/><path d="M83.34 97.87l-2.81-1.78-.246 6.007 3.407 6.502 2.083-1.092-2.623-5.007.19-4.63z" fill="#fff" stroke="#06B572" stroke-width=".966"/><path d="M212.417 75.18c4.498 2.686 8.571 8.005 10.541 13.764l.023.068c.501.164 1.01.376 1.522.634 5.279 2.712 9.882 9.77 10.525 16.137l.141.145c4.367 2.013 8.287 7.855 8.816 13.14.528 5.287-2.535 8.067-6.885 6.248-.544-.232-1.366-.702-1.366-.702l-34.466-19.895v-.018c-5.097-3.055-9.328-9.918-9.882-16.028-.595-6.649 3.358-10.046 8.868-7.62l.04.022c.24-4.845 2.841-7.78 6.782-7.657 1.667.057 3.495.66 5.341 1.762z" fill="#CACED3"/><path fill="#CACED3" d="M204.104 73.962l8.565 4.945-10.77 6.217-8.564-4.945zM194 81.12l8.582 4.954-9.778 5.645-8.582-4.954zm39.195 39.22l8.537 4.929-10.4 6.004-8.537-4.929z"/><path d="M202.087 81.082c4.498 2.687 8.571 8.006 10.541 13.765l.023.068c.501.163 1.01.375 1.522.634 5.279 2.711 9.882 9.769 10.525 16.137l.141.145c4.367 2.013 8.287 7.855 8.816 13.139.528 5.288-2.535 8.067-6.885 6.249-.543-.232-1.366-.703-1.366-.703l-34.466-19.894v-.018c-5.097-3.056-9.328-9.918-9.882-16.029-.595-6.648 3.358-10.045 8.869-7.62l.039.023c.24-4.846 2.841-7.781 6.783-7.657 1.667.056 3.494.66 5.34 1.761z" fill="#E6E8EA"/><path opacity=".23" d="M202.087 81.082c4.498 2.687 8.571 8.006 10.541 13.765l.023.068c.501.163 1.01.375 1.522.634 5.279 2.711 9.882 9.769 10.525 16.137l.141.145c4.367 2.013 8.287 7.855 8.816 13.139.528 5.288-2.535 8.067-6.885 6.249-.543-.232-1.366-.703-1.366-.703l-34.466-19.894v-.018c-5.097-3.056-9.328-9.918-9.882-16.029-.595-6.648 3.358-10.045 8.869-7.62l.039.023c.24-4.846 2.841-7.781 6.783-7.657 1.667.056 3.494.66 5.34 1.761z" fill="url(#paint4_linear_3647_91969)"/><path fill-rule="evenodd" clip-rule="evenodd" d="M189.853 109.887c-4.601-3.322-8.283-9.641-8.797-15.312a14.29 14.29 0 01-.055-.948l.258-.15 52.187 30.128c.093.457.163.913.209 1.365.523 5.241-2.48 8.017-6.769 6.296l-37.033-21.379z" fill="url(#paint5_linear_3647_91969)" opacity=".09"/><defs><linearGradient id="paint0_linear_3647_91969" x1="34.853" y1="0" x2="34.853" y2="24.406" gradientUnits="userSpaceOnUse"><stop stop-color="#929AA5"/><stop offset="0" stop-color="#F2BF15"/><stop offset="1" stop-color="#D3D6DB" stop-opacity="0"/></linearGradient><linearGradient id="paint1_linear_3647_91969" x1="123.54" y1="105.817" x2="180.082" y2="156.454" gradientUnits="userSpaceOnUse"><stop stop-color="#F0B90B"/><stop offset="1" stop-color="#F8D33A"/></linearGradient><linearGradient id="paint2_linear_3647_91969" x1="181.131" y1="381.743" x2="116.815" y2="120.263" gradientUnits="userSpaceOnUse"><stop stop-color="#717882"/><stop offset="1" stop-color="#646E7D"/></linearGradient><linearGradient id="paint3_linear_3647_91969" x1="-7.682" y1="-2.108" x2="10.615" y2="-6.412" gradientUnits="userSpaceOnUse"><stop stop-color="#CFD7E2"/><stop offset="1" stop-color="#76808F" stop-opacity="0"/></linearGradient><linearGradient id="paint4_linear_3647_91969" x1="207.353" y1="84.121" x2="191.774" y2="111.105" gradientUnits="userSpaceOnUse"><stop stop-color="#CACED3"/><stop offset="1" stop-color="#CACED3" stop-opacity="0"/></linearGradient><linearGradient id="paint5_linear_3647_91969" x1="224.843" y1="123.607" x2="189.149" y2="124.403" gradientUnits="userSpaceOnUse"><stop stop-color="#AEB4BC"/><stop offset="1" stop-color="#AEB4BC" stop-opacity="0"/></linearGradient></defs></svg>