<svg width="280" height="280" fill="none" xmlns="http://www.w3.org/2000/svg"><g opacity=".5"><mask id="a" fill="#fff"><path d="M83.784 193.388l80.899-46.706 54.269 31.818-80.899 46.707-54.269-31.819z"/></mask><path d="M83.059 192.963l-.728.421 1.45.85.729-.42-1.451-.851zm82.35-45.856l.728-.421-1.451-.85-.728.42 1.451.851zm54.268 31.818l.729-.42-1.451-.851-.729.421 1.451.85zm-82.349 45.857l-.729.42 1.451.851.729-.421-1.451-.85zm1.877.604l.729-.421-1.451-.85-.729.42 1.451.851zm5.05-4.604l-.728.42 1.451.851.728-.42-1.451-.851zm2.305.358l.728-.421-1.451-.85-.728.42 1.451.851zm5.05-4.604l-.729.42 1.451.851.729-.42-1.451-.851zm2.304.358l.729-.421-1.451-.85-.729.42 1.451.851zm5.05-4.604l-.728.42 1.451.851.728-.421-1.451-.85zm2.305.358l.728-.421-1.451-.85-.728.42 1.451.851zm5.05-4.604l-.729.42 1.451.851.729-.421-1.451-.85zm2.304.358l.728-.421-1.451-.851-.728.421 1.451.851zm5.05-4.604l-.728.42 1.451.851.728-.421-1.451-.85zm2.305.358l.728-.421-1.451-.851-.728.421 1.451.851zm5.05-4.604l-.729.42 1.451.851.728-.421-1.45-.85zm2.304.357l.728-.42-1.451-.851-.728.421 1.451.85zm5.05-4.604l-.728.421 1.451.851.728-.421-1.451-.851zm2.304.358l.729-.42-1.451-.851-.728.421 1.45.85zm5.05-4.604l-.728.421 1.451.851.728-.421-1.451-.851zm2.305.358l.728-.42-1.451-.851-.728.421 1.451.85zm5.05-4.604l-.728.421 1.45.85.729-.42-1.451-.851zm2.304.358l.729-.42-1.451-.851-.729.42 1.451.851zm5.05-4.604l-.728.421 1.451.85.728-.42-1.451-.851zm2.305.358l.728-.42-1.451-.851-.728.42 1.451.851zm5.05-4.604l-.729.421 1.451.85.729-.42-1.451-.851zm-54.269-31.818l-.728.42 1.451.851.728-.421-1.451-.85zm-5.05 4.604l.728-.421-1.451-.851-.728.421 1.451.851zm-2.304-.358l-.729.42 1.451.851.728-.421-1.45-.85zm-5.05 4.604l.728-.421-1.451-.851-.728.421 1.451.851zm-2.305-.358l-.728.42 1.451.851.728-.421-1.451-.85zm-5.05 4.604l.728-.421-1.45-.85-.729.42 1.451.851zm-2.304-.358l-.729.42 1.451.851.729-.42-1.451-.851zm-5.05 4.604l.728-.421-1.451-.85-.728.42 1.451.851zm-2.305-.358l-.728.42 1.451.851.728-.42-1.451-.851zm-5.05 4.604l.729-.421-1.451-.85-.729.42 1.451.851zm-2.304-.358l-.728.42 1.45.851.729-.42-1.451-.851zm-5.05 4.604l.728-.421-1.451-.85-.728.42 1.451.851zm-2.305-.358l-.728.421 1.451.85.728-.42-1.451-.851zm-5.05 4.604l.729-.42-1.451-.851-.729.42 1.451.851zm-2.304-.358l-.728.421 1.451.85.728-.42-1.451-.851zm-5.05 4.604l.728-.42-1.451-.851-.728.42 1.451.851zm-2.305-.358l-.728.421 1.451.85.728-.42-1.451-.851zm-5.05 4.604l.729-.42-1.451-.851-.728.421 1.45.85zm-2.304-.358l-.728.421 1.45.85.729-.42-1.45-.851zm-5.05 4.604l.728-.42-1.45-.851-.729.421 1.451.85zm-2.304-.358l-.729.421 1.451.851.728-.421-1.45-.851zm-5.05 4.604l.728-.42-1.451-.851-.728.421 1.45.85zm53.842 32.065l.426-.246-1.451-.851-.426.247 1.451.85zm6.927-3.999l.854-.493-1.451-.851-.854.493 1.451.851zm7.355-4.246l.853-.493-1.451-.851-.853.493 1.451.851zm7.354-4.247l.854-.492-1.451-.851-.854.493 1.451.85zm7.355-4.246l.853-.492-1.451-.851-.853.493 1.451.85zm7.354-4.246l.854-.492-1.451-.851-.854.493 1.451.85zm7.354-4.246l.854-.493-1.451-.85-.853.493 1.45.85zm7.355-4.246l.853-.493-1.45-.85-.854.492 1.451.851zm7.354-4.246l.854-.493-1.451-.85-.854.492 1.451.851zm7.355-4.246l.853-.493-1.451-.851-.853.493 1.451.851zm7.354-4.246l.854-.493-1.451-.851-.854.493 1.451.851zm7.355-4.246l.426-.247-1.451-.85-.426.246 1.451.851zm-55.293-32.916l-.427.247 1.451.85.427-.246-1.451-.851zm-6.928 4l-.853.493 1.45.85.854-.492-1.451-.851zm-7.354 4.246l-.854.493 1.451.85.854-.492-1.451-.851zm-7.355 4.246l-.853.493 1.451.851.853-.493-1.451-.851zm-7.354 4.246l-.854.493 1.451.851.854-.493-1.451-.851zm-7.355 4.246l-.853.493 1.451.851.853-.493-1.451-.851zm-7.354 4.246l-.854.493 1.451.851.854-.493-1.451-.851zm-7.355 4.246l-.853.493 1.451.851.853-.493-1.451-.851zm-7.354 4.246l-.854.493 1.451.851.854-.493-1.451-.851zm-7.354 4.247l-.854.492 1.45.851.855-.493-1.451-.85zm-7.355 4.246l-.853.492 1.45.851.854-.493-1.45-.85zm-7.354 4.246l-.427.246 1.45.851.428-.247-1.451-.85zm-1.153-.179l-1.456.841 2.902 1.701 1.456-.841-2.901-1.701zm83.801-45.006l1.457-.841-2.902-1.701-1.457.841 2.902 1.701zm54.269 31.819l1.456-.841-2.901-1.702-1.457.841 2.902 1.702zm-83.801 45.005l-1.456.841 2.901 1.702 1.457-.841-2.902-1.702zm3.329 1.455l1.456-.841-2.901-1.701-1.457.841 2.902 1.701zm3.599-5.454l-1.457.841 2.902 1.701 1.457-.841-2.902-1.701zm3.755 1.208l1.457-.841-2.902-1.701-1.457.841 2.902 1.701zm3.599-5.454l-1.456.841 2.902 1.701 1.456-.841-2.902-1.701zm3.756 1.208l1.456-.841-2.902-1.701-1.456.841 2.902 1.701zm3.599-5.455l-1.457.841 2.902 1.702 1.457-.841-2.902-1.702zm3.755 1.209l1.457-.841-2.902-1.701-1.457.841 2.902 1.701zm3.599-5.455l-1.456.841 2.901 1.702 1.457-.841-2.902-1.702zm3.756 1.209l1.456-.841-2.902-1.701-1.456.841 2.902 1.701zm3.599-5.455l-1.457.841 2.902 1.702 1.456-.841-2.901-1.702zm3.755 1.209l1.457-.841-2.902-1.701-1.457.84 2.902 1.702zm3.599-5.455l-1.456.841 2.901 1.702 1.457-.841-2.902-1.702zm3.755 1.209l1.457-.841-2.902-1.702-1.456.841 2.901 1.702zm3.6-5.455l-1.457.841 2.902 1.701 1.456-.841-2.901-1.701zm3.755 1.209l1.456-.841-2.901-1.702-1.457.841 2.902 1.702zm3.599-5.455l-1.457.841 2.902 1.701 1.457-.841-2.902-1.701zm3.755 1.209l1.457-.841-2.902-1.702-1.456.841 2.901 1.702zm3.599-5.455l-1.456.841 2.902 1.701 1.456-.841-2.902-1.701zm3.756 1.209l1.456-.841-2.902-1.702-1.456.841 2.902 1.702zm3.599-5.455l-1.457.841 2.902 1.701 1.457-.841-2.902-1.701zm3.755 1.208l1.457-.841-2.902-1.701-1.457.841 2.902 1.701zm3.599-5.454l-1.456.841 2.901 1.701 1.457-.841-2.902-1.701zm-54.268-31.819l-1.457.841 2.902 1.702 1.456-.841-2.901-1.702zm-3.6 5.455l1.457-.841-2.902-1.701-1.456.841 2.901 1.701zm-3.755-1.209l-1.456.841 2.901 1.702 1.457-.841-2.902-1.702zm-3.599 5.455l1.457-.841-2.902-1.701-1.457.841 2.902 1.701zm-3.755-1.209l-1.457.841 2.902 1.702 1.456-.841-2.901-1.702zm-3.599 5.455l1.456-.841-2.902-1.701-1.456.841 2.902 1.701zm-3.756-1.209l-1.456.841 2.901 1.702 1.457-.841-2.902-1.702zm-3.599 5.455l1.457-.841-2.902-1.701-1.457.841 2.902 1.701zm-3.755-1.208l-1.457.841 2.902 1.701 1.457-.841-2.902-1.701zm-3.599 5.454l1.456-.841-2.902-1.701-1.456.841 2.902 1.701zm-3.756-1.208l-1.456.841 2.902 1.701 1.456-.841-2.902-1.701zm-3.599 5.454l1.457-.841-2.902-1.701-1.457.841 2.902 1.701zm-3.755-1.208l-1.457.841 2.902 1.701 1.457-.841-2.902-1.701zm-3.599 5.454l1.456-.841-2.901-1.701-1.457.841 2.902 1.701zm-3.756-1.208l-1.456.841 2.902 1.701 1.456-.841-2.902-1.701zm-3.599 5.454l1.457-.84-2.902-1.702-1.456.841 2.901 1.701zm-3.755-1.208l-1.457.841 2.902 1.701 1.457-.841-2.902-1.701zm-3.599 5.455l1.457-.841-2.902-1.702-1.457.841 2.902 1.702zm-3.755-1.209l-1.457.841 2.902 1.701 1.456-.841-2.901-1.701zm-3.6 5.455l1.457-.841-2.902-1.702-1.456.841 2.901 1.702zm-3.755-1.209l-1.456.841 2.901 1.701 1.457-.841-2.902-1.701zm-3.599 5.455l1.457-.841-2.902-1.702-1.457.841 2.902 1.702zm53.842 32.065l.427-.247-2.902-1.701-.427.246 2.902 1.702zm6.928-4l.853-.493-2.902-1.701-.853.493 2.902 1.701zm7.354-4.246l.854-.493-2.902-1.701-.854.493 2.902 1.701zm7.355-4.246l.853-.493-2.902-1.701-.853.492 2.902 1.702zm7.354-4.246l.854-.493-2.902-1.701-.854.492 2.902 1.702zm7.354-4.246l.854-.493-2.902-1.702-.853.493 2.901 1.702zm7.355-4.246l.853-.493-2.901-1.702-.854.493 2.902 1.702zm7.354-4.247l.854-.492-2.902-1.702-.853.493 2.901 1.701zm7.355-4.246l.853-.492-2.901-1.702-.854.493 2.902 1.701zm7.354-4.246l.854-.492-2.902-1.702-.854.493 2.902 1.701zm7.355-4.246l.853-.493-2.902-1.701-.853.493 2.902 1.701zm7.354-4.246l.427-.246-2.902-1.702-.427.247 2.902 1.701zm-56.744-33.766l-.426.246 2.901 1.702.427-.247-2.902-1.701zm-6.927 4l-.854.492 2.902 1.702.853-.493-2.901-1.701zm-7.355 4.246l-.853.492 2.901 1.702.854-.493-2.902-1.701zm-7.354 4.246l-.854.492 2.902 1.702.854-.493-2.902-1.701zm-7.355 4.246l-.853.493 2.902 1.701.853-.493-2.902-1.701zm-7.354 4.246l-.854.493 2.902 1.701.854-.493-2.902-1.701zm-7.355 4.246l-.853.493 2.902 1.701.853-.493-2.902-1.701zm-7.354 4.246l-.854.493 2.902 1.701.854-.493-2.902-1.701zm-7.354 4.246l-.854.493 2.902 1.701.853-.493-2.901-1.701zm-7.355 4.246l-.853.493 2.901 1.701.854-.492-2.902-1.702zm-7.354 4.246l-.854.493 2.902 1.701.853-.492-2.901-1.702zm-7.355 4.246l-.427.247 2.902 1.701.427-.246-2.902-1.702z" fill="#929AA5" mask="url(#a)"/></g><path transform="matrix(.86604 .49997 -.86604 .49997 61.137 205)" fill="url(#paint0_linear_3647_92197)" d="M0 0h67.847v24.406H0z" opacity=".5"/><path d="M168.013 115.199l-4.873 2.77.008-97.346 4.873-2.77-.008 97.346z" fill="url(#paint1_linear_3647_92197)"/><path fill="#474D57" d="M217.225 49.642l-56.098-32.391.005 131.751 56.098 32.391z"/><path transform="matrix(-.866 -.50003 .00004 1 214.668 56.848)" fill="url(#paint2_linear_3647_92197)" d="M0 0h59.059v114.688H0z"/><path d="M189.386 37.936l-1.532-2.564-1.532.795 1.532 2.565 1.532-.796z" fill="#929AA5"/><path fill="#1E2026" d="M217.225 49.555v131.933l7.667-4.427V45.128z"/><path fill="#76808F" d="M217.225 49.555v131.811l7.667-4.427V45.128z"/><path fill="#AEB4BC" d="M168.458 13l56.169 32.426-7.457 4.306L161 17.305z"/><g clip-path="url(#clip0_3647_92197)" fill="#474D57"><path d="M174.238 91.559l3.239 5.608 3.238-1.87-3.239-5.608-3.238 1.87zm5.552 9.615l8.79 15.223 8.788-5.074-3.238-5.609-5.551 3.205-5.551-9.615-3.238 1.87z"/><path d="M185.34 97.969l3.239 5.608 3.238-1.869-3.239-5.609-3.238 1.87z"/><path d="M183.027 93.963l-3.238-5.609 8.788-5.074 8.79 15.223-3.237 1.87-5.552-9.615-5.551 3.205zm13.416 10.415l3.238 5.609 3.238-1.87-3.238-5.608-3.238 1.869z"/></g><path fill="#FCEA9C" d="M99.593 90.428l7.668 3.864-7.306 4.742-7.668-3.865z"/><path opacity=".76" fill="#F8D33A" d="M99.948 99.032l.376 6.9-7.674-3.868-.375-6.9z"/><path fill="#F0B90B" d="M99.949 99.038l.378 6.957 7.315-4.748-.379-6.957z"/><path opacity=".19" fill="#FCEA9C" d="M99.88 97.353l7.727 3.894-7.242 4.698-7.726-3.894z"/><path opacity=".33" fill="#E6E8EA" d="M33.144 41.042l13.854 7.945-14.052 8.058L19.092 49.1z"/><path opacity=".23" fill="#AEB4BC" d="M32.934 57.041V69.88L19.07 61.927V49.09z"/><path opacity=".21" fill="#CACED3" d="M47 48.995V62.01l-13.933-7.992V41.003z"/><path opacity=".4" fill="#929AA5" d="M32.934 57.051v12.944L47 61.927V48.983z"/><path transform="scale(1.2268 .70351) rotate(45 -79.074 70.768)" fill="url(#paint3_linear_3647_92197)" d="M0 0h16.09v16.052H0z" opacity=".62"/><path fill-rule="evenodd" clip-rule="evenodd" d="M170 63.31c0-10.453-7.339-23.166-16.391-28.393-5.064-2.924-9.591-2.887-12.598-.458l-6.281 3.426 2.592 4.397a20.434 20.434 0 00-.105 2.098c0 10.453 7.339 23.166 16.392 28.393.811.469 1.608.86 2.387 1.18l2.194 3.72 5.484-3.076a7.828 7.828 0 002.726-1.528l.658-.37-.103-.156C168.872 70.552 170 67.41 170 63.31z" fill="#54E8B4"/><rect width="37.856" height="37.856" rx="18.928" transform="matrix(0 -1 .86599 .50006 131 66.856)" fill="#FAFAFA"/><path fill-rule="evenodd" clip-rule="evenodd" d="M163.783 66.859c0-10.454-7.339-23.166-16.391-28.394-9.053-5.227-16.392-.99-16.392 9.463 0 5.492 2.026 11.608 5.261 16.934v.38h.234c2.896 4.65 6.713 8.664 10.897 11.08 9.052 5.227 16.391.99 16.391-9.463zm-7.53-9.2l.182-.107-.182-.319v.426z" fill="#02C076"/><path opacity=".23" fill-rule="evenodd" clip-rule="evenodd" d="M163.783 66.859c0-10.454-7.339-23.166-16.391-28.394-9.053-5.227-16.392-.99-16.392 9.463 0 5.492 2.026 11.608 5.261 16.934v.38h.234c2.896 4.65 6.713 8.664 10.897 11.08 9.052 5.227 16.391.99 16.391-9.463zm-7.53-9.2l.182-.107-.182-.319v.426z" fill="#0F8F62"/><circle cx="18.928" cy="18.928" r="18.928" transform="matrix(0 -1 .86599 .50006 131 66.856)" fill="#02C076"/><path d="M140.145 53.206l-2.858 1.65 6.351 11.001 14.756-7.814-2.54-4.4-11.898 6.164-3.811-6.601z" fill="url(#paint4_linear_3647_92197)"/><path d="M140.145 53.206l-2.858 1.65 6.351 11.001 14.756-7.814-2.54-4.4-11.898 6.164-3.811-6.601z" fill="#fff"/><path d="M117.328 183.886l-57.26-33.06c-5.008-2.891-5.024-7.606-.036-10.53 4.988-2.925 13.091-2.952 18.1-.061l57.26 33.06-18.064 10.591z" fill="#474D57"/><path d="M70.412 191.933c0 4.778 3.354 10.587 7.492 12.976l51.025 29.459-.004-56.648-58.517-33.784.004 47.997z" fill="url(#paint5_linear_3647_92197)"/><path d="M66.194 195.097c0 4.777 3.355 10.586 7.492 12.975l50.089 28.918-.004-56.647-57.58-33.244.003 47.998z" fill="#929AA5"/><path fill-rule="evenodd" clip-rule="evenodd" d="M56.364 145.996l-.072-.041.004 51.42c0 4.777 3.367 10.563 7.52 12.924l53.975 30.676-.004-57.451a13.388 13.388 0 01-1.467-.717l-56.24-31.962c-2.367-1.344-3.605-3.087-3.716-4.849z" fill="url(#paint6_linear_3647_92197)"/><path fill-rule="evenodd" clip-rule="evenodd" d="M60.067 150.826l57.261 33.059 2.254-1.321-57.564-33.234c-3.8-2.194-3.812-5.771-.027-7.99 3.784-2.219 9.932-2.239 13.732-.046l57.564 33.235 2.105-1.235-57.26-33.059c-5.008-2.891-13.112-2.864-18.1.06-4.988 2.925-4.972 7.64.035 10.531z" fill="#CACED3"/><path d="M135.365 231.337l-2.272 1.312.004-58.201 2.272-1.311-.004 58.2z" fill="#76808F"/><path d="M128.207 235.469l4.885-2.821.005-58.2-4.886 2.821-.004 58.2z" fill="#474D57"/><path d="M119.717 239.79l-2.272 1.312.004-57.369 2.272-1.312-.004 57.369z" fill="#AEB4BC"/><path d="M133.127 209.617l-15.338 8.855.001-17.667 15.339-8.855-.002 17.667z" fill="#76808F"/><path d="M101.776 209.603l15.938 9.202-.001-17.656-15.938-9.202.001 17.656z" fill="#474D57"/><path d="M117.234 201.104l-15.605-9.01 1.387-.801 15.605 9.01-1.387.801z" fill="#AEB4BC"/><path d="M117.444 201.104l16.894-9.754-1.387-.801-16.894 9.754 1.387.801z" fill="#CACED3"/><path d="M114 208.269l-5.086-8.811-5.087 2.937 5.087 8.811 5.086-2.937z" fill="#F0B90B"/><defs><linearGradient id="paint0_linear_3647_92197" x1="33.924" y1="0" x2="33.924" y2="24.406" gradientUnits="userSpaceOnUse"><stop stop-color="#929AA5"/><stop offset="0" stop-color="#F2BF15"/><stop offset="1" stop-color="#D3D6DB" stop-opacity="0"/></linearGradient><linearGradient id="paint1_linear_3647_92197" x1="163.333" y1="78.258" x2="150.495" y2="75.192" gradientUnits="userSpaceOnUse"><stop stop-color="#929AA5"/><stop offset="1" stop-color="#929AA5" stop-opacity=".61"/></linearGradient><linearGradient id="paint2_linear_3647_92197" x1="29.53" y1="0" x2="29.53" y2="114.688" gradientUnits="userSpaceOnUse"><stop stop-color="#F0B90B"/><stop offset="1" stop-color="#F8D33A"/></linearGradient><linearGradient id="paint3_linear_3647_92197" x1="-10.188" y1="-2.796" x2="14.078" y2="-8.504" gradientUnits="userSpaceOnUse"><stop stop-color="#CFD7E2"/><stop offset="1" stop-color="#76808F" stop-opacity="0"/></linearGradient><linearGradient id="paint4_linear_3647_92197" x1="147.841" y1="49.015" x2="139.496" y2="63.465" gradientUnits="userSpaceOnUse"><stop stop-color="#F0B90B"/><stop offset="1" stop-color="#F8D33A"/></linearGradient><linearGradient id="paint5_linear_3647_92197" x1="83.667" y1="150.751" x2="140.21" y2="201.388" gradientUnits="userSpaceOnUse"><stop stop-color="#F0B90B"/><stop offset="1" stop-color="#F8D33A"/></linearGradient><linearGradient id="paint6_linear_3647_92197" x1="141.259" y1="426.677" x2="76.943" y2="165.197" gradientUnits="userSpaceOnUse"><stop stop-color="#717882"/><stop offset="1" stop-color="#646E7D"/></linearGradient><clipPath id="clip0_3647_92197"><path fill="#fff" transform="matrix(.86603 .5 -.00008 -1 174.24 108.117)" d="M0 0h33.117v33.117H0z"/></clipPath></defs></svg>