<svg width="280" height="280" fill="none" xmlns="http://www.w3.org/2000/svg"><path fill="#929AA5" d="M143.928 242.275v8.479L58.44 201.389v-8.479z" opacity=".31"/><path transform="scale(1.22477 .70706) rotate(45 -264.63 224.084)" fill="url(#paint0_linear_3647_92483)" d="M0 0h69.706v24.406H0z"/><path fill="#CACED3" d="M143.928 242.177v8.67l72.336-41.77v-8.67z" opacity=".36"/><path transform="matrix(0 1 .86599 -.50006 143.928 166.369)" fill="url(#paint1_linear_3647_92483)" d="M0 0h84.478v83.53H0z" opacity=".42"/><path fill="#CACED3" fill-opacity=".12" d="M130.303 151.022l85.724 49.489-72.058 41.599-85.724-49.489z"/><path transform="scale(1.22477 .70706) rotate(45 -74.847 181.46)" fill="url(#paint2_linear_3647_92483)" d="M0 0h98.984v83.204H0z"/><path d="M156.552 157.298l-57.261-33.06c-5.008-2.891-5.023-7.605-.035-10.53 4.988-2.925 13.091-2.952 18.099-.061l57.261 33.06-18.064 10.591z" fill="#474D57"/><path d="M109.636 163.904c0 5.573 3.913 12.351 8.74 15.137l49.777 28.739-.004-56.647-58.517-33.785.004 46.556z" fill="url(#paint3_linear_3647_92483)"/><path d="M105.418 167.067c0 5.574 3.914 12.351 8.74 15.138l48.841 28.198-.005-56.648-57.58-33.244.004 46.556z" fill="#929AA5"/><path fill-rule="evenodd" clip-rule="evenodd" d="M95.588 119.409l-.072-.041.003 49.977c0 5.574 3.93 12.325 8.775 15.079l52.721 29.964-.004-57.452a13.476 13.476 0 01-1.467-.716l-56.241-31.962c-2.366-1.345-3.604-3.088-3.715-4.849z" fill="url(#paint4_linear_3647_92483)"/><path fill-rule="evenodd" clip-rule="evenodd" d="M99.291 124.238l57.261 33.06 2.254-1.322-57.564-33.234c-3.8-2.194-3.812-5.771-.027-7.99 3.784-2.219 9.932-2.239 13.732-.046l57.564 33.235 2.105-1.234-57.261-33.06c-5.008-2.891-13.111-2.864-18.099.06-4.988 2.925-4.972 7.64.035 10.531z" fill="#CACED3"/><path d="M174.588 204.749l-2.272 1.312.005-58.2 2.272-1.312-.005 58.2z" fill="#76808F"/><path d="M167.431 208.881l4.885-2.821.004-58.2-4.885 2.821-.004 58.2z" fill="#474D57"/><path d="M158.941 213.202l-2.272 1.312.004-57.368 2.272-1.312-.004 57.368z" fill="#AEB4BC"/><path d="M172.351 183.029l-15.338 8.856.001-17.668 15.338-8.855-.001 17.667z" fill="#76808F"/><path d="M141 183.015l15.938 9.202-.001-17.655-15.939-9.202.002 17.655z" fill="#474D57"/><path d="M156.458 174.516l-15.605-9.01 1.387-.8 15.605 9.009-1.387.801z" fill="#AEB4BC"/><path d="M156.668 174.516l16.894-9.754-1.387-.8-16.894 9.753 1.387.801z" fill="#CACED3"/><path d="M153.224 181.682l-5.087-8.811-5.087 2.937 5.087 8.811 5.087-2.937z" fill="#F0B90B"/><path transform="matrix(0 1 -.86599 -.50006 142.832 165.3)" fill="url(#paint5_linear_3647_92483)" d="M0 0h76.536v97.452H0z"/><path fill="#AEB4BC" d="M62.492 160.763v30.849L38 177.469V146.62z"/><path d="M46.467 176.629l1.882-8.945c-1.598-1.295-2.801-3.621-2.802-5.577 0-2.231 1.567-3.134 3.498-2.019 1.933 1.116 3.5 3.828 3.5 6.059 0 1.802-1.023 2.737-2.433 2.445l1.515 11.042-5.16-3.005z" fill="#76808F"/><path fill="#CACED3" d="M62.492 160.763v30.849l8.08-4.666v-30.849z"/><path fill="#76808F" d="M62.534 160.803L38.038 146.66l8.204-4.736 24.497 14.143z"/><path d="M65.143 147.635v8.111s-.093 1.318-1.655 1.616c-.2.039-.422.06-.672.06-2.211 0-2.443-1.771-2.443-1.771v-9.32c0-3.404 0-9.427-5.586-11.507 0 0-.003-.003-.012-.006-4.35-1.654-5.57 2.708-5.57 4.91v7.391s-.096 1.021-1.524 1.2a3.506 3.506 0 01-.452.026c-1.863 0-2.211-1.226-2.211-1.226s-.232 1.049-.232-7.662c0-8.71 4.97-11.566 10.355-10.084.22.071.435.145.643.223 9.064 3.333 9.359 12.37 9.359 18.039z" fill="#929AA5"/><path d="M59.563 139.751c.81 2.282.81 4.793.81 6.58v9.32s.232 1.771 2.443 1.771c.25 0 .473-.021.672-.06 1.563-.298 1.655-1.616 1.655-1.616v-8.111c0-5.669-.295-14.706-9.359-18.039a14.677 14.677 0 00-.643-.223c-3.21-.884-6.272-.226-8.222 2.294 3.94-1.855 11.144 1.587 12.645 8.084z" fill="#CACED3"/><path opacity=".33" fill="#E6E8EA" d="M239.712 45.03l9.512 5.442-9.648 5.52-9.512-5.442z"/><path opacity=".23" fill="#AEB4BC" d="M239.567 55.99v8.794l-9.518-5.447v-8.795z"/><path opacity=".21" fill="#CACED3" d="M249.226 50.477v8.917l-9.567-5.476v-8.916z"/><path opacity=".4" fill="#929AA5" d="M239.567 55.996v8.868l9.658-5.527v-8.868z"/><path transform="matrix(.86797 .4966 -.86797 .4966 239.596 53.85)" fill="url(#paint6_linear_3647_92483)" d="M0 0h11.042v11.015H0z" opacity=".62"/><path fill="#FCEA9C" d="M28.194 60.028l9.004 5.243-9.133 5.319-9.005-5.244z"/><path opacity=".76" fill="#F8D33A" d="M28.057 70.588v11.85l-9.011-5.249V65.34z"/><path fill="#F0B90B" d="M28.057 70.594v11.9L37.2 77.17v-11.9z"/><path opacity=".19" fill="#FCEA9C" d="M28.085 71.92l9.072 5.282-9.051 5.27-9.072-5.282z"/><path d="M137.953 90.421l19.464-3.746V51.713l-38.929-22.476V64.45l19.465 25.972z" fill="#F0B90B"/><g clip-path="url(#clip0_3647_92483)" fill="#fff"><path d="M126.001 56.389l2.619 4.535 2.618-1.512-2.619-4.535-2.618 1.512zm4.489 7.774l7.107 12.31 7.106-4.104-2.618-4.535-4.488 2.592-4.489-7.775-2.618 1.512z"/><path d="M134.978 61.572l2.618 4.535 2.618-1.512-2.618-4.535-2.618 1.512z"/><path d="M133.107 58.332l-2.618-4.535 7.106-4.102 7.107 12.309-2.618 1.511-4.489-7.774-4.488 2.591zm10.848 8.422l2.618 4.535 2.618-1.511-2.618-4.535-2.618 1.511z"/></g><path fill="#F8D33A" d="M166 47.147l-8.575 4.951v34.488L166 81.635z"/><path fill="#FCEA9C" d="M126.812 24.515l-8.575 4.95 39.199 22.632 8.574-4.95z"/><defs><linearGradient id="paint0_linear_3647_92483" x1="34.853" y1="0" x2="34.853" y2="24.406" gradientUnits="userSpaceOnUse"><stop stop-color="#929AA5"/><stop offset="0" stop-color="#F2BF15"/><stop offset="1" stop-color="#D3D6DB" stop-opacity="0"/></linearGradient><linearGradient id="paint1_linear_3647_92483" x1="-24.666" y1="-59.483" x2="116.397" y2="-22.294" gradientUnits="userSpaceOnUse"><stop stop-color="#CACED3"/><stop offset="1" stop-color="#CACED3" stop-opacity="0"/></linearGradient><linearGradient id="paint2_linear_3647_92483" x1="20.899" y1="-21.475" x2="63.157" y2="65.402" gradientUnits="userSpaceOnUse"><stop stop-color="#D3D1CA" stop-opacity="0"/><stop offset="1" stop-color="#D3D0CA" stop-opacity=".33"/></linearGradient><linearGradient id="paint3_linear_3647_92483" x1="122.891" y1="124.164" x2="179.434" y2="174.8" gradientUnits="userSpaceOnUse"><stop stop-color="#F0B90B"/><stop offset="1" stop-color="#F8D33A"/></linearGradient><linearGradient id="paint4_linear_3647_92483" x1="180.483" y1="400.09" x2="116.167" y2="138.609" gradientUnits="userSpaceOnUse"><stop stop-color="#717882"/><stop offset="1" stop-color="#646E7D"/></linearGradient><linearGradient id="paint5_linear_3647_92483" x1="38.268" y1="0" x2="38.268" y2="97.452" gradientUnits="userSpaceOnUse"><stop stop-color="#fff" stop-opacity="0"/><stop offset="1" stop-color="#ECE9E1"/></linearGradient><linearGradient id="paint6_linear_3647_92483" x1="-6.992" y1="-1.918" x2="9.661" y2="-5.836" gradientUnits="userSpaceOnUse"><stop stop-color="#CFD7E2"/><stop offset="1" stop-color="#76808F" stop-opacity="0"/></linearGradient><clipPath id="clip0_3647_92483"><path fill="#fff" transform="matrix(.86603 .5 -.00008 -1.00004 126.002 69.778)" d="M0 0h26.777v26.776H0z"/></clipPath></defs></svg>