<svg width="541" height="440" viewBox="0 0 541 440" fill="none" xmlns="http://www.w3.org/2000/svg">
<path opacity="0.62" fill-rule="evenodd" clip-rule="evenodd" d="M417.766 207.992L257.494 115.466L107.698 201.943L172.254 239.211L145.306 254.769L259.653 320.781L372.854 255.43L354.224 244.675L417.766 207.992Z" fill="url(#paint0_linear_805_57506)" fill-opacity="0.1"/>
<rect width="109.446" height="109.429" transform="matrix(0.866044 0.499967 -0.866044 0.499967 263.227 138.415)" fill="url(#paint1_linear_805_57506)" fill-opacity="0.1"/>
<rect opacity="0.93" width="36.3099" height="109.468" transform="matrix(-4.37114e-08 1 -0.865988 -0.500065 263.255 247.868)" fill="url(#paint2_linear_805_57506)" fill-opacity="0.4"/>
<rect width="36.3099" height="109.468" transform="matrix(4.37114e-08 1 0.865988 -0.500065 263.238 247.84)" fill="url(#paint3_linear_805_57506)" fill-opacity="0.5"/>
<g opacity="0.5">
<path d="M263.937 214.954L263.461 215.228L196.545 176.954L196.523 184.731L263.407 222.984L263.937 222.679V214.954Z" fill="#AEB4BC"/>
<path d="M263.937 225.381L263.406 225.686L196.515 187.428L196.491 195.643L263.406 233.915L263.937 233.61V225.381Z" fill="#AEB4BC"/>
</g>
<path opacity="0.57" d="M263.937 222.679V214.954L329.944 176.954L329.887 195.643L263.937 233.61V225.381L329.887 187.414L329.887 184.71L263.937 222.679Z" fill="#5E6673"/>
<rect opacity="0.7" x="236.381" y="99.9272" width="55.1333" height="86.2042" fill="url(#paint4_linear_805_57506)"/>
<rect width="50.0543" height="49.0567" transform="matrix(0.866044 0.499967 -0.866044 0.499967 262.796 152.116)" fill="#5E6673"/>
<rect opacity="0.46" width="50.0543" height="49.0567" transform="matrix(0.866044 0.499967 -0.866044 0.499967 262.796 152.116)" fill="#474D57"/>
<path d="M263.937 201.612V152.823L306.362 177.217L263.937 201.612Z" fill="url(#paint5_linear_805_57506)"/>
<mask id="mask0_805_57506" style="mask-type:alpha" maskUnits="userSpaceOnUse" x="220" y="152" width="87" height="50">
<path d="M285.13 165.009L262.796 152.116L220.311 176.643L263.66 201.668L263.936 201.509V201.612L306.361 177.217L285.13 165.009Z" fill="#F8D33A"/>
</mask>
<g mask="url(#mask0_805_57506)">
<rect opacity="0.7" x="236.381" y="125.508" width="55.1333" height="76.1004" fill="url(#paint6_linear_805_57506)"/>
</g>
<path d="M290.87 81.2379V125.807L263.294 144.72L235.718 125.501V81.2379H290.87Z" fill="#FCEA9C"/>
<path d="M290.87 87.9165H235.718V132.922L263.294 152.141L290.87 133.228V87.9165Z" fill="#F8D33A"/>
<path fill-rule="evenodd" clip-rule="evenodd" d="M239.935 128.995L263.295 145.254L286.654 129.254V93.4309H239.935V128.995Z" fill="url(#paint7_linear_805_57506)"/>
<path d="M263.26 100.336C268.358 100.336 272.492 104.468 272.492 109.565C272.492 114.663 268.358 118.795 263.26 118.795C258.161 118.795 254.027 114.663 254.027 109.565C254.027 104.468 258.161 100.336 263.26 100.336Z" fill="white"/>
<path d="M268.859 122.798C273.261 122.798 277.069 125.335 278.899 129.025L263.309 139.7L247.711 128.847C249.574 125.254 253.33 122.798 257.661 122.798H268.859Z" fill="white"/>
<g opacity="0.65">
<rect width="42.4513" height="55.0155" transform="matrix(-4.36486e-08 1 -0.865676 -0.500605 405.95 158.988)" fill="url(#paint8_linear_805_57506)" fill-opacity="0.4"/>
<rect width="42.2717" height="54.2717" transform="matrix(4.36486e-08 1 0.865676 -0.500605 405.95 158.973)" fill="url(#paint9_linear_805_57506)" fill-opacity="0.5"/>
</g>
<rect width="54.961" height="54.4488" transform="matrix(0.866044 0.499967 -0.866044 0.499967 405.454 104.303)" fill="url(#paint10_linear_805_57506)" fill-opacity="0.1"/>
<rect opacity="0.76" width="40.6449" height="40.7799" rx="20.3224" transform="matrix(0.866044 0.499967 -0.866044 0.499967 405.285 114.051)" fill="#14151A"/>
<rect opacity="0.7" x="387.252" y="70.6279" width="36.3225" height="42.0809" fill="url(#paint11_linear_805_57506)"/>
<path opacity="0.45" fill-rule="evenodd" clip-rule="evenodd" d="M386.808 143.781V109.063C387.073 108.764 387.345 108.469 387.625 108.179C397.346 98.1388 413.164 98.0784 422.884 108.119C422.967 108.204 423.049 108.291 423.131 108.377V144.218C423.03 144.326 422.928 144.433 422.826 144.539C422.805 144.56 422.785 144.581 422.765 144.601H387.569C387.568 144.601 387.568 144.6 387.567 144.599C387.307 144.331 387.054 144.058 386.808 143.781Z" fill="url(#paint12_linear_805_57506)"/>
<path fill-rule="evenodd" clip-rule="evenodd" d="M418.142 107.114C410.988 102.983 399.388 102.983 392.233 107.114C391.109 107.763 390.161 108.476 389.39 109.232H386.873L386.873 114.341C386.866 114.509 386.866 114.676 386.873 114.843L386.873 115.039H386.884C387.07 117.595 388.853 120.119 392.233 122.071L392.674 122.325C399.828 126.455 411.428 126.455 418.582 122.325C422.075 120.309 423.862 117.681 423.945 115.039H423.949V109.232H421.159C420.439 108.57 419.58 107.944 418.582 107.368L418.142 107.114Z" fill="#F0B90B"/>
<rect width="30.0028" height="30.3449" rx="15.0014" transform="matrix(0.866044 0.499967 -0.866044 0.499967 405.559 94.2316)" fill="#F8D33A"/>
<rect width="23.9488" height="23.5488" rx="11.7744" transform="matrix(0.866044 0.499967 -0.866044 0.499967 405.061 97.6314)" fill="#F8D33A"/>
<g style="mix-blend-mode:soft-light">
<rect width="23.9488" height="23.5488" rx="11.7744" transform="matrix(0.866044 0.499967 -0.866044 0.499967 405.061 97.6314)" fill="url(#paint13_linear_805_57506)"/>
</g>
<rect width="10.336" height="10.1207" transform="matrix(0.866025 -0.5 -0.858939 -0.512077 404.804 115.087)" fill="#F0B90B"/>
<mask id="mask1_805_57506" style="mask-type:alpha" maskUnits="userSpaceOnUse" x="380" y="120" width="51" height="29">
<rect width="40.6449" height="40.7799" rx="20.3224" transform="matrix(0.866044 0.499967 -0.866044 0.499967 405.285 114.051)" fill="url(#paint14_linear_805_57506)"/>
</mask>
<g mask="url(#mask1_805_57506)">
<path fill-rule="evenodd" clip-rule="evenodd" d="M417.699 141.221C410.545 137.091 398.945 137.091 391.79 141.221C390.666 141.871 389.718 142.583 388.946 143.34H386.43L386.43 148.449C386.423 148.616 386.423 148.784 386.43 148.951L386.43 149.147H386.441C386.627 151.703 388.41 154.227 391.79 156.178L392.231 156.433C399.385 160.563 410.985 160.563 418.139 156.433C421.632 154.416 423.419 151.789 423.502 149.147H423.506V143.34H420.716C419.996 142.678 419.137 142.051 418.139 141.475L417.699 141.221Z" fill="#F0B90B"/>
<rect width="30.0028" height="30.3449" rx="15.0014" transform="matrix(0.866044 0.499967 -0.866044 0.499967 405.116 128.339)" fill="#F8D33A"/>
<rect width="23.9488" height="23.5488" rx="11.7744" transform="matrix(0.866044 0.499967 -0.866044 0.499967 404.618 131.739)" fill="#F8D33A"/>
<g style="mix-blend-mode:soft-light">
<rect width="23.9488" height="23.5488" rx="11.7744" transform="matrix(0.866044 0.499967 -0.866044 0.499967 404.618 131.739)" fill="url(#paint15_linear_805_57506)"/>
</g>
<rect width="10.336" height="10.1207" transform="matrix(0.866025 -0.5 -0.858939 -0.512077 404.361 149.194)" fill="#F0B90B"/>
</g>
<g style="mix-blend-mode:multiply" opacity="0.19">
<rect width="45.4699" height="18.4904" transform="matrix(0.866044 0.499967 -0.866044 0.499967 177.631 148.251)" fill="url(#paint16_linear_805_57506)"/>
</g>
<g style="mix-blend-mode:multiply" opacity="0.19">
<rect width="34.5183" height="18.7968" transform="matrix(0.866044 0.499967 -0.866044 0.499967 152.854 162.215)" fill="url(#paint17_linear_805_57506)"/>
</g>
<g style="mix-blend-mode:multiply" opacity="0.19">
<rect width="19.4668" height="18.7719" transform="matrix(0.866044 0.499967 -0.866044 0.499967 128.562 176.234)" fill="url(#paint18_linear_805_57506)"/>
</g>
<rect width="18.7618" height="19.0379" transform="matrix(0.866044 0.499967 -0.866044 0.499967 161.518 90.9682)" fill="#FCEA9C"/>
<rect opacity="0.76" width="47.6826" height="18.633" transform="matrix(-4.37114e-08 1 -0.865988 -0.500065 161.272 109.833)" fill="#F8D33A"/>
<rect width="47.8597" height="18.9063" transform="matrix(4.37114e-08 1 0.865988 -0.500065 161.272 109.81)" fill="#F0B90B"/>
<g style="mix-blend-mode:multiply" opacity="0.76">
<path d="M161.271 157.516L161.271 109.834L145.135 100.516L145.135 133.078L152.931 128.576L152.931 152.7L161.271 157.516Z" fill="#F8D33A"/>
</g>
<rect opacity="0.19" width="18.7591" height="18.7147" transform="matrix(0.866044 0.499967 -0.866044 0.499967 161.324 138.85)" fill="#FCEA9C"/>
<rect width="18.7618" height="19.0379" transform="matrix(0.866044 0.499967 -0.866044 0.499967 136.674 119.236)" fill="#A9EDEB"/>
<rect opacity="0.72" width="33.4635" height="18.633" transform="matrix(-4.37114e-08 1 -0.865988 -0.500065 136.428 138.11)" fill="#76DFE5"/>
<rect opacity="0.48" width="33.4635" height="18.633" transform="matrix(-4.37114e-08 1 -0.865988 -0.500065 136.428 138.11)" fill="url(#paint19_linear_805_57506)"/>
<rect width="33.6226" height="19.0562" transform="matrix(4.37114e-08 1 0.865988 -0.500065 136.428 138.106)" fill="#25C7D6"/>
<rect opacity="0.76" width="33.6226" height="19.0562" transform="matrix(4.37114e-08 1 0.865988 -0.500065 136.428 138.106)" fill="url(#paint20_linear_805_57506)"/>
<rect opacity="0.2" width="18.7591" height="18.7147" transform="matrix(0.866044 0.499967 -0.866044 0.499967 136.48 152.909)" fill="#AFEEEC"/>
<rect width="18.7494" height="18.7494" transform="matrix(0.866044 0.499967 -0.866044 0.499967 112.486 153.678)" fill="#929AA5"/>
<rect width="13.4163" height="18.7494" transform="matrix(-4.37114e-08 1 -0.865988 -0.500065 112.484 172.388)" fill="url(#paint21_linear_805_57506)" fill-opacity="0.5"/>
<rect width="13.4012" height="18.7494" transform="matrix(4.37114e-08 1 0.865988 -0.500065 112.464 172.417)" fill="#5E6673"/>
<rect width="6.59768" height="54.6115" transform="matrix(4.37114e-08 1 0.865988 -0.500065 125.65 266.455)" fill="url(#paint22_linear_805_57506)" fill-opacity="0.5"/>
<g clip-path="url(#clip0_805_57506)">
<rect width="106.983" height="54.4363" transform="matrix(0.866044 0.499967 -0.866044 0.499967 80.1443 185.801)" fill="#D6DBE2" fill-opacity="0.1"/>
<path d="M84.7363 212.645C81.4888 210.771 81.489 207.731 84.7364 205.856C87.9839 203.981 93.2492 203.981 96.4969 205.856C99.7443 207.731 99.7442 210.771 96.4967 212.646C93.2492 214.52 87.9839 214.52 84.7363 212.645Z" fill="url(#paint23_linear_805_57506)" fill-opacity="0.1"/>
<g opacity="0.58">
<rect width="15.3069" height="3.79029" transform="matrix(0.866044 0.499967 -0.866044 0.499967 120.174 220.473)" fill="#929AA5"/>
<rect width="3.79105" height="3.79105" transform="matrix(0.866044 0.499967 -0.866044 0.499967 112.094 225.138)" fill="#929AA5"/>
<rect width="15.6015" height="3.79105" transform="matrix(0.866044 0.499967 -0.866044 0.499967 118.004 228.549)" fill="#929AA5"/>
<rect width="3.79105" height="3.79105" transform="matrix(0.866044 0.499967 0.866044 -0.499967 130.859 239.761)" fill="#929AA5"/>
<rect width="3.79105" height="3.79105" transform="matrix(0.866044 0.499967 -0.866044 0.499967 104.013 229.803)" fill="#929AA5"/>
<rect width="21.9881" height="3.79105" transform="matrix(0.866044 0.499967 -0.866044 0.499967 111.236 233.973)" fill="#929AA5"/>
<rect width="3.79105" height="3.79105" transform="matrix(0.866044 0.499967 -0.866044 0.499967 95.9322 234.468)" fill="#929AA5"/>
<rect width="23.5045" height="3.79105" transform="matrix(0.866044 0.499967 -0.866044 0.499967 101.842 237.879)" fill="#929AA5"/>
<rect width="3.79105" height="3.79105" transform="matrix(0.866044 0.499967 0.866044 -0.499967 121.541 253.043)" fill="#929AA5"/>
</g>
<path opacity="0.58" d="M65.4919 218.818L65.5289 218.796L57.5107 214.167L65.5809 209.508C68.2095 207.991 72.5841 208.056 75.3519 209.654L89.3843 217.755C92.1522 219.353 92.2651 221.878 89.6365 223.396L81.5663 228.055L74.0823 223.734L74.0453 223.756L65.4919 218.818Z" fill="#929AA5"/>
<path d="M84.7364 212.645C81.4889 210.771 81.4891 207.731 84.7365 205.856C87.984 203.981 93.2493 203.981 96.4969 205.856C99.7444 207.731 99.7443 210.771 96.4968 212.646C93.2493 214.52 87.984 214.52 84.7364 212.645Z" fill="#F0B90B"/>
</g>
<rect opacity="0.93" width="6.77404" height="106.988" transform="matrix(-4.37114e-08 1 -0.865988 -0.500065 125.65 266.327)" fill="#C0C6CF" fill-opacity="0.4"/>
<rect width="6.59768" height="54.6115" transform="matrix(4.37114e-08 1 0.865988 -0.500065 168.797 354.522)" fill="url(#paint24_linear_805_57506)" fill-opacity="0.5"/>
<g clip-path="url(#clip1_805_57506)">
<rect width="106.983" height="54.4363" transform="matrix(0.866044 0.499967 -0.866044 0.499967 123.291 273.868)" fill="#D6DBE2" fill-opacity="0.1"/>
<path d="M127.883 300.713C124.635 298.838 124.635 295.798 127.883 293.923C131.13 292.049 136.396 292.048 139.643 293.923C142.891 295.798 142.891 298.838 139.643 300.713C136.396 302.588 131.13 302.588 127.883 300.713Z" fill="url(#paint25_linear_805_57506)" fill-opacity="0.1"/>
<g opacity="0.58">
<rect width="15.3069" height="3.79029" transform="matrix(0.866044 0.499967 -0.866044 0.499967 163.32 308.54)" fill="#929AA5"/>
<rect width="3.79105" height="3.79105" transform="matrix(0.866044 0.499967 -0.866044 0.499967 155.24 313.205)" fill="#929AA5"/>
<rect width="15.6015" height="3.79105" transform="matrix(0.866044 0.499967 -0.866044 0.499967 161.15 316.616)" fill="#929AA5"/>
<rect width="3.79105" height="3.79105" transform="matrix(0.866044 0.499967 0.866044 -0.499967 174.005 327.828)" fill="#929AA5"/>
<rect width="3.79105" height="3.79105" transform="matrix(0.866044 0.499967 -0.866044 0.499967 147.159 317.87)" fill="#929AA5"/>
<rect width="21.9881" height="3.79105" transform="matrix(0.866044 0.499967 -0.866044 0.499967 154.382 322.04)" fill="#929AA5"/>
<rect width="3.79105" height="3.79105" transform="matrix(0.866044 0.499967 -0.866044 0.499967 139.079 322.535)" fill="#929AA5"/>
<rect width="23.5045" height="3.79105" transform="matrix(0.866044 0.499967 -0.866044 0.499967 144.988 325.947)" fill="#929AA5"/>
<rect width="3.79105" height="3.79105" transform="matrix(0.866044 0.499967 0.866044 -0.499967 164.688 341.11)" fill="#929AA5"/>
</g>
<path opacity="0.58" d="M108.638 306.885L108.675 306.864L100.657 302.235L108.727 297.576C111.356 296.058 115.73 296.123 118.498 297.721L132.531 305.822C135.299 307.42 135.411 309.946 132.783 311.463L124.713 316.122L117.229 311.801L117.192 311.823L108.638 306.885Z" fill="#929AA5"/>
<path d="M127.883 300.713C124.635 298.838 124.635 295.798 127.883 293.923C131.13 292.049 136.396 292.048 139.643 293.923C142.891 295.798 142.891 298.838 139.643 300.713C136.396 302.588 131.13 302.587 127.883 300.713Z" fill="#F0B90B"/>
</g>
<rect opacity="0.93" width="6.77404" height="106.988" transform="matrix(-4.37114e-08 1 -0.865988 -0.500065 168.797 354.394)" fill="#C0C6CF" fill-opacity="0.4"/>
<path d="M437.481 196.399L484.187 223.363L401.136 271.308L354.43 244.345L437.481 196.399Z" fill="#D6DBE2" fill-opacity="0.1"/>
<rect width="6.41781" height="53.1226" transform="matrix(-4.37114e-08 1 -0.865988 -0.500065 400.635 271.376)" fill="#C0C6CF" fill-opacity="0.4"/>
<g clip-path="url(#clip2_805_57506)">
<g opacity="0.48">
<rect width="15.1498" height="3.75137" transform="matrix(0.866044 -0.499967 0.866044 0.499967 409.266 224.065)" fill="#929AA5"/>
<rect width="3.75213" height="3.75213" transform="matrix(0.866044 -0.499967 0.866044 0.499967 417.263 228.682)" fill="#929AA5"/>
<rect width="15.4413" height="3.75213" transform="matrix(0.866044 -0.499967 0.866044 0.499967 423.112 225.305)" fill="#929AA5"/>
<rect width="3.75213" height="3.75213" transform="matrix(0.866044 -0.499967 -0.866044 -0.499967 442.334 217.96)" fill="#929AA5"/>
<rect width="3.75213" height="3.75213" transform="matrix(0.866044 -0.499967 0.866044 0.499967 425.261 233.299)" fill="#929AA5"/>
<rect width="21.7623" height="3.75213" transform="matrix(0.866044 -0.499967 0.866044 0.499967 432.41 229.172)" fill="#929AA5"/>
<rect width="3.75213" height="3.75213" transform="matrix(0.866044 -0.499967 0.866044 0.499967 433.259 237.916)" fill="#929AA5"/>
<rect width="23.2632" height="3.75213" transform="matrix(0.866044 -0.499967 0.866044 0.499967 439.108 234.539)" fill="#929AA5"/>
<rect width="3.75213" height="3.75213" transform="matrix(0.866044 -0.499967 -0.866044 -0.499967 465.104 223.284)" fill="#929AA5"/>
</g>
<g opacity="0.48">
<path d="M395.846 244.313C392.632 246.169 387.421 246.169 384.207 244.313C380.992 242.458 380.992 239.449 384.207 237.593C387.421 235.738 392.632 235.738 395.847 237.594C399.061 239.449 399.061 242.458 395.846 244.313Z" fill="#929AA5"/>
<path d="M406.428 255.309L406.391 255.288L398.455 259.869L390.468 255.258C387.867 253.756 387.978 251.257 390.718 249.675L404.606 241.657C407.345 240.076 411.675 240.011 414.277 241.513L422.264 246.124L414.857 250.4L414.894 250.422L406.428 255.309Z" fill="#929AA5"/>
</g>
<path d="M395.846 244.313C392.632 246.169 387.421 246.168 384.206 244.313C380.992 242.457 380.992 239.449 384.206 237.593C387.421 235.738 392.632 235.738 395.846 237.593C399.061 239.449 399.06 242.457 395.846 244.313Z" fill="#F0B90B"/>
</g>
<rect opacity="0.93" width="6.58936" height="96.6143" transform="matrix(4.37114e-08 1 0.865988 -0.500065 400.661 271.321)" fill="url(#paint26_linear_805_57506)" fill-opacity="0.5"/>
<rect width="6.41781" height="53.1226" transform="matrix(-4.37114e-08 1 -0.865988 -0.500065 368.697 355.265)" fill="#C0C6CF" fill-opacity="0.4"/>
<g clip-path="url(#clip3_805_57506)">
<path d="M405.897 280.174L455.29 308.688L371.453 357.088L322.06 328.573L405.897 280.174Z" fill="#D6DBE2" fill-opacity="0.1"/>
<g opacity="0.48">
<rect width="15.1498" height="3.75137" transform="matrix(0.866044 -0.499967 0.866044 0.499967 377.328 307.953)" fill="#929AA5"/>
<rect width="3.75213" height="3.75213" transform="matrix(0.866044 -0.499967 0.866044 0.499967 385.326 312.57)" fill="#929AA5"/>
<rect width="15.4413" height="3.75213" transform="matrix(0.866044 -0.499967 0.866044 0.499967 391.175 309.193)" fill="#929AA5"/>
<rect width="3.75213" height="3.75213" transform="matrix(0.866044 -0.499967 -0.866044 -0.499967 410.397 301.848)" fill="#929AA5"/>
<rect width="3.75213" height="3.75213" transform="matrix(0.866044 -0.499967 0.866044 0.499967 393.323 317.187)" fill="#929AA5"/>
<rect width="21.7623" height="3.75213" transform="matrix(0.866044 -0.499967 0.866044 0.499967 400.472 313.06)" fill="#929AA5"/>
<rect width="3.75213" height="3.75213" transform="matrix(0.866044 -0.499967 0.866044 0.499967 401.321 321.804)" fill="#929AA5"/>
<rect width="23.2632" height="3.75213" transform="matrix(0.866044 -0.499967 0.866044 0.499967 407.17 318.428)" fill="#929AA5"/>
<rect width="3.75213" height="3.75213" transform="matrix(0.866044 -0.499967 -0.866044 -0.499967 433.166 307.172)" fill="#929AA5"/>
</g>
<g opacity="0.48">
<path d="M363.909 328.201C360.695 330.057 355.483 330.057 352.269 328.201C349.055 326.346 349.055 323.337 352.269 321.482C355.484 319.626 360.695 319.626 363.909 321.482C367.123 323.337 367.123 326.346 363.909 328.201Z" fill="#929AA5"/>
<path d="M374.491 339.197L374.454 339.176L366.518 343.757L358.531 339.146C355.929 337.644 356.041 335.145 358.78 333.563L372.669 325.546C375.408 323.964 379.738 323.9 382.339 325.402L390.327 330.013L382.92 334.289L382.956 334.31L374.491 339.197Z" fill="#929AA5"/>
</g>
<path d="M363.909 328.201C360.695 330.057 355.483 330.057 352.269 328.201C349.055 326.346 349.055 323.337 352.269 321.482C355.483 319.626 360.695 319.626 363.909 321.482C367.123 323.337 367.123 326.346 363.909 328.201Z" fill="#F0B90B"/>
</g>
<rect opacity="0.93" width="6.58936" height="96.6143" transform="matrix(4.37114e-08 1 0.865988 -0.500065 368.724 355.21)" fill="url(#paint27_linear_805_57506)" fill-opacity="0.5"/>
<rect opacity="0.33" width="19.4995" height="19.7786" transform="matrix(0.862681 0.505749 -0.862681 0.505749 260.175 302.251)" fill="#E6E8EA"/>
<rect opacity="0.23" width="15.9365" height="19.5145" transform="matrix(-4.30439e-08 1 -0.862623 -0.505847 259.919 322.111)" fill="#AEB4BC"/>
<rect opacity="0.21" width="16.1568" height="19.6139" transform="matrix(-4.30439e-08 1 -0.862623 -0.505847 277 312.123)" fill="#CACED3"/>
<rect opacity="0.4" width="16.069" height="19.8007" transform="matrix(4.30439e-08 1 0.862623 -0.505847 259.919 322.124)" fill="#929AA5"/>
<g style="mix-blend-mode:screen" opacity="0.62">
<rect width="19.6466" height="19.6" transform="matrix(0.862681 0.505749 -0.862681 0.505749 259.972 318.234)" fill="url(#paint28_linear_805_57506)"/>
</g>
<rect opacity="0.33" width="22.8919" height="23.2195" transform="matrix(0.864518 0.502602 -0.864518 0.502602 51.2058 102.259)" fill="#E6E8EA"/>
<rect opacity="0.23" width="18.5926" height="22.9094" transform="matrix(-4.34056e-08 1 -0.864461 -0.502701 50.9052 125.43)" fill="#AEB4BC"/>
<rect opacity="0.21" width="18.8496" height="23.0262" transform="matrix(-4.34056e-08 1 -0.864461 -0.502701 71 113.777)" fill="#CACED3"/>
<rect opacity="0.4" width="18.7471" height="23.2455" transform="matrix(4.34056e-08 1 0.864461 -0.5027 50.9052 125.445)" fill="#929AA5"/>
<g style="mix-blend-mode:screen" opacity="0.62">
<rect width="23.0645" height="23.0099" transform="matrix(0.864518 0.502602 -0.864518 0.502602 50.9675 120.907)" fill="url(#paint29_linear_805_57506)"/>
</g>
<rect opacity="0.33" width="22.8919" height="23.2195" transform="matrix(0.864518 0.502602 -0.864518 0.502602 492.206 264.259)" fill="#E6E8EA"/>
<rect opacity="0.23" width="18.5926" height="22.9094" transform="matrix(-4.34056e-08 1 -0.864461 -0.502701 491.905 287.43)" fill="#AEB4BC"/>
<rect opacity="0.21" width="18.8496" height="23.0262" transform="matrix(-4.34056e-08 1 -0.864461 -0.502701 512 275.777)" fill="#CACED3"/>
<rect opacity="0.4" width="18.7471" height="23.2455" transform="matrix(4.34056e-08 1 0.864461 -0.5027 491.905 287.445)" fill="#929AA5"/>
<g style="mix-blend-mode:screen" opacity="0.62">
<rect width="23.0645" height="23.0099" transform="matrix(0.864518 0.502602 -0.864518 0.502602 491.968 282.907)" fill="url(#paint30_linear_805_57506)"/>
</g>
<rect opacity="0.33" width="15.0417" height="15.257" transform="matrix(0.863031 0.505151 -0.863031 0.505151 489.254 101.239)" fill="#E6E8EA"/>
<rect opacity="0.23" width="12.2787" height="15.0532" transform="matrix(-4.31123e-08 1 -0.862973 -0.505249 489.057 116.541)" fill="#AEB4BC"/>
<rect opacity="0.21" width="12.4484" height="15.1299" transform="matrix(-4.31123e-08 1 -0.862973 -0.505249 502.238 108.845)" fill="#CACED3"/>
<rect opacity="0.4" width="12.3807" height="15.274" transform="matrix(4.31123e-08 1 0.862973 -0.505249 489.057 116.55)" fill="#929AA5"/>
<g style="mix-blend-mode:screen" opacity="0.62">
<rect width="15.1551" height="15.1192" transform="matrix(0.863031 0.505151 -0.863031 0.505151 489.098 113.554)" fill="url(#paint31_linear_805_57506)"/>
</g>
<rect opacity="0.33" width="15.0417" height="15.257" transform="matrix(0.863031 0.505151 -0.863031 0.505151 33.254 317.239)" fill="#E6E8EA"/>
<rect opacity="0.23" width="12.2787" height="15.0532" transform="matrix(-4.31123e-08 1 -0.862973 -0.505249 33.0568 332.541)" fill="#AEB4BC"/>
<rect opacity="0.21" width="12.4484" height="15.1299" transform="matrix(-4.31123e-08 1 -0.862973 -0.505249 46.2379 324.845)" fill="#CACED3"/>
<rect opacity="0.4" width="12.3807" height="15.274" transform="matrix(4.31123e-08 1 0.862973 -0.505249 33.0568 332.55)" fill="#929AA5"/>
<g style="mix-blend-mode:screen" opacity="0.62">
<rect width="15.1551" height="15.1192" transform="matrix(0.863031 0.505151 -0.863031 0.505151 33.0977 329.554)" fill="url(#paint32_linear_805_57506)"/>
</g>
<defs>
<linearGradient id="paint0_linear_805_57506" x1="262.732" y1="115.466" x2="262.732" y2="320.781" gradientUnits="userSpaceOnUse">
<stop stop-color="#76808F"/>
<stop offset="1" stop-color="#9DA3AC" stop-opacity="0.96"/>
</linearGradient>
<linearGradient id="paint1_linear_805_57506" x1="54.7232" y1="0" x2="54.7232" y2="109.429" gradientUnits="userSpaceOnUse">
<stop stop-color="#76808F"/>
<stop offset="1" stop-color="#9DA3AC" stop-opacity="0.96"/>
</linearGradient>
<linearGradient id="paint2_linear_805_57506" x1="18.155" y1="0" x2="18.155" y2="109.468" gradientUnits="userSpaceOnUse">
<stop stop-color="#848FA2" stop-opacity="0.54"/>
<stop offset="1" stop-color="#747981" stop-opacity="0.66"/>
</linearGradient>
<linearGradient id="paint3_linear_805_57506" x1="18.155" y1="0" x2="18.155" y2="109.468" gradientUnits="userSpaceOnUse">
<stop stop-color="#5E6673"/>
<stop offset="1" stop-color="#5E6673" stop-opacity="0.8"/>
</linearGradient>
<linearGradient id="paint4_linear_805_57506" x1="261.93" y1="181" x2="266.62" y2="100.082" gradientUnits="userSpaceOnUse">
<stop stop-color="#FFD43E"/>
<stop offset="1" stop-color="#FFE887" stop-opacity="0"/>
</linearGradient>
<linearGradient id="paint5_linear_805_57506" x1="268.244" y1="158.766" x2="268.246" y2="196.252" gradientUnits="userSpaceOnUse">
<stop stop-color="white" stop-opacity="0"/>
<stop offset="1" stop-color="#FFD838"/>
</linearGradient>
<linearGradient id="paint6_linear_805_57506" x1="261.93" y1="197.079" x2="265.588" y2="125.592" gradientUnits="userSpaceOnUse">
<stop stop-color="#FFD43E"/>
<stop offset="1" stop-color="#FFE887" stop-opacity="0"/>
</linearGradient>
<linearGradient id="paint7_linear_805_57506" x1="263.295" y1="93.4309" x2="263.295" y2="145.254" gradientUnits="userSpaceOnUse">
<stop stop-color="#F0B90B"/>
<stop offset="1" stop-color="#F8D33A"/>
</linearGradient>
<linearGradient id="paint8_linear_805_57506" x1="21.2256" y1="0" x2="21.2256" y2="55.0155" gradientUnits="userSpaceOnUse">
<stop stop-color="#848FA2" stop-opacity="0.54"/>
<stop offset="1" stop-color="#747981" stop-opacity="0.66"/>
</linearGradient>
<linearGradient id="paint9_linear_805_57506" x1="21.1358" y1="0" x2="21.1358" y2="54.2717" gradientUnits="userSpaceOnUse">
<stop stop-color="#5E6673"/>
<stop offset="1" stop-color="#5E6673" stop-opacity="0.8"/>
</linearGradient>
<linearGradient id="paint10_linear_805_57506" x1="27.4805" y1="0" x2="27.4805" y2="54.4488" gradientUnits="userSpaceOnUse">
<stop stop-color="#76808F"/>
<stop offset="1" stop-color="#9DA3AC" stop-opacity="0.96"/>
</linearGradient>
<linearGradient id="paint11_linear_805_57506" x1="404.084" y1="110.204" x2="405.783" y2="70.6438" gradientUnits="userSpaceOnUse">
<stop stop-color="#FFD43E"/>
<stop offset="1" stop-color="#FFE887" stop-opacity="0"/>
</linearGradient>
<linearGradient id="paint12_linear_805_57506" x1="405.37" y1="100.619" x2="405.37" y2="144.63" gradientUnits="userSpaceOnUse">
<stop stop-color="#484E58"/>
<stop offset="1" stop-color="#F8D33A"/>
</linearGradient>
<linearGradient id="paint13_linear_805_57506" x1="11.9744" y1="0" x2="11.9744" y2="23.5488" gradientUnits="userSpaceOnUse">
<stop/>
<stop offset="0.669271" stop-color="#454545" stop-opacity="0.45"/>
<stop offset="1" stop-color="#D1D1D1" stop-opacity="0.29"/>
</linearGradient>
<linearGradient id="paint14_linear_805_57506" x1="20.3224" y1="0" x2="20.3224" y2="40.7799" gradientUnits="userSpaceOnUse">
<stop stop-color="#FFD43E"/>
<stop offset="1" stop-color="#FFE887"/>
</linearGradient>
<linearGradient id="paint15_linear_805_57506" x1="11.9744" y1="0" x2="11.9744" y2="23.5488" gradientUnits="userSpaceOnUse">
<stop/>
<stop offset="0.669271" stop-color="#454545" stop-opacity="0.45"/>
<stop offset="1" stop-color="#D1D1D1" stop-opacity="0.29"/>
</linearGradient>
<linearGradient id="paint16_linear_805_57506" x1="3.89979" y1="10.1537" x2="45.2242" y2="6.89944" gradientUnits="userSpaceOnUse">
<stop stop-color="#F0B90B"/>
<stop offset="1" stop-color="white" stop-opacity="0"/>
</linearGradient>
<linearGradient id="paint17_linear_805_57506" x1="2.96051" y1="10.322" x2="34.4176" y2="8.47205" gradientUnits="userSpaceOnUse">
<stop stop-color="#F0B90B"/>
<stop offset="1" stop-color="white" stop-opacity="0"/>
</linearGradient>
<linearGradient id="paint18_linear_805_57506" x1="1.6696" y1="10.3083" x2="19.4517" y2="9.71777" gradientUnits="userSpaceOnUse">
<stop stop-color="#F0B90B"/>
<stop offset="1" stop-color="white" stop-opacity="0"/>
</linearGradient>
<linearGradient id="paint19_linear_805_57506" x1="-2.55408" y1="5.71394" x2="14.2842" y2="-9.30465" gradientUnits="userSpaceOnUse">
<stop stop-color="#76DFE5"/>
<stop offset="1" stop-color="#76DFE5" stop-opacity="0"/>
</linearGradient>
<linearGradient id="paint20_linear_805_57506" x1="-1.20696" y1="6.00993" x2="20.3567" y2="-13.7831" gradientUnits="userSpaceOnUse">
<stop stop-color="#0588A2"/>
<stop offset="1" stop-color="#0588A2" stop-opacity="0"/>
</linearGradient>
<linearGradient id="paint21_linear_805_57506" x1="6.70813" y1="0" x2="6.70813" y2="18.7494" gradientUnits="userSpaceOnUse">
<stop stop-color="#5E6673"/>
<stop offset="1" stop-color="#5E6673" stop-opacity="0.8"/>
</linearGradient>
<linearGradient id="paint22_linear_805_57506" x1="3.29884" y1="0" x2="3.29884" y2="54.6115" gradientUnits="userSpaceOnUse">
<stop stop-color="#5E6673"/>
<stop offset="1" stop-color="#5E6673" stop-opacity="0.8"/>
</linearGradient>
<linearGradient id="paint23_linear_805_57506" x1="96.4969" y1="205.856" x2="90.6174" y2="216.041" gradientUnits="userSpaceOnUse">
<stop stop-color="#76808F"/>
<stop offset="1" stop-color="#9DA3AC" stop-opacity="0.96"/>
</linearGradient>
<linearGradient id="paint24_linear_805_57506" x1="3.29884" y1="0" x2="3.29884" y2="54.6115" gradientUnits="userSpaceOnUse">
<stop stop-color="#5E6673"/>
<stop offset="1" stop-color="#5E6673" stop-opacity="0.8"/>
</linearGradient>
<linearGradient id="paint25_linear_805_57506" x1="139.643" y1="293.923" x2="133.764" y2="304.108" gradientUnits="userSpaceOnUse">
<stop stop-color="#76808F"/>
<stop offset="1" stop-color="#9DA3AC" stop-opacity="0.96"/>
</linearGradient>
<linearGradient id="paint26_linear_805_57506" x1="3.29468" y1="0" x2="3.29468" y2="96.6143" gradientUnits="userSpaceOnUse">
<stop stop-color="#5E6673"/>
<stop offset="1" stop-color="#5E6673" stop-opacity="0.8"/>
</linearGradient>
<linearGradient id="paint27_linear_805_57506" x1="3.29468" y1="0" x2="3.29468" y2="96.6143" gradientUnits="userSpaceOnUse">
<stop stop-color="#5E6673"/>
<stop offset="1" stop-color="#5E6673" stop-opacity="0.8"/>
</linearGradient>
<linearGradient id="paint28_linear_805_57506" x1="-12.4406" y1="-3.41346" x2="17.1903" y2="-10.3842" gradientUnits="userSpaceOnUse">
<stop stop-color="#CFD7E2"/>
<stop offset="1" stop-color="#76808F" stop-opacity="0"/>
</linearGradient>
<linearGradient id="paint29_linear_805_57506" x1="-14.6049" y1="-4.0073" x2="20.1809" y2="-12.1908" gradientUnits="userSpaceOnUse">
<stop stop-color="#CFD7E2"/>
<stop offset="1" stop-color="#76808F" stop-opacity="0"/>
</linearGradient>
<linearGradient id="paint30_linear_805_57506" x1="-14.6049" y1="-4.0073" x2="20.1809" y2="-12.1908" gradientUnits="userSpaceOnUse">
<stop stop-color="#CFD7E2"/>
<stop offset="1" stop-color="#76808F" stop-opacity="0"/>
</linearGradient>
<linearGradient id="paint31_linear_805_57506" x1="-9.59652" y1="-2.6331" x2="13.2604" y2="-8.01025" gradientUnits="userSpaceOnUse">
<stop stop-color="#CFD7E2"/>
<stop offset="1" stop-color="#76808F" stop-opacity="0"/>
</linearGradient>
<linearGradient id="paint32_linear_805_57506" x1="-9.59652" y1="-2.6331" x2="13.2604" y2="-8.01025" gradientUnits="userSpaceOnUse">
<stop stop-color="#CFD7E2"/>
<stop offset="1" stop-color="#76808F" stop-opacity="0"/>
</linearGradient>
<clipPath id="clip0_805_57506">
<rect width="106.983" height="54.4363" fill="white" transform="matrix(0.866044 0.499967 -0.866044 0.499967 80.1443 185.801)"/>
</clipPath>
<clipPath id="clip1_805_57506">
<rect width="106.983" height="54.4363" fill="white" transform="matrix(0.866044 0.499967 -0.866044 0.499967 123.291 273.868)"/>
</clipPath>
<clipPath id="clip2_805_57506">
<rect width="96.8142" height="53.5292" fill="white" transform="matrix(-0.866044 0.499967 0.866044 0.499967 437.99 196.23)"/>
</clipPath>
<clipPath id="clip3_805_57506">
<rect width="96.8142" height="53.5292" fill="white" transform="matrix(-0.866044 0.499967 0.866044 0.499967 406.053 280.118)"/>
</clipPath>
</defs>
</svg>
