<svg width="65" height="64" fill="none" xmlns="http://www.w3.org/2000/svg"><path d="M24.5 2.667h16v16h-16v-16z" fill="url(#paint0_linear_4126_3030)"/><path d="M61.834 24v16h-16V24h16z" fill="url(#paint1_linear_4126_3030)"/><path d="M31.232 36.295l-.005.005-4.06-4.13 1.698-1.727 2.367 2.407 5.424-5.517 1.698 1.727-7.118 7.24-.005-.005z" fill="url(#paint2_linear_4126_3030)"/><path d="M24.5 45.333h16v16h-16v-16z" fill="url(#paint3_linear_4126_3030)"/><path d="M19.166 24v16h-16V24h16z" fill="url(#paint4_linear_4126_3030)"/><path fill-rule="evenodd" clip-rule="evenodd" d="M24.5 18.667v-16h16v16h-6.667V24H40.5v6.667h5.333V24h16v16h-16v-6.667H40.5V40h-6.667v5.333H40.5v16h-16v-16h6.666V40H24.5v-6.667h-5.334V40h-16V24h16v6.667H24.5V24h6.666v-5.333H24.5zm2.666-13.334h10.667V16H27.167V5.333zm32 32V26.667H48.5v10.666h10.666zM27.166 48h10.667v10.667H27.167V48zM16.5 37.333V26.667H5.833v10.666H16.5z" fill="url(#paint5_linear_4126_3030)"/><path d="M31.231 36.295l-.005.005-4.06-4.13 1.699-1.727 2.366 2.407 5.424-5.517 1.698 1.727-7.117 7.24-.005-.005z" fill="url(#paint6_linear_4126_3030)"/><path opacity=".3" d="M51.535 57.077h2.667V54.41h-2.667v2.667zm2.667-47.334l2 2 2-2-2-2-2 2zm-50-4.666l2.666 2.666 2.666-2.666L6.868 2.41 4.202 5.077z" fill="#AEB4BC"/><defs><linearGradient id="paint0_linear_4126_3030" x1="32.5" y1="2.667" x2="32.5" y2="18.667" gradientUnits="userSpaceOnUse"><stop stop-color="#929AA5"/><stop offset="1" stop-color="#76808F"/></linearGradient><linearGradient id="paint1_linear_4126_3030" x1="61.834" y1="32" x2="27.167" y2="32" gradientUnits="userSpaceOnUse"><stop stop-color="#929AA5"/><stop offset="1" stop-color="#76808F"/></linearGradient><linearGradient id="paint2_linear_4126_3030" x1="61.834" y1="32" x2="27.167" y2="32" gradientUnits="userSpaceOnUse"><stop stop-color="#929AA5"/><stop offset="1" stop-color="#76808F"/></linearGradient><linearGradient id="paint3_linear_4126_3030" x1="32.5" y1="45.333" x2="32.5" y2="61.333" gradientUnits="userSpaceOnUse"><stop stop-color="#929AA5"/><stop offset="1" stop-color="#76808F"/></linearGradient><linearGradient id="paint4_linear_4126_3030" x1="19.166" y1="32" x2="3.167" y2="32" gradientUnits="userSpaceOnUse"><stop stop-color="#929AA5"/><stop offset="1" stop-color="#76808F"/></linearGradient><linearGradient id="paint5_linear_4126_3030" x1="32.5" y1="2.667" x2="32.5" y2="61.333" gradientUnits="userSpaceOnUse"><stop stop-color="#F0B90B"/><stop offset="1" stop-color="#F8D33A"/></linearGradient><linearGradient id="paint6_linear_4126_3030" x1="32.76" y1="27.333" x2="32.76" y2="36.3" gradientUnits="userSpaceOnUse"><stop stop-color="#929AA5"/><stop offset="1" stop-color="#76808F"/></linearGradient></defs></svg>