<svg width="464" height="261" viewBox="0 0 464 261" fill="none" xmlns="http://www.w3.org/2000/svg">
<g clip-path="url(#clip0_833_65857)">
<rect opacity="0.15" width="180.135" height="120.597" transform="matrix(-0.866025 -0.5 0.866063 -0.499935 123.222 294.898)" fill="url(#paint0_linear_833_65857)"/>
<g clip-path="url(#clip1_833_65857)">
<rect width="39.2557" height="41.1869" transform="matrix(-0.866044 -0.499967 0.866044 -0.499967 370.199 204.86)" fill="#CACED3" fill-opacity="0.12"/>
<path opacity="0.69" d="M386.734 189.698L386.701 189.679L393.867 185.542L386.654 181.378C384.305 180.021 380.395 180.08 377.921 181.508L365.379 188.748C362.905 190.177 362.804 192.434 365.154 193.79L372.367 197.954L379.056 194.093L379.089 194.112L386.734 189.698Z" fill="#929AA5"/>
<path opacity="0.81" d="M369.533 184.181C372.436 182.506 372.436 179.789 369.533 178.113C366.63 176.437 361.924 176.437 359.022 178.113C356.119 179.789 356.119 182.506 359.022 184.181C361.924 185.857 366.63 185.857 369.533 184.181Z" fill="#F0B90B"/>
</g>
<rect opacity="0.84" width="2.51928" height="41.0455" transform="matrix(-2.58096e-08 -1 -0.865988 0.500065 405.838 186.804)" fill="#C0C6CF" fill-opacity="0.4"/>
<rect opacity="0.28" width="2.45218" height="39.6459" transform="matrix(2.58096e-08 -1 0.865988 0.500065 336.114 187.531)" fill="#474D57"/>
<g clip-path="url(#clip2_833_65857)">
<rect width="39.2557" height="41.1869" transform="matrix(-0.866044 -0.499967 0.866044 -0.499967 318.248 234.882)" fill="#CACED3" fill-opacity="0.12"/>
<path opacity="0.69" d="M334.782 219.72L334.749 219.701L341.916 215.564L334.703 211.4C332.354 210.044 328.444 210.102 325.97 211.53L313.428 218.771C310.954 220.199 310.853 222.456 313.202 223.812L320.415 227.977L327.104 224.115L327.137 224.134L334.782 219.72Z" fill="#929AA5"/>
<path opacity="0.81" d="M317.582 214.204C320.484 212.528 320.484 209.811 317.582 208.135C314.679 206.46 309.973 206.46 307.07 208.135C304.168 209.811 304.168 212.528 307.07 214.204C309.973 215.879 314.679 215.879 317.582 214.204Z" fill="#F0B90B"/>
</g>
<rect opacity="0.84" width="2.51928" height="41.0455" transform="matrix(-2.58096e-08 -1 -0.865988 0.500065 353.887 216.826)" fill="#C0C6CF" fill-opacity="0.4"/>
<rect opacity="0.28" width="2.45218" height="39.6459" transform="matrix(2.58096e-08 -1 0.865988 0.500065 284.163 217.553)" fill="#474D57"/>
<g clip-path="url(#clip3_833_65857)">
<rect width="39.2557" height="41.1869" transform="matrix(-0.866044 -0.499968 0.866044 -0.499968 390.404 246.914)" fill="#CACED3" fill-opacity="0.12"/>
<path opacity="0.69" d="M406.938 231.752L406.905 231.733L414.072 227.596L406.859 223.432C404.51 222.075 400.6 222.134 398.126 223.562L385.584 230.802C383.11 232.231 383.009 234.488 385.358 235.844L392.571 240.008L399.26 236.147L399.293 236.166L406.938 231.752Z" fill="#929AA5"/>
<path opacity="0.81" d="M389.738 226.235C392.64 224.56 392.64 221.843 389.738 220.167C386.835 218.492 382.129 218.491 379.226 220.167C376.324 221.843 376.324 224.56 379.226 226.236C382.129 227.911 386.835 227.911 389.738 226.235Z" fill="#F0B90B"/>
</g>
<rect opacity="0.84" width="2.51928" height="41.0455" transform="matrix(-2.58095e-08 -1 -0.865988 0.500066 426.043 228.857)" fill="#C0C6CF" fill-opacity="0.4"/>
<rect opacity="0.28" width="2.45218" height="39.6459" transform="matrix(2.58095e-08 -1 0.865987 0.500066 356.319 229.585)" fill="#474D57"/>
<rect opacity="0.17" width="36.0576" height="179.567" transform="matrix(-4.37114e-08 1 -0.865988 -0.500065 227.422 198.656)" fill="#AEB4BC"/>
<rect opacity="0.21" width="36.184" height="177.221" transform="matrix(4.37114e-08 1 0.865988 -0.500065 227.513 198.504)" fill="#76808F"/>
<path opacity="0.4" d="M225.489 20.2744L380.846 109.962L227.364 198.567L72.0065 108.88L225.489 20.2744Z" fill="url(#paint1_linear_833_65857)" fill-opacity="0.1"/>
<path opacity="0.04" d="M225.489 20.2744L380.846 109.962L227.364 198.567L72.0065 108.88L225.489 20.2744Z" fill="#CACED3"/>
<g style="mix-blend-mode:multiply">
<rect width="12.5024" height="83.2907" transform="matrix(-0.866025 -0.5 -0.866063 0.499935 353.235 126.167)" fill="url(#paint2_linear_833_65857)" fill-opacity="0.5"/>
</g>
<rect width="5.59992" height="46.3526" transform="matrix(-4.37114e-08 1 -0.865988 -0.500065 269.906 156.07)" fill="#C0C6CF" fill-opacity="0.4"/>
<g clip-path="url(#clip4_833_65857)">
<rect width="84.4762" height="46.7074" transform="matrix(-0.866044 0.499967 0.866044 0.499967 302.5 90.5)" fill="#CACED3" fill-opacity="0.09"/>
<g opacity="0.48">
<rect width="13.2191" height="3.27329" transform="matrix(0.866044 -0.499967 0.866044 0.499967 276.866 114.811)" fill="#929AA5"/>
<rect width="3.27396" height="3.27396" transform="matrix(0.866044 -0.499967 0.866044 0.499967 283.844 118.839)" fill="#929AA5"/>
<rect width="13.4735" height="3.27396" transform="matrix(0.866044 -0.499967 0.866044 0.499967 288.948 115.893)" fill="#929AA5"/>
<rect width="3.27396" height="3.27396" transform="matrix(0.866044 -0.499967 -0.866044 -0.499967 305.72 109.484)" fill="#929AA5"/>
<rect width="3.27396" height="3.27396" transform="matrix(0.866044 -0.499967 0.866044 0.499967 290.823 122.868)" fill="#929AA5"/>
<rect width="18.9889" height="3.27396" transform="matrix(0.866044 -0.499967 0.866044 0.499967 297.061 119.267)" fill="#929AA5"/>
<rect width="3.27396" height="3.27396" transform="matrix(0.866044 -0.499967 0.866044 0.499967 297.801 126.897)" fill="#929AA5"/>
<rect width="20.2985" height="3.27396" transform="matrix(0.866044 -0.499967 0.866044 0.499967 302.905 123.95)" fill="#929AA5"/>
<rect width="3.27396" height="3.27396" transform="matrix(0.866044 -0.499967 -0.866044 -0.499967 325.588 114.129)" fill="#929AA5"/>
</g>
<g opacity="0.7">
<path d="M265.157 132.478C262.352 134.097 257.805 134.097 255 132.478C252.196 130.859 252.196 128.234 255.001 126.615C257.805 124.996 262.353 124.996 265.157 126.615C267.962 128.234 267.962 130.859 265.157 132.478Z" fill="#929AA5"/>
<path d="M274.39 142.073L274.358 142.054L267.434 146.052L260.464 142.028C258.194 140.718 258.292 138.537 260.682 137.157L272.8 130.161C275.191 128.781 278.968 128.725 281.239 130.035L288.208 134.059L281.745 137.79L281.777 137.808L274.39 142.073Z" fill="#929AA5"/>
</g>
<path d="M265.157 132.478C262.352 134.097 257.805 134.097 255.001 132.478C252.196 130.859 252.196 128.234 255.001 126.615C257.805 124.996 262.353 124.996 265.157 126.615C267.962 128.234 267.962 130.859 265.157 132.478Z" fill="#F0B90B"/>
</g>
<rect opacity="0.93" width="5.74961" height="84.3017" transform="matrix(4.37114e-08 1 0.865988 -0.500065 269.929 156.022)" fill="url(#paint3_linear_833_65857)" fill-opacity="0.5"/>
<rect opacity="0.27" width="5.49482" height="45.4827" transform="matrix(4.37114e-08 1 0.865988 -0.500065 185.631 155.585)" fill="#474D57"/>
<g clip-path="url(#clip5_833_65857)">
<rect width="89.0996" height="45.3368" transform="matrix(0.866044 0.499967 -0.866044 0.499967 147.732 88.4126)" fill="#D6DBE2" fill-opacity="0.1"/>
<path d="M151.541 110.767C148.836 109.205 148.836 106.674 151.541 105.112C154.245 103.551 158.631 103.551 161.335 105.112C164.04 106.674 164.04 109.205 161.335 110.767C158.631 112.328 154.245 112.328 151.541 110.767Z" fill="url(#paint4_linear_833_65857)" fill-opacity="0.1"/>
<g opacity="0.58">
<rect width="12.7482" height="3.15671" transform="matrix(0.866044 0.499967 -0.866044 0.499967 181.055 117.285)" fill="#929AA5"/>
<rect width="3.15735" height="3.15735" transform="matrix(0.866044 0.499967 -0.866044 0.499967 174.325 121.17)" fill="#929AA5"/>
<rect width="12.9936" height="3.15735" transform="matrix(0.866044 0.499967 -0.866044 0.499967 179.247 124.012)" fill="#929AA5"/>
<rect width="3.15735" height="3.15735" transform="matrix(0.866044 0.499967 0.866044 -0.499967 189.954 133.35)" fill="#929AA5"/>
<rect width="3.15735" height="3.15735" transform="matrix(0.866044 0.499967 -0.866044 0.499967 167.595 125.056)" fill="#929AA5"/>
<rect width="18.3126" height="3.15735" transform="matrix(0.866044 0.499967 -0.866044 0.499967 173.611 128.528)" fill="#929AA5"/>
<rect width="3.15735" height="3.15735" transform="matrix(0.866044 0.499967 -0.866044 0.499967 160.865 128.941)" fill="#929AA5"/>
<rect width="19.5755" height="3.15735" transform="matrix(0.866044 0.499967 -0.866044 0.499967 165.787 131.782)" fill="#929AA5"/>
<rect width="3.15735" height="3.15735" transform="matrix(0.866044 0.499967 0.866044 -0.499967 182.194 144.411)" fill="#929AA5"/>
</g>
<path opacity="0.58" d="M135.513 115.908L135.544 115.89L128.866 112.035L135.587 108.155C137.777 106.891 141.42 106.945 143.725 108.276L155.412 115.023C157.717 116.353 157.811 118.457 155.622 119.721L148.901 123.601L142.668 120.002L142.637 120.02L135.513 115.908Z" fill="#929AA5"/>
<path d="M151.541 110.767C148.836 109.205 148.836 106.674 151.541 105.113C154.246 103.551 158.631 103.551 161.336 105.113C164.04 106.674 164.04 109.206 161.336 110.767C158.631 112.328 154.246 112.328 151.541 110.767Z" fill="#F0B90B"/>
</g>
<g opacity="0.79">
<rect width="89.0996" height="45.3368" transform="matrix(0.866044 0.499967 -0.866044 0.499967 147.732 88.4126)" fill="#D6DBE2" fill-opacity="0.1"/>
<path d="M151.541 110.767C148.836 109.205 148.836 106.674 151.541 105.112C154.245 103.551 158.631 103.551 161.335 105.112C164.04 106.674 164.04 109.205 161.335 110.767C158.631 112.328 154.245 112.328 151.541 110.767Z" fill="url(#paint5_linear_833_65857)" fill-opacity="0.1"/>
<path opacity="0.58" d="M135.513 115.908L135.544 115.89L128.866 112.035L135.587 108.155C137.777 106.891 141.42 106.945 143.725 108.276L155.412 115.023C157.717 116.353 157.811 118.457 155.622 119.721L148.901 123.601L142.668 120.002L142.637 120.02L135.513 115.908Z" fill="#929AA5"/>
<path d="M151.541 110.767C148.836 109.205 148.836 106.674 151.541 105.113C154.246 103.551 158.631 103.551 161.336 105.113C164.04 106.674 164.04 109.206 161.336 110.767C158.631 112.328 154.246 112.328 151.541 110.767Z" fill="#F0B90B"/>
</g>
<rect width="5.6417" height="89.104" transform="matrix(-4.37114e-08 1 -0.865988 -0.500065 185.631 155.478)" fill="#C0C6CF" fill-opacity="0.4"/>
<g opacity="0.86">
<g style="mix-blend-mode:multiply">
<rect width="40.3006" height="44.8704" transform="matrix(-0.866025 -0.5 0.866063 -0.499935 220.726 181.193)" fill="url(#paint6_linear_833_65857)" fill-opacity="0.5"/>
</g>
</g>
<g clip-path="url(#clip6_833_65857)">
<rect width="39.2557" height="41.1869" transform="matrix(0.866044 -0.499967 -0.866044 -0.499967 88.3738 204.599)" fill="#CACED3" fill-opacity="0.12"/>
<path opacity="0.69" d="M71.8393 189.438L71.8724 189.419L64.7058 185.281L71.9189 181.117C74.2683 179.761 78.1783 179.819 80.6522 181.247L93.1943 188.488C95.6682 189.916 95.7691 192.173 93.4197 193.53L86.2066 197.694L79.5174 193.832L79.4843 193.851L71.8393 189.438Z" fill="#929AA5"/>
<path opacity="0.81" d="M89.0401 183.921C86.1375 182.245 86.1377 179.528 89.0402 177.853C91.9428 176.177 96.6489 176.177 99.5516 177.853C102.454 179.528 102.454 182.245 99.5515 183.921C96.6489 185.597 91.9428 185.597 89.0401 183.921Z" fill="#F0B90B"/>
</g>
<rect opacity="0.84" width="2.51928" height="41.0455" transform="matrix(2.58096e-08 -1 0.865988 0.500065 52.7346 186.543)" fill="#C0C6CF" fill-opacity="0.4"/>
<rect opacity="0.28" width="2.45218" height="39.6459" transform="matrix(-2.58096e-08 -1 -0.865988 0.500065 122.459 187.27)" fill="#474D57"/>
<g clip-path="url(#clip7_833_65857)">
<rect width="39.2557" height="41.1869" transform="matrix(0.866044 -0.499967 -0.866044 -0.499967 140.325 234.621)" fill="#CACED3" fill-opacity="0.12"/>
<path opacity="0.69" d="M123.791 219.459L123.824 219.44L116.657 215.303L123.87 211.139C126.22 209.782 130.13 209.841 132.603 211.269L145.146 218.509C147.619 219.938 147.72 222.195 145.371 223.551L138.158 227.715L131.469 223.854L131.436 223.873L123.791 219.459Z" fill="#929AA5"/>
<path opacity="0.81" d="M140.991 213.942C138.089 212.267 138.089 209.55 140.992 207.874C143.894 206.198 148.6 206.198 151.503 207.874C154.406 209.55 154.405 212.267 151.503 213.942C148.6 215.618 143.894 215.618 140.991 213.942Z" fill="#F0B90B"/>
</g>
<rect opacity="0.84" width="2.51928" height="41.0455" transform="matrix(2.58096e-08 -1 0.865988 0.500066 104.686 216.565)" fill="#C0C6CF" fill-opacity="0.4"/>
<rect opacity="0.28" width="2.45218" height="39.6459" transform="matrix(-2.58096e-08 -1 -0.865988 0.500066 174.41 217.292)" fill="#474D57"/>
<g clip-path="url(#clip8_833_65857)">
<rect width="39.2557" height="41.1869" transform="matrix(0.866044 -0.499967 -0.866044 -0.499967 68.1691 246.653)" fill="#CACED3" fill-opacity="0.12"/>
<path opacity="0.69" d="M51.6345 231.492L51.6676 231.473L44.5009 227.335L51.7141 223.171C54.0635 221.815 57.9735 221.873 60.4473 223.301L72.9895 230.542C75.4633 231.97 75.5643 234.227 73.2149 235.584L66.0017 239.748L59.3126 235.886L59.2795 235.905L51.6345 231.492Z" fill="#929AA5"/>
<path opacity="0.81" d="M68.8354 225.975C65.9328 224.299 65.933 221.582 68.8355 219.907C71.7381 218.231 76.4442 218.231 79.3469 219.907C82.2495 221.582 82.2494 224.299 79.3468 225.975C76.4442 227.651 71.7381 227.651 68.8354 225.975Z" fill="#F0B90B"/>
</g>
<rect opacity="0.84" width="2.51928" height="41.0455" transform="matrix(2.58096e-08 -1 0.865988 0.500065 32.5299 228.597)" fill="#C0C6CF" fill-opacity="0.4"/>
<rect opacity="0.28" width="2.45218" height="39.6459" transform="matrix(-2.58096e-08 -1 -0.865988 0.500065 102.254 229.324)" fill="#474D57"/>
<path opacity="0.22" fill-rule="evenodd" clip-rule="evenodd" d="M196.893 78.0336V86.7489L228.116 104.779L228.116 87.5134L228.165 87.5417L228.165 104.779L259.389 86.749L259.389 77.5695L277.823 88.2867L227.835 117.348L178.551 88.6968L196.893 78.0336Z" fill="#F5F5F5"/>
<rect opacity="0.44" width="16.4601" height="57.1423" transform="matrix(-4.37114e-08 1 -0.865988 -0.500065 228.034 107.897)" fill="#76808F"/>
<rect opacity="0.19" width="16.131" height="57.1423" transform="matrix(4.37114e-08 1 0.865988 -0.500065 228.111 108.226)" fill="#474D57"/>
<rect opacity="0.88" width="57.4265" height="57.4265" transform="matrix(0.864518 0.502602 -0.864518 0.502602 227.987 34.7535)" fill="#929AA5"/>
<rect opacity="0.7" width="38.4344" height="38.4344" transform="matrix(0.864518 0.502602 -0.864518 0.502602 227.987 45.0377)" fill="#474D57"/>
<rect opacity="0.46" width="38.4344" height="38.4344" transform="matrix(0.864518 0.502602 -0.864518 0.502602 227.987 45.0377)" fill="#474D57"/>
<rect opacity="0.56" width="13.9722" height="57.2855" transform="matrix(-4.37114e-08 1 -0.865988 -0.500065 227.909 92.2386)" fill="#76808F"/>
<rect opacity="0.88" width="14.327" height="57.2855" transform="matrix(4.37114e-08 1 0.865988 -0.500065 227.987 92.2396)" fill="#5E6673"/>
<path opacity="0.31" fill-rule="evenodd" clip-rule="evenodd" d="M227.929 34.987L227.929 1.2896L277.633 -27.2549L277.633 63.6064L277.633 63.6064V63.5314L227.929 34.987Z" fill="url(#paint7_linear_833_65857)"/>
<path opacity="0.49" fill-rule="evenodd" clip-rule="evenodd" d="M227.799 91.7649L227.799 -8.32134L178.301 -36.7467L178.301 63.3395L178.504 63.4558L227.799 35.1469L227.799 91.7649Z" fill="url(#paint8_linear_833_65857)"/>
<path d="M252.876 10.7686V51.5674L227.633 68.8802L202.389 51.2871V10.7686H252.876Z" fill="#FCEA9C"/>
<path d="M252.876 16.8821H202.389V58.08L227.633 75.6731L252.876 58.3604V16.8821Z" fill="#F8D33A"/>
<path fill-rule="evenodd" clip-rule="evenodd" d="M206.25 54.4848L227.633 69.3688L249.016 54.722V21.9297H206.25V54.4848Z" fill="url(#paint9_linear_833_65857)"/>
<path d="M227.601 28.251C232.268 28.251 236.052 32.0336 236.052 36.6996C236.052 41.3657 232.268 45.1482 227.601 45.1482C222.933 45.1482 219.15 41.3657 219.15 36.6996C219.15 32.0336 222.933 28.251 227.601 28.251Z" fill="white"/>
<path d="M232.726 48.8129C236.756 48.8129 240.242 51.1352 241.917 54.5129L227.646 64.2852L213.368 54.3499C215.073 51.0607 218.512 48.8129 222.476 48.8129H232.726Z" fill="white"/>
<rect opacity="0.33" width="16.5171" height="16.7535" transform="matrix(0.863031 0.505151 -0.863031 0.505151 65.5887 37.2889)" fill="#E6E8EA"/>
<rect opacity="0.23" width="13.4831" height="16.5298" transform="matrix(-4.31123e-08 1 -0.862973 -0.505249 65.3722 54.0907)" fill="#AEB4BC"/>
<rect opacity="0.21" width="13.6695" height="16.614" transform="matrix(-4.31123e-08 1 -0.862973 -0.505249 79.8464 45.6419)" fill="#CACED3"/>
<rect opacity="0.4" width="13.5952" height="16.7723" transform="matrix(4.31123e-08 1 0.862973 -0.505249 65.3722 54.1027)" fill="#929AA5"/>
<g style="mix-blend-mode:screen" opacity="0.62">
<rect width="16.6417" height="16.6023" transform="matrix(0.863031 0.505151 -0.863031 0.505151 65.4174 50.8119)" fill="url(#paint10_linear_833_65857)"/>
</g>
<g opacity="0.17">
<rect opacity="0.54" width="16.7061" height="16.7061" transform="matrix(0.866044 0.499967 -0.866044 0.499967 65.3705 37.243)" fill="#929AA5"/>
<rect width="13.7714" height="16.5517" transform="matrix(-4.37114e-08 1 -0.865988 -0.500065 65.3683 53.8882)" fill="url(#paint11_linear_833_65857)" fill-opacity="0.5"/>
<rect width="13.9499" height="16.5517" transform="matrix(4.37114e-08 1 0.865988 -0.500065 65.351 53.9201)" fill="#5E6673"/>
</g>
<rect opacity="0.33" width="11.8141" height="11.9832" transform="matrix(0.863031 0.505151 -0.863031 0.505151 135.991 53.787)" fill="#E6E8EA"/>
<rect opacity="0.23" width="9.64398" height="11.8232" transform="matrix(-4.31123e-08 1 -0.862973 -0.505249 135.836 65.8048)" fill="#AEB4BC"/>
<rect opacity="0.21" width="9.77725" height="11.8834" transform="matrix(-4.31123e-08 1 -0.862973 -0.505249 146.188 59.7617)" fill="#CACED3"/>
<rect opacity="0.4" width="9.72412" height="11.9966" transform="matrix(4.31123e-08 1 0.862973 -0.505249 135.836 65.8132)" fill="#929AA5"/>
<g style="mix-blend-mode:screen" opacity="0.62">
<rect width="11.9032" height="11.875" transform="matrix(0.863031 0.505151 -0.863031 0.505151 135.868 63.4596)" fill="url(#paint12_linear_833_65857)"/>
</g>
<g opacity="0.17">
<rect opacity="0.42" width="11.9492" height="11.9492" transform="matrix(0.866044 0.499967 -0.866044 0.499967 135.834 53.7545)" fill="#929AA5"/>
<rect width="9.85017" height="11.8388" transform="matrix(-4.37114e-08 1 -0.865988 -0.500065 135.833 65.6601)" fill="url(#paint13_linear_833_65857)" fill-opacity="0.5"/>
<rect width="9.97781" height="11.8388" transform="matrix(4.37114e-08 1 0.865988 -0.500065 135.821 65.683)" fill="#5E6673"/>
</g>
<rect width="11.2688" height="11.2688" transform="matrix(0.866756 0.498732 -0.866756 0.498732 397.467 36.7905)" fill="#929AA5"/>
<rect width="12.0458" height="11.2689" transform="matrix(-4.38557e-08 1 -0.8667 -0.49883 397.465 48.0084)" fill="url(#paint14_linear_833_65857)" fill-opacity="0.5"/>
<rect width="12.3147" height="11.2689" transform="matrix(4.38557e-08 1 0.8667 -0.49883 397.454 48.0251)" fill="#5E6673"/>
<rect width="12.9348" height="12.9348" transform="matrix(0.866581 0.499036 -0.866581 0.499036 325.394 57.0837)" fill="#FCEA9C"/>
<rect width="12.9107" height="12.9348" transform="matrix(-4.38202e-08 1 -0.866525 -0.499134 325.394 70.0182)" fill="#F8D33A"/>
<rect width="12.9107" height="12.9348" transform="matrix(4.38202e-08 1 0.866525 -0.499134 325.428 70.0182)" fill="#F0B90B"/>
<g opacity="0.35">
<rect opacity="0.42" width="11.9106" height="11.9106" transform="matrix(0.866756 0.498732 -0.866756 0.498732 397.279 55.0623)" fill="#929AA5"/>
<rect width="9.79407" height="11.8006" transform="matrix(-4.38557e-08 1 -0.8667 -0.49883 397.278 66.9001)" fill="url(#paint15_linear_833_65857)" fill-opacity="0.5"/>
<rect width="9.92097" height="11.8006" transform="matrix(4.38557e-08 1 0.8667 -0.49883 397.265 66.923)" fill="#5E6673"/>
</g>
<rect width="37.7101" height="38.3066" transform="matrix(4.38557e-08 1 0.8667 -0.49883 47.1823 61.5529)" fill="#F0B90B"/>
<rect width="37.7101" height="38.3066" transform="matrix(4.38557e-08 1 0.8667 -0.49883 47.1823 61.5529)" fill="url(#paint16_linear_833_65857)"/>
<g style="mix-blend-mode:multiply" opacity="0.95">
<rect width="35.7004" height="38.3066" transform="matrix(0.866737 0.498765 -0.866775 0.4987 80.3196 79.9385)" fill="url(#paint17_linear_833_65857)"/>
</g>
<path d="M67.7878 76.628L66.0518 68.4045C67.5254 67.214 68.6355 65.0757 68.6356 63.2782C68.6358 61.2272 67.1904 60.3967 65.4095 61.4215C63.6266 62.4475 62.1821 64.9409 62.182 66.9919C62.1818 68.6481 63.1245 69.5083 64.4252 69.2397L63.0275 79.3904L67.7878 76.628Z" fill="#D0980B"/>
<path d="M67.7878 76.628L66.0518 68.4045C67.5254 67.214 68.6355 65.0757 68.6356 63.2782C68.6358 61.2272 67.1904 60.3967 65.4095 61.4215C63.6266 62.4475 62.1821 64.9409 62.182 66.9919C62.1818 68.6481 63.1245 69.5083 64.4252 69.2397L63.0275 79.3904L67.7878 76.628Z" fill="#BD8700"/>
<path d="M67.7878 76.628L66.0518 68.4045C67.5254 67.2141 68.6355 65.0758 68.6356 63.2783C68.6358 61.2272 67.1904 60.3967 65.4095 61.4216C63.6266 62.4475 62.1821 64.941 62.182 66.992C62.1818 68.6482 63.1245 69.5083 64.4252 69.2398L63.0275 79.3905L67.7878 76.628Z" fill="#474D57"/>
<rect opacity="0.69" width="37.4188" height="16.9563" transform="matrix(-4.38557e-08 1 -0.8667 -0.49883 47.1823 61.5529)" fill="#F0B90B"/>
<rect width="38.3123" height="16.7511" transform="matrix(0.866737 -0.498765 -0.866775 -0.498699 47.1248 61.6071)" fill="#FCEA9C"/>
<rect opacity="0.42" width="38.3123" height="16.9271" transform="matrix(0.866737 -0.498765 -0.866775 -0.498699 47.1248 61.6071)" fill="#F8D33A"/>
<path d="M66.0154 43.7099C64.9825 43.581 64.3987 43.141 64.0781 42.7028C63.9207 42.4877 63.8322 42.2805 63.7827 42.1251C63.7579 42.0473 63.7428 41.9819 63.7337 41.9342C63.7291 41.9103 63.726 41.8908 63.724 41.8763L63.7217 41.8583L63.721 41.8522L63.7208 41.8499L63.7207 41.8489L63.7206 41.8485C63.7206 41.8483 63.7206 41.8481 64.0021 41.8218L63.7206 41.8481L63.7194 41.835V41.8218V31.9131C63.7194 30.4719 63.3158 28.3387 62.2223 26.8505C61.68 26.1124 60.9748 25.5415 60.0703 25.2799C59.1748 25.0209 58.0528 25.0561 56.6531 25.5787L56.6495 25.5823L56.5918 25.6037C52.9352 26.961 51.1084 29.597 50.1892 32.4724C49.2655 35.3618 49.2635 38.4781 49.2635 40.7654V53.2592V53.2777L49.2611 53.2961L48.9808 53.2592C49.2611 53.2961 49.2611 53.2962 49.2611 53.2964L49.261 53.2968L49.2609 53.2979L49.2605 53.3005L49.2593 53.3084C49.2584 53.3148 49.257 53.3234 49.2551 53.3341C49.2514 53.3555 49.2458 53.3853 49.2376 53.4222C49.2213 53.496 49.1948 53.5989 49.1532 53.7212C49.0702 53.9652 48.9255 54.2906 48.6783 54.6168C48.1752 55.2806 47.2703 55.9156 45.6947 55.9156C45.3432 55.9156 45.025 55.8864 44.737 55.8308C43.6011 55.615 42.9785 55.0208 42.6467 54.4653C42.4832 54.1916 42.3929 53.932 42.3433 53.74C42.3184 53.6438 42.3035 53.5637 42.2947 53.5062C42.2903 53.4775 42.2874 53.4543 42.2856 53.4374L42.2836 53.417L42.283 53.4105L42.2829 53.4083L42.2828 53.4074L42.2828 53.407C42.2827 53.4068 42.2827 53.4066 42.5648 53.3868L42.2827 53.4066L42.282 53.3968V53.3868V42.5127C42.282 38.7137 42.3793 33.7399 44.0206 29.1515C45.6672 24.5483 48.8684 20.3315 55.0549 18.0641C55.3388 17.959 55.6305 17.858 55.9302 17.7611L55.9301 17.7609L55.9424 17.7575C59.6292 16.7465 63.2146 17.2064 65.8802 19.45C68.5429 21.6912 70.2286 25.6625 70.2286 31.55C70.2286 37.3878 70.1506 39.965 70.0718 41.0846C70.052 41.3648 70.0319 41.5588 70.0121 41.6922C70.0022 41.7587 69.9917 41.8143 69.9803 41.8599C69.9702 41.9006 69.9547 41.9527 69.9273 42.0002C69.9194 42.0139 69.8848 42.0711 69.8209 42.1127C69.8063 42.1435 69.7894 42.177 69.7702 42.2127C69.6755 42.3884 69.5215 42.6189 69.2815 42.8481C68.7957 43.3121 67.981 43.7481 66.6598 43.7481C66.4299 43.7481 66.2135 43.7357 66.0154 43.7099ZM66.0154 43.7099C66.0152 43.7099 66.0151 43.7099 66.0149 43.7099L66.0514 43.4295L66.0164 43.7101C66.0161 43.71 66.0157 43.71 66.0154 43.7099ZM69.7143 41.7547C69.7223 41.7162 69.7306 41.6663 69.7392 41.6024C69.8009 41.62 69.84 41.6548 69.8577 41.6732C69.8789 41.6953 69.8906 41.7154 69.8951 41.7237C69.9005 41.7335 69.9035 41.741 69.9048 41.7442C69.9062 41.7479 69.907 41.7505 69.9074 41.7516L69.9084 41.7552L69.9089 41.7573L69.9092 41.7587L69.9094 41.7595L69.9095 41.76C69.9095 41.76 69.9095 41.7601 69.9082 41.7604L69.7143 41.7547Z" fill="#F5F5F5" stroke="#F5F5F5" stroke-width="0.565505"/>
</g>
<defs>
<linearGradient id="paint0_linear_833_65857" x1="25.9054" y1="120.907" x2="20.5572" y2="58.8617" gradientUnits="userSpaceOnUse">
<stop stop-color="#E6E8EA" stop-opacity="0.32"/>
<stop offset="1" stop-color="#E6E8EA" stop-opacity="0"/>
</linearGradient>
<linearGradient id="paint1_linear_833_65857" x1="226.426" y1="20.2744" x2="226.426" y2="198.567" gradientUnits="userSpaceOnUse">
<stop stop-color="#76808F"/>
<stop offset="1" stop-color="#9DA3AC" stop-opacity="0.96"/>
</linearGradient>
<linearGradient id="paint2_linear_833_65857" x1="18.0776" y1="62.0414" x2="4.71367" y2="62.142" gradientUnits="userSpaceOnUse">
<stop stop-color="#F8D33A"/>
<stop offset="1" stop-color="white" stop-opacity="0"/>
</linearGradient>
<linearGradient id="paint3_linear_833_65857" x1="2.8748" y1="0" x2="2.8748" y2="84.3017" gradientUnits="userSpaceOnUse">
<stop stop-color="#5E6673"/>
<stop offset="1" stop-color="#5E6673" stop-opacity="0.8"/>
</linearGradient>
<linearGradient id="paint4_linear_833_65857" x1="161.335" y1="105.112" x2="156.439" y2="113.594" gradientUnits="userSpaceOnUse">
<stop stop-color="#76808F"/>
<stop offset="1" stop-color="#9DA3AC" stop-opacity="0.96"/>
</linearGradient>
<linearGradient id="paint5_linear_833_65857" x1="161.335" y1="105.112" x2="156.439" y2="113.594" gradientUnits="userSpaceOnUse">
<stop stop-color="#76808F"/>
<stop offset="1" stop-color="#9DA3AC" stop-opacity="0.96"/>
</linearGradient>
<linearGradient id="paint6_linear_833_65857" x1="58.272" y1="33.423" x2="15.2791" y2="35.3605" gradientUnits="userSpaceOnUse">
<stop stop-color="#ABB0B7"/>
<stop offset="1" stop-color="white" stop-opacity="0"/>
</linearGradient>
<linearGradient id="paint7_linear_833_65857" x1="233.998" y1="7.50001" x2="249.045" y2="58.043" gradientUnits="userSpaceOnUse">
<stop stop-color="white" stop-opacity="0"/>
<stop offset="1" stop-color="#F8D33A"/>
</linearGradient>
<linearGradient id="paint8_linear_833_65857" x1="222.999" y1="13.5878" x2="194.046" y2="98.4435" gradientUnits="userSpaceOnUse">
<stop stop-color="white" stop-opacity="0"/>
<stop offset="1" stop-color="#F8D33A"/>
</linearGradient>
<linearGradient id="paint9_linear_833_65857" x1="227.633" y1="21.9297" x2="227.633" y2="69.3688" gradientUnits="userSpaceOnUse">
<stop stop-color="#F0B90B"/>
<stop offset="1" stop-color="#F8D33A"/>
</linearGradient>
<linearGradient id="paint10_linear_833_65857" x1="-10.5378" y1="-2.89138" x2="14.5611" y2="-8.79598" gradientUnits="userSpaceOnUse">
<stop stop-color="#CFD7E2"/>
<stop offset="1" stop-color="#76808F" stop-opacity="0"/>
</linearGradient>
<linearGradient id="paint11_linear_833_65857" x1="6.8857" y1="0" x2="6.8857" y2="16.5517" gradientUnits="userSpaceOnUse">
<stop stop-color="#5E6673"/>
<stop offset="1" stop-color="#5E6673" stop-opacity="0.8"/>
</linearGradient>
<linearGradient id="paint12_linear_833_65857" x1="-7.53733" y1="-2.0681" x2="10.415" y2="-6.29144" gradientUnits="userSpaceOnUse">
<stop stop-color="#CFD7E2"/>
<stop offset="1" stop-color="#76808F" stop-opacity="0"/>
</linearGradient>
<linearGradient id="paint13_linear_833_65857" x1="4.92509" y1="0" x2="4.92509" y2="11.8388" gradientUnits="userSpaceOnUse">
<stop stop-color="#5E6673"/>
<stop offset="1" stop-color="#5E6673" stop-opacity="0.8"/>
</linearGradient>
<linearGradient id="paint14_linear_833_65857" x1="6.02291" y1="0" x2="6.02291" y2="11.2689" gradientUnits="userSpaceOnUse">
<stop stop-color="#5E6673"/>
<stop offset="1" stop-color="#5E6673" stop-opacity="0.8"/>
</linearGradient>
<linearGradient id="paint15_linear_833_65857" x1="4.89703" y1="0" x2="4.89703" y2="11.8006" gradientUnits="userSpaceOnUse">
<stop stop-color="#5E6673"/>
<stop offset="1" stop-color="#5E6673" stop-opacity="0.8"/>
</linearGradient>
<linearGradient id="paint16_linear_833_65857" x1="60.1963" y1="19.2136" x2="28.8994" y2="60.3146" gradientUnits="userSpaceOnUse">
<stop stop-color="#F7CF33"/>
<stop offset="1" stop-color="#F0B90B" stop-opacity="0"/>
</linearGradient>
<linearGradient id="paint17_linear_833_65857" x1="-26.2047" y1="-9.87875" x2="15.5066" y2="-9.06954" gradientUnits="userSpaceOnUse">
<stop stop-color="#B5B2A6"/>
<stop offset="1" stop-color="#F0B90B" stop-opacity="0"/>
</linearGradient>
<clipPath id="clip0_833_65857">
<rect width="464" height="261" fill="white"/>
</clipPath>
<clipPath id="clip1_833_65857">
<rect width="39.2557" height="41.1869" fill="white" transform="matrix(-0.866044 -0.499967 0.866044 -0.499967 370.199 204.86)"/>
</clipPath>
<clipPath id="clip2_833_65857">
<rect width="39.2557" height="41.1869" fill="white" transform="matrix(-0.866044 -0.499967 0.866044 -0.499967 318.248 234.882)"/>
</clipPath>
<clipPath id="clip3_833_65857">
<rect width="39.2557" height="41.1869" fill="white" transform="matrix(-0.866044 -0.499968 0.866044 -0.499968 390.404 246.914)"/>
</clipPath>
<clipPath id="clip4_833_65857">
<rect width="84.4762" height="46.7074" fill="white" transform="matrix(-0.866044 0.499967 0.866044 0.499967 302.5 90.5)"/>
</clipPath>
<clipPath id="clip5_833_65857">
<rect width="89.0996" height="45.3368" fill="white" transform="matrix(0.866044 0.499967 -0.866044 0.499967 147.732 88.4126)"/>
</clipPath>
<clipPath id="clip6_833_65857">
<rect width="39.2557" height="41.1869" fill="white" transform="matrix(0.866044 -0.499967 -0.866044 -0.499967 88.3738 204.599)"/>
</clipPath>
<clipPath id="clip7_833_65857">
<rect width="39.2557" height="41.1869" fill="white" transform="matrix(0.866044 -0.499967 -0.866044 -0.499967 140.325 234.621)"/>
</clipPath>
<clipPath id="clip8_833_65857">
<rect width="39.2557" height="41.1869" fill="white" transform="matrix(0.866044 -0.499967 -0.866044 -0.499967 68.1691 246.653)"/>
</clipPath>
</defs>
</svg>
