<svg width="404" height="228" viewBox="0 0 404 228" fill="none" xmlns="http://www.w3.org/2000/svg">
<path d="M198.937 79.9737L220.172 96.1845L220.173 100.816L177.701 100.816L177.701 96.1845L198.937 79.9737Z" fill="url(#paint0_linear_967_76349)"/>
<path d="M177.701 122.817L177.701 120.501L220.173 120.501L220.173 122.817L177.701 122.817Z" fill="#76808F"/>
<ellipse cx="198.937" cy="92.1318" rx="5.8988" ry="5.78956" fill="#76808F"/>
<rect x="182.42" y="100.816" width="4.71904" height="19.6845" fill="#AEB4BC"/>
<rect x="191.858" y="100.816" width="4.71904" height="19.6845" fill="#AEB4BC"/>
<rect x="201.296" y="100.816" width="4.71904" height="19.6845" fill="#AEB4BC"/>
<rect x="210.734" y="100.816" width="4.71904" height="19.6845" fill="#AEB4BC"/>
<path d="M198.937 95.0266L195.988 92.1318L198.937 89.237L201.886 92.1318L198.937 95.0266Z" fill="white"/>
<path d="M177.701 122.817L177.701 127.448L220.173 127.448L220.173 122.817L177.701 122.817Z" fill="url(#paint1_linear_967_76349)"/>
<path d="M220.762 108.053L222.237 106.606L223.712 108.053L222.237 109.501L220.762 108.053Z" fill="#E6E8EA"/>
<path d="M184.19 82.0001L186.254 79.9737L188.319 82.0001L186.254 84.0264L184.19 82.0001Z" fill="#E6E8EA"/>
<path d="M174.162 116.448L175.342 115.29L176.521 116.448L175.342 117.606L174.162 116.448Z" fill="#E6E8EA"/>
<g filter="url(#filter0_d_967_76349)">
<circle r="31.7946" transform="matrix(1 0 0 -1 74.7946 163.794)" fill="url(#paint2_linear_967_76349)"/>
</g>
<rect x="68.7429" y="163.609" width="12.1032" height="15.129" fill="#171B1F"/>
<path d="M74.7933 141.42C79.8065 141.42 83.8705 145.485 83.8705 150.498C83.8705 155.511 79.8066 159.575 74.7933 159.575C69.7801 159.575 65.7159 155.511 65.7159 150.497C65.7159 145.484 69.78 141.42 74.7933 141.42Z" fill="url(#paint3_linear_967_76349)"/>
<path d="M68.7428 163.609H64.7084C60.2522 163.609 56.6396 167.222 56.6396 171.678V178.738H68.7428V163.609Z" fill="url(#paint4_linear_967_76349)"/>
<path d="M80.846 178.738H92.9492V171.678C92.9492 167.222 89.3367 163.609 84.8804 163.609H80.846V178.738Z" fill="url(#paint5_linear_967_76349)"/>
<path d="M80.8462 163.61L80.8462 168.653L75.8032 163.61L80.8462 163.61Z" fill="#76808E"/>
<path d="M68.7429 163.61L68.7429 168.653L73.7859 163.61L68.7429 163.61Z" fill="#76808E"/>
<rect x="73.7866" y="163.609" width="2.0172" height="15.129" fill="#76808E"/>
<ellipse cx="325" cy="50.3654" rx="33" ry="32.3654" fill="#2B2F36"/>
<path d="M312.413 63.5041L337.586 63.5041V54.4806C337.586 51.5417 335.238 49.1591 332.342 49.1591L329.545 49.1591L325 53.7711L320.455 49.1591L317.658 49.1591C314.761 49.1591 312.413 51.5417 312.413 54.4806L312.413 63.5041Z" fill="url(#paint6_linear_967_76349)"/>
<path d="M304.771 62.1159H311.514V50.5473L309.169 50.5473C306.74 50.5473 304.771 52.6191 304.771 55.1747L304.771 62.1159Z" fill="url(#paint7_linear_967_76349)"/>
<path d="M304.771 63.5041H311.514V50.5473L309.169 50.5473C306.74 50.5473 304.771 52.6191 304.771 55.1748L304.771 63.5041Z" fill="#E6E8EA"/>
<path d="M304.771 63.5041H311.514V50.5473L309.169 50.5473C306.74 50.5473 304.771 52.6191 304.771 55.1748L304.771 63.5041Z" fill="url(#paint8_linear_967_76349)"/>
<path d="M345.228 63.5041H338.485V50.5473L340.831 50.5473C343.259 50.5473 345.228 52.6191 345.228 55.1748L345.228 63.5041Z" fill="url(#paint9_linear_967_76349)"/>
<path d="M320.55 44.4851C318.092 41.9552 318.092 37.8534 320.55 35.3234C323.008 32.7935 326.992 32.7935 329.45 35.3234C331.908 37.8534 331.908 41.9554 329.45 44.4853C326.992 47.0153 323.008 47.0151 320.55 44.4851Z" fill="url(#paint10_linear_967_76349)"/>
<path opacity="0.3" d="M342.082 36.4338L343.655 38.0534L345.228 36.4338L343.655 34.8142L342.082 36.4338Z" fill="#AEB4BC"/>
<path opacity="0.3" d="M314.661 30.1868L316.009 31.575L317.358 30.1868L316.009 28.7985L314.661 30.1868Z" fill="#AEB4BC"/>
<path opacity="0.3" d="M304.322 46.8454L305.221 47.7709L306.12 46.8454L305.221 45.9199L304.322 46.8454Z" fill="#AEB4BC"/>
<path opacity="0.3" d="M310.002 46.551C308.422 44.9246 308.422 42.2878 310.002 40.6614C311.582 39.035 314.144 39.035 315.724 40.6614C317.303 42.2878 317.303 44.9248 315.723 46.5512C314.143 48.1776 311.582 48.1774 310.002 46.551Z" fill="#AEB4BC"/>
<path opacity="0.3" d="M334.276 46.551C332.696 44.9246 332.696 42.2878 334.276 40.6614C335.856 39.035 338.418 39.035 339.998 40.6614C341.578 42.2878 341.578 44.9248 339.998 46.5512C338.418 48.1776 335.856 48.1774 334.276 46.551Z" fill="#AEB4BC"/>
<path d="M325 53.7865L320.505 49.1591V63.5041H329.495V49.1591L325 53.7865Z" fill="url(#paint11_linear_967_76349)"/>
<rect width="7.70833" height="10.7917" transform="matrix(1 0 0 -1 268.083 98.75)" fill="url(#paint12_linear_967_76349)"/>
<path d="M268.083 98.75H275.792V103.375H268.083V98.75Z" fill="#76808F"/>
<rect width="7.70833" height="12.3333" transform="matrix(1 0 0 -1 291.208 95.6667)" fill="url(#paint13_linear_967_76349)"/>
<path d="M279.646 87.9583H287.354V74.0833H279.646V87.9583Z" fill="url(#paint14_linear_967_76349)"/>
<path d="M279.646 103.375H287.354V87.9583H279.646V103.375Z" fill="#76808F"/>
<path d="M291.208 103.375H298.917V95.6667H291.208V103.375Z" fill="#76808F"/>
<path d="M198.5 46.0002C165.087 46.0002 138 73.087 138 106.5C138 123.207 144.772 138.332 155.72 149.28L167.672 137.328C160.1 129.484 155.441 118.809 155.441 107.045C155.441 83.1457 174.67 63.737 198.5 63.4451V46.0002Z" fill="#76808F"/>
<path opacity="0.3" d="M259 106.5C259 73.0868 231.913 46 198.5 46V63.4447C198.681 63.4425 198.863 63.4413 199.045 63.4413C223.127 63.4413 242.649 82.9633 242.649 107.045C242.649 131.127 223.127 150.649 199.045 150.649C186.727 150.649 175.602 145.541 167.672 137.328L155.72 149.28C166.668 160.228 181.793 167 198.5 167C231.913 167 259 139.913 259 106.5Z" fill="#929AA5"/>
<path opacity="0.6" fill-rule="evenodd" clip-rule="evenodd" d="M324.5 88L310 103H320.05V174C320.05 176.789 317.789 179.05 315 179.05H303.75L265.5 179.05V188.95L303.75 188.95H315C323.257 188.95 329.95 182.257 329.95 174V103H339L324.5 88ZM242 179.05H111.5L111.5 188.95H242V179.05Z" fill="url(#paint15_linear_967_76349)"/>
<path opacity="0.6" fill-rule="evenodd" clip-rule="evenodd" d="M80.9022 109H90L75.5 124L61 109H71.0022L71.0022 37.4021C71.0022 29.1455 77.6956 22.4521 85.9522 22.4521L106 22.4521V32.3521L85.9522 32.3521C83.1632 32.3521 80.9022 34.6131 80.9022 37.4021L80.9022 109ZM292.952 22.4522L136.5 22.4522V32.3522L292.952 32.3522V22.4522Z" fill="url(#paint16_linear_967_76349)"/>
<path fill-rule="evenodd" clip-rule="evenodd" d="M254.083 199C261.815 199 268.083 192.732 268.083 185C268.083 177.268 261.815 171 254.083 171C246.351 171 240.083 177.268 240.083 185C240.083 192.732 246.351 199 254.083 199ZM254.083 178.778L247.861 185L254.083 191.222L260.305 185L254.083 178.778Z" fill="url(#paint17_linear_967_76349)"/>
<path fill-rule="evenodd" clip-rule="evenodd" d="M122 50C133.598 50 143 40.598 143 29C143 17.402 133.598 8 122 8C110.402 8 101 17.402 101 29C101 40.598 110.402 50 122 50ZM122 19.6667L112.667 29L122 38.3333L131.333 29L122 19.6667Z" fill="url(#paint18_linear_967_76349)"/>
<path fill-rule="evenodd" clip-rule="evenodd" d="M256.182 124.804L240.647 120.144C236.732 132.59 227.386 142.629 215.387 147.483L222.324 162.129C238.378 155.244 250.852 141.614 256.182 124.804Z" fill="#76808E"/>
<path fill-rule="evenodd" clip-rule="evenodd" d="M122 144.265C126.025 144.265 129.289 141.001 129.289 136.976C129.289 132.951 126.025 129.687 122 129.687C117.975 129.687 114.711 132.951 114.711 136.976C114.711 141.001 117.975 144.265 122 144.265ZM122 133.737L118.761 136.976L122 140.215L125.239 136.976L122 133.737Z" fill="url(#paint19_linear_967_76349)"/>
<path opacity="0.3" fill-rule="evenodd" clip-rule="evenodd" d="M108.192 135.431V139.216L106 141.598L110.385 149.373L113.495 148.62L116.697 150.512L117.615 153.647H126.385L127.303 150.512L130.505 148.62L133.615 149.373L138 141.598L135.808 139.216V135.431L138 133.049L133.615 125.274L130.505 126.027L127.303 124.135L126.385 121H117.615L116.697 124.135L113.495 126.027L110.385 125.274L106 133.049L108.192 135.431ZM122 147C127.523 147 132 142.523 132 137C132 131.477 127.523 127 122 127C116.477 127 112 131.477 112 137C112 142.523 116.477 147 122 147Z" fill="#929AA5"/>
<defs>
<filter id="filter0_d_967_76349" x="35.6194" y="124.619" width="78.3504" height="78.3503" filterUnits="userSpaceOnUse" color-interpolation-filters="sRGB">
<feFlood flood-opacity="0" result="BackgroundImageFix"/>
<feColorMatrix in="SourceAlpha" type="matrix" values="0 0 0 0 0 0 0 0 0 0 0 0 0 0 0 0 0 0 127 0" result="hardAlpha"/>
<feOffset/>
<feGaussianBlur stdDeviation="3.69028"/>
<feColorMatrix type="matrix" values="0 0 0 0 0.941176 0 0 0 0 0.72549 0 0 0 0 0.0431373 0 0 0 0.5 0"/>
<feBlend mode="normal" in2="BackgroundImageFix" result="effect1_dropShadow_967_76349"/>
<feBlend mode="normal" in="SourceGraphic" in2="effect1_dropShadow_967_76349" result="shape"/>
</filter>
<linearGradient id="paint0_linear_967_76349" x1="177.701" y1="90.395" x2="220.173" y2="90.395" gradientUnits="userSpaceOnUse">
<stop stop-color="#F0B90B"/>
<stop offset="1" stop-color="#F8D33A"/>
</linearGradient>
<linearGradient id="paint1_linear_967_76349" x1="177.701" y1="125.132" x2="220.173" y2="125.132" gradientUnits="userSpaceOnUse">
<stop stop-color="#F0B90B"/>
<stop offset="1" stop-color="#F8D33A"/>
</linearGradient>
<linearGradient id="paint2_linear_967_76349" x1="31.7946" y1="0" x2="31.7946" y2="63.5892" gradientUnits="userSpaceOnUse">
<stop offset="0.333333" stop-color="#F0B90B"/>
<stop offset="1" stop-color="#FBDA3C"/>
</linearGradient>
<linearGradient id="paint3_linear_967_76349" x1="74.7852" y1="159.575" x2="74.7852" y2="141.42" gradientUnits="userSpaceOnUse">
<stop stop-color="#1E2026"/>
<stop offset="1" stop-color="#76808F"/>
</linearGradient>
<linearGradient id="paint4_linear_967_76349" x1="74.7804" y1="163.609" x2="74.7804" y2="178.738" gradientUnits="userSpaceOnUse">
<stop stop-color="#1E2026"/>
<stop offset="1" stop-color="#76808F"/>
</linearGradient>
<linearGradient id="paint5_linear_967_76349" x1="74.7804" y1="163.609" x2="74.7804" y2="178.738" gradientUnits="userSpaceOnUse">
<stop stop-color="#1E2026"/>
<stop offset="1" stop-color="#76808F"/>
</linearGradient>
<linearGradient id="paint6_linear_967_76349" x1="325" y1="49.1591" x2="325" y2="63.5041" gradientUnits="userSpaceOnUse">
<stop stop-color="#929AA5"/>
<stop offset="1" stop-color="#76808F"/>
</linearGradient>
<linearGradient id="paint7_linear_967_76349" x1="311.514" y1="62.1014" x2="304.857" y2="62.1014" gradientUnits="userSpaceOnUse">
<stop stop-color="#474D57"/>
<stop offset="1" stop-color="#0B0E11"/>
</linearGradient>
<linearGradient id="paint8_linear_967_76349" x1="308.143" y1="50.5473" x2="308.143" y2="63.5041" gradientUnits="userSpaceOnUse">
<stop stop-color="#929AA5"/>
<stop offset="1" stop-color="#76808F"/>
</linearGradient>
<linearGradient id="paint9_linear_967_76349" x1="341.857" y1="50.5473" x2="341.857" y2="63.5041" gradientUnits="userSpaceOnUse">
<stop stop-color="#929AA5"/>
<stop offset="1" stop-color="#76808F"/>
</linearGradient>
<linearGradient id="paint10_linear_967_76349" x1="325" y1="46.3827" x2="325" y2="33.426" gradientUnits="userSpaceOnUse">
<stop offset="0.333333" stop-color="#F0B90B"/>
<stop offset="1" stop-color="#FBDA3C"/>
</linearGradient>
<linearGradient id="paint11_linear_967_76349" x1="325" y1="63.5041" x2="325" y2="49.1591" gradientUnits="userSpaceOnUse">
<stop offset="0.333333" stop-color="#F0B90B"/>
<stop offset="1" stop-color="#FBDA3C"/>
</linearGradient>
<linearGradient id="paint12_linear_967_76349" x1="3.85417" y1="0" x2="3.85417" y2="10.7917" gradientUnits="userSpaceOnUse">
<stop stop-color="#F0B90B"/>
<stop offset="1" stop-color="#F8D33A"/>
</linearGradient>
<linearGradient id="paint13_linear_967_76349" x1="3.85417" y1="0" x2="3.85417" y2="12.3333" gradientUnits="userSpaceOnUse">
<stop stop-color="#F0B90B"/>
<stop offset="1" stop-color="#F8D33A"/>
</linearGradient>
<linearGradient id="paint14_linear_967_76349" x1="283.5" y1="87.9583" x2="283.5" y2="74.0833" gradientUnits="userSpaceOnUse">
<stop stop-color="#F0B90B"/>
<stop offset="1" stop-color="#F8D33A"/>
</linearGradient>
<linearGradient id="paint15_linear_967_76349" x1="225.25" y1="88" x2="225.25" y2="188.95" gradientUnits="userSpaceOnUse">
<stop stop-color="#F0B90B"/>
<stop offset="1" stop-color="#F8D33A"/>
</linearGradient>
<linearGradient id="paint16_linear_967_76349" x1="176.976" y1="22.4521" x2="176.976" y2="124" gradientUnits="userSpaceOnUse">
<stop stop-color="#F0B90B"/>
<stop offset="1" stop-color="#F8D33A"/>
</linearGradient>
<linearGradient id="paint17_linear_967_76349" x1="254.083" y1="199" x2="254.083" y2="171" gradientUnits="userSpaceOnUse">
<stop stop-color="#F0B90B"/>
<stop offset="1" stop-color="#F8D33A"/>
</linearGradient>
<linearGradient id="paint18_linear_967_76349" x1="122" y1="50" x2="122" y2="8" gradientUnits="userSpaceOnUse">
<stop stop-color="#F0B90B"/>
<stop offset="1" stop-color="#F8D33A"/>
</linearGradient>
<linearGradient id="paint19_linear_967_76349" x1="122" y1="144.265" x2="122" y2="129.687" gradientUnits="userSpaceOnUse">
<stop stop-color="#F0B90B"/>
<stop offset="1" stop-color="#F8D33A"/>
</linearGradient>
</defs>
</svg>
