<svg width="404" height="228" viewBox="0 0 404 228" fill="none" xmlns="http://www.w3.org/2000/svg">
<g clip-path="url(#clip0_967_76425)">
<path d="M218 75.1946L243.5 94.7362L243.5 100.32L192.5 100.32L192.5 94.7362L218 75.1946Z" fill="url(#paint0_linear_967_76425)"/>
<path d="M192.5 126.84L192.5 124.049L243.5 124.049L243.5 126.84L192.5 126.84Z" fill="#76808F"/>
<ellipse cx="218" cy="89.8508" rx="7.08333" ry="6.97917" fill="#76808F"/>
<rect x="198.167" y="100.32" width="5.66667" height="23.7292" fill="#AEB4BC"/>
<rect x="209.5" y="100.32" width="5.66667" height="23.7292" fill="#AEB4BC"/>
<rect x="220.833" y="100.32" width="5.66667" height="23.7292" fill="#AEB4BC"/>
<rect x="232.167" y="100.32" width="5.66666" height="23.7292" fill="#AEB4BC"/>
<path d="M218 93.3404L214.458 89.8508L218 86.3613L221.542 89.8508L218 93.3404Z" fill="white"/>
<path d="M192.5 126.84L192.5 132.424L243.5 132.424L243.5 126.84L192.5 126.84Z" fill="url(#paint1_linear_967_76425)"/>
<path d="M244.208 109.044L245.979 107.299L247.75 109.044L245.979 110.788L244.208 109.044Z" fill="#E6E8EA"/>
<path d="M200.292 77.6373L202.771 75.1946L205.25 77.6373L202.771 80.08L200.292 77.6373Z" fill="#E6E8EA"/>
<path d="M188.25 119.163L189.667 117.768L191.083 119.163L189.667 120.559L188.25 119.163Z" fill="#E6E8EA"/>
<path opacity="0.9" d="M195.5 24.0071L65 24.0071L42 47.5V65.0071" stroke="url(#paint2_linear_967_76425)" stroke-width="8"/>
<path fill-rule="evenodd" clip-rule="evenodd" d="M280 93.5522L292.4 105.952L292.4 97.784V97.0071H335.969H337.626L338.798 95.8355L350.777 83.8564L362.756 71.8773L363.928 70.7057V69.0489V51.0071H355.928V67.392L345.12 78.1996L334.312 89.0071H292.4V88.6612L292.4 81.0071L280 93.5522Z" fill="url(#paint3_linear_967_76425)"/>
<path opacity="0.9" d="M196 203.007L63.5 203.007L42 182.507V162.007" stroke="url(#paint4_linear_967_76425)" stroke-width="8"/>
<ellipse cx="360" cy="199.507" rx="26" ry="25.5" fill="#2B2F36"/>
<path d="M350.083 209.859L369.917 209.859V202.749C369.917 200.434 368.067 198.557 365.785 198.557L363.581 198.557L360 202.19L356.419 198.557L354.215 198.557C351.933 198.557 350.083 200.434 350.083 202.749L350.083 209.859Z" fill="url(#paint5_linear_967_76425)"/>
<path d="M344.062 208.765H349.375V199.65L347.527 199.65C345.614 199.65 344.063 201.283 344.063 203.296L344.062 208.765Z" fill="url(#paint6_linear_967_76425)"/>
<path d="M344.062 209.859H349.375V199.65L347.527 199.65C345.614 199.65 344.063 201.283 344.063 203.296L344.062 209.859Z" fill="#E6E8EA"/>
<path d="M344.062 209.859H349.375V199.65L347.527 199.65C345.614 199.65 344.063 201.283 344.063 203.296L344.062 209.859Z" fill="url(#paint7_linear_967_76425)"/>
<path d="M375.938 209.859H370.625V199.65L372.473 199.65C374.386 199.65 375.937 201.283 375.937 203.296L375.938 209.859Z" fill="url(#paint8_linear_967_76425)"/>
<path d="M356.494 194.874C354.557 192.881 354.558 189.649 356.494 187.656C358.43 185.663 361.57 185.663 363.506 187.656C365.442 189.649 365.442 192.881 363.506 194.874C361.57 196.868 358.43 196.867 356.494 194.874Z" fill="url(#paint9_linear_967_76425)"/>
<path opacity="0.3" d="M373.458 188.531L374.698 189.807L375.937 188.531L374.698 187.255L373.458 188.531Z" fill="#AEB4BC"/>
<path opacity="0.3" d="M351.854 183.609L352.917 184.703L353.979 183.609L352.917 182.515L351.854 183.609Z" fill="#AEB4BC"/>
<path opacity="0.3" d="M343.708 196.734L344.417 197.463L345.125 196.734L344.417 196.005L343.708 196.734Z" fill="#AEB4BC"/>
<path opacity="0.3" d="M348.184 196.502C346.939 195.22 346.939 193.143 348.184 191.862C349.428 190.58 351.447 190.58 352.691 191.862C353.936 193.143 353.936 195.221 352.691 196.502C351.447 197.783 349.428 197.783 348.184 196.502Z" fill="#AEB4BC"/>
<path opacity="0.3" d="M367.309 196.502C366.064 195.22 366.064 193.143 367.309 191.862C368.553 190.58 370.572 190.58 371.816 191.862C373.061 193.143 373.061 195.221 371.816 196.502C370.572 197.783 368.553 197.783 367.309 196.502Z" fill="#AEB4BC"/>
<path d="M360 202.203L356.458 198.557V209.859H363.542V198.557L360 202.203Z" fill="url(#paint10_linear_967_76425)"/>
<ellipse opacity="0.3" cx="360" cy="26.5071" rx="26" ry="25.5" fill="#929AA5"/>
<path d="M350.083 36.8588L369.917 36.8588V29.7494C369.917 27.4338 368.067 25.5567 365.785 25.5567L363.581 25.5567L360 29.1904L356.419 25.5567L354.215 25.5567C351.933 25.5567 350.083 27.4338 350.083 29.7494L350.083 36.8588Z" fill="url(#paint11_linear_967_76425)"/>
<path d="M344.062 35.765H349.375V26.6505L347.527 26.6505C345.614 26.6505 344.063 28.2827 344.063 30.2963L344.062 35.765Z" fill="url(#paint12_linear_967_76425)"/>
<path d="M344.062 36.8588H349.375V26.6505L347.527 26.6505C345.614 26.6505 344.063 28.2827 344.063 30.2963L344.062 36.8588Z" fill="#E6E8EA"/>
<path d="M344.062 36.8588H349.375V26.6505L347.527 26.6505C345.614 26.6505 344.063 28.2827 344.063 30.2963L344.062 36.8588Z" fill="url(#paint13_linear_967_76425)"/>
<path d="M375.938 36.8588H370.625V26.6505L372.473 26.6505C374.386 26.6505 375.937 28.2827 375.937 30.2963L375.938 36.8588Z" fill="url(#paint14_linear_967_76425)"/>
<path d="M356.494 21.8742C354.557 19.8808 354.558 16.6491 356.494 14.6558C358.43 12.6625 361.57 12.6625 363.506 14.6558C365.442 16.6492 365.442 19.881 363.506 21.8743C361.57 23.8676 358.43 23.8675 356.494 21.8742Z" fill="url(#paint15_linear_967_76425)"/>
<path opacity="0.3" d="M373.458 15.5307L374.698 16.8067L375.937 15.5307L374.698 14.2546L373.458 15.5307Z" fill="#AEB4BC"/>
<path opacity="0.3" d="M351.854 10.6088L352.917 11.7025L353.979 10.6088L352.917 9.51505L351.854 10.6088Z" fill="#AEB4BC"/>
<path opacity="0.3" d="M343.708 23.7338L344.417 24.463L345.125 23.7338L344.417 23.0046L343.708 23.7338Z" fill="#AEB4BC"/>
<path opacity="0.3" d="M348.184 23.5018C346.939 22.2204 346.939 20.1429 348.184 18.8615C349.428 17.5801 351.447 17.5801 352.691 18.8615C353.936 20.1429 353.936 22.2205 352.691 23.5019C351.447 24.7833 349.428 24.7833 348.184 23.5018Z" fill="#AEB4BC"/>
<path opacity="0.3" d="M367.309 23.5018C366.064 22.2204 366.064 20.1429 367.309 18.8615C368.553 17.5801 370.572 17.5801 371.816 18.8615C373.061 20.1429 373.061 22.2205 371.816 23.5019C370.572 24.7833 368.553 24.7833 367.309 23.5018Z" fill="#AEB4BC"/>
<path d="M360 29.2025L356.458 25.5567V36.8588H363.542V25.5567L360 29.2025Z" fill="url(#paint16_linear_967_76425)"/>
<g filter="url(#filter0_d_967_76425)">
<circle r="42.2054" transform="matrix(1 0 0 -1 59.2054 113.212)" fill="url(#paint17_linear_967_76425)"/>
</g>
<rect x="51.1721" y="112.967" width="16.0663" height="20.0828" fill="#171B1F"/>
<path d="M59.2037 83.5121C65.8585 83.5123 71.2532 88.9075 71.2532 95.5623C71.2532 102.217 65.8586 107.612 59.2037 107.612C52.549 107.612 47.1541 102.217 47.1541 95.5618C47.1541 88.9069 52.5489 83.5121 59.2037 83.5121Z" fill="url(#paint18_linear_967_76425)"/>
<path d="M51.172 112.967H45.8166C39.9011 112.967 35.1057 117.762 35.1057 123.678V133.05H51.172V112.967Z" fill="url(#paint19_linear_967_76425)"/>
<path d="M67.2382 133.05H83.3045V123.678C83.3045 117.762 78.5091 112.967 72.5936 112.967H67.2382V133.05Z" fill="url(#paint20_linear_967_76425)"/>
<path d="M67.2385 112.967L67.2385 119.661L60.5443 112.967L67.2385 112.967Z" fill="#76808E"/>
<path d="M51.1721 112.967L51.1721 119.661L57.8664 112.967L51.1721 112.967Z" fill="#76808E"/>
<rect x="57.8672" y="112.967" width="2.67771" height="20.0828" fill="#76808E"/>
<path fill-rule="evenodd" clip-rule="evenodd" d="M118.472 107.914L106.073 95.5142L118.472 82.9691L118.472 90.6231L183.002 90.6254L183 99.7459L118.472 99.746L118.472 107.914Z" fill="url(#paint21_linear_967_76425)"/>
<path fill-rule="evenodd" clip-rule="evenodd" d="M317.964 215.088L329.5 203.552L317.964 191.881L317.964 199.002L230.498 199.004L230.5 207.489L317.964 207.489L317.964 215.088Z" fill="url(#paint22_linear_967_76425)"/>
<path opacity="0.5" fill-rule="evenodd" clip-rule="evenodd" d="M118.472 140.914L106.073 128.514L118.472 115.969L118.472 123.623L186.052 123.625L186.05 132.746L118.472 132.746L118.472 140.914Z" fill="url(#paint23_linear_967_76425)"/>
<path opacity="0.3" fill-rule="evenodd" clip-rule="evenodd" d="M347.406 111.001V106.847L345 104.232L349.812 95.6984L353.227 96.5249L356.741 94.4477L357.749 91.0071H367.374L368.382 94.4477L371.896 96.5249L375.311 95.6984L380.123 104.232L377.717 106.847V111.001L380.123 113.615L375.311 122.149L371.897 121.323L368.382 123.4L367.374 126.84H357.749L356.741 123.4L353.227 121.323L349.812 122.149L345 113.615L347.406 111.001ZM355.562 108.924C355.562 104.966 358.696 101.757 362.562 101.757C366.428 101.757 369.562 104.966 369.562 108.924C369.562 112.882 366.428 116.09 362.562 116.09C358.696 116.09 355.562 112.882 355.562 108.924Z" fill="#929AA5"/>
<ellipse cx="362.562" cy="108.924" rx="2.1875" ry="2.23958" fill="#F7CD2F"/>
<path fill-rule="evenodd" clip-rule="evenodd" d="M280 126.552L292.4 138.952L292.4 130.784V130.007H334.312L345.12 140.815L355.928 151.622V174.007H363.928V149.965V148.308L362.756 147.137L350.777 135.158L338.798 123.179L337.626 122.007H335.969H292.4V121.661L292.4 114.007L280 126.552Z" fill="url(#paint24_linear_967_76425)"/>
<rect opacity="0.3" x="223.595" y="213.028" width="20.5955" height="20.5955" transform="rotate(-180 223.595 213.028)" stroke="#929AA5" stroke-width="4.38176" stroke-linejoin="round"/>
<path d="M207.93 197.261L215.26 204.591L228.514 191.337" stroke="url(#paint25_linear_967_76425)" stroke-width="6.57264"/>
<rect opacity="0.3" x="223.595" y="33.0276" width="20.5955" height="20.5955" transform="rotate(-180 223.595 33.0276)" stroke="#929AA5" stroke-width="4.38176" stroke-linejoin="round"/>
<path d="M207.93 17.261L215.26 24.5906L228.514 11.3367" stroke="url(#paint26_linear_967_76425)" stroke-width="6.57264"/>
<path fill-rule="evenodd" clip-rule="evenodd" d="M315.6 11.2163L328 23.616L315.6 36.1611L315.6 28.507L231 28.5025L231.002 19.3821L315.6 19.3842L315.6 11.2163Z" fill="url(#paint27_linear_967_76425)"/>
<path fill-rule="evenodd" clip-rule="evenodd" d="M161 109.507C161 78.8553 185.848 54.0071 216.5 54.0071V70.0101C216.334 70.0081 216.167 70.0071 216 70.0071C193.909 70.0071 176 87.9157 176 110.007C176 132.098 193.909 150.007 216 150.007C227.3 150.007 237.506 145.321 244.78 137.787L255.744 148.752C245.701 158.795 231.826 165.007 216.5 165.007C185.848 165.007 161 140.159 161 109.507Z" fill="url(#paint28_linear_967_76425)"/>
<path fill-rule="evenodd" clip-rule="evenodd" d="M216.5 54.0071C247.152 54.0071 272 78.8553 272 109.507C272 124.833 265.788 138.708 255.744 148.752L244.78 137.787C251.727 130.592 256 120.798 256 110.007C256 88.0826 238.361 70.278 216.5 70.0102V54.0071Z" fill="#76808F"/>
<rect width="6.875" height="9.625" transform="matrix(1 0 0 -1 303.75 172.757)" fill="url(#paint29_linear_967_76425)"/>
<path d="M303.75 172.757H310.625V176.882H303.75V172.757Z" fill="#76808F"/>
<rect width="6.875" height="11" transform="matrix(1 0 0 -1 324.375 170.007)" fill="url(#paint30_linear_967_76425)"/>
<path d="M314.062 163.132H320.938V150.757H314.062V163.132Z" fill="url(#paint31_linear_967_76425)"/>
<path d="M314.062 176.882H320.938V163.132H314.062V176.882Z" fill="#76808F"/>
<path d="M324.375 176.882H331.25V170.007H324.375V176.882Z" fill="#76808F"/>
<path d="M304.667 79.3404H311.333V75.3404H304.667V79.3404Z" fill="url(#paint32_linear_967_76425)"/>
<path d="M314.667 82.0071H321.333V75.3404H314.667V82.0071Z" fill="#76808F"/>
<path d="M304.667 82.0071H311.333V79.3404H304.667V82.0071Z" fill="#76808F"/>
<path d="M314.667 64.6737H321.333V75.3404H314.667V64.6737Z" fill="url(#paint33_linear_967_76425)"/>
<path d="M324.667 70.0071H331.333V56.6737H324.667V70.0071Z" fill="url(#paint34_linear_967_76425)"/>
<path d="M324.667 82.0071H331.333V70.0071H324.667V82.0071Z" fill="#76808F"/>
<path d="M137 11L152 24.5L137 38L137 11Z" fill="url(#paint35_linear_967_76425)"/>
<path d="M137 189L152 203.5L137 218L137 189Z" fill="#757C88"/>
<path fill-rule="evenodd" clip-rule="evenodd" d="M83.2383 182.272C87.2637 182.272 90.5269 179.009 90.5269 174.983C90.5269 170.958 87.2637 167.695 83.2383 167.695C79.2129 167.695 75.9497 170.958 75.9497 174.983C75.9497 179.009 79.2129 182.272 83.2383 182.272ZM83.2383 171.744L79.9989 174.983L83.2383 178.223L86.4777 174.983L83.2383 171.744Z" fill="url(#paint36_linear_967_76425)"/>
<path opacity="0.3" fill-rule="evenodd" clip-rule="evenodd" d="M69.4306 173.438V177.223L67.2383 179.605L71.6228 187.38L74.7336 186.627L77.9352 188.519L78.8537 191.654H87.6228L88.5413 188.519L91.743 186.627L94.8537 187.38L99.2383 179.605L97.046 177.223V173.438L99.2383 171.056L94.8537 163.281L91.7429 164.034L88.5413 162.142L87.6228 159.007H78.8537L77.9352 162.142L74.7336 164.034L71.6228 163.281L67.2383 171.056L69.4306 173.438ZM83.2383 185.007C88.7611 185.007 93.2383 180.53 93.2383 175.007C93.2383 169.484 88.7611 165.007 83.2383 165.007C77.7154 165.007 73.2383 169.484 73.2383 175.007C73.2383 180.53 77.7154 185.007 83.2383 185.007Z" fill="#929AA5"/>
<path fill-rule="evenodd" clip-rule="evenodd" d="M83.2383 57.9483C87.2637 57.9483 90.5269 54.6851 90.5269 50.6597C90.5269 46.6344 87.2637 43.3712 83.2383 43.3712C79.2129 43.3712 75.9497 46.6344 75.9497 50.6597C75.9497 54.6851 79.2129 57.9483 83.2383 57.9483ZM83.2383 47.4204L79.9989 50.6597L83.2383 53.8991L86.4777 50.6597L83.2383 47.4204Z" fill="url(#paint37_linear_967_76425)"/>
<path opacity="0.3" fill-rule="evenodd" clip-rule="evenodd" d="M69.4306 49.1146V52.8995L67.2383 55.2812L71.6228 63.0563L74.7336 62.3034L77.9352 64.1959L78.8537 67.3305H87.6228L88.5413 64.1959L91.743 62.3034L94.8537 63.0563L99.2383 55.2812L97.046 52.8995V49.1146L99.2383 46.7329L94.8537 38.9578L91.7429 39.7108L88.5413 37.8183L87.6228 34.6837H78.8537L77.9352 37.8183L74.7336 39.7108L71.6228 38.9578L67.2383 46.7329L69.4306 49.1146ZM83.2383 60.6838C88.7611 60.6838 93.2383 56.2066 93.2383 50.6838C93.2383 45.161 88.7611 40.6838 83.2383 40.6838C77.7154 40.6838 73.2383 45.161 73.2383 50.6838C73.2383 56.2066 77.7154 60.6838 83.2383 60.6838Z" fill="#929AA5"/>
</g>
<defs>
<filter id="filter0_d_967_76425" x="9.61944" y="63.6265" width="99.172" height="99.1719" filterUnits="userSpaceOnUse" color-interpolation-filters="sRGB">
<feFlood flood-opacity="0" result="BackgroundImageFix"/>
<feColorMatrix in="SourceAlpha" type="matrix" values="0 0 0 0 0 0 0 0 0 0 0 0 0 0 0 0 0 0 127 0" result="hardAlpha"/>
<feOffset/>
<feGaussianBlur stdDeviation="3.69028"/>
<feColorMatrix type="matrix" values="0 0 0 0 0.941176 0 0 0 0 0.72549 0 0 0 0 0.0431373 0 0 0 0.5 0"/>
<feBlend mode="normal" in2="BackgroundImageFix" result="effect1_dropShadow_967_76425"/>
<feBlend mode="normal" in="SourceGraphic" in2="effect1_dropShadow_967_76425" result="shape"/>
</filter>
<linearGradient id="paint0_linear_967_76425" x1="192.5" y1="87.7571" x2="243.5" y2="87.7571" gradientUnits="userSpaceOnUse">
<stop stop-color="#F0B90B"/>
<stop offset="1" stop-color="#F8D33A"/>
</linearGradient>
<linearGradient id="paint1_linear_967_76425" x1="192.5" y1="129.632" x2="243.5" y2="129.632" gradientUnits="userSpaceOnUse">
<stop stop-color="#F0B90B"/>
<stop offset="1" stop-color="#F8D33A"/>
</linearGradient>
<linearGradient id="paint2_linear_967_76425" x1="195" y1="54.5" x2="22" y2="68.5" gradientUnits="userSpaceOnUse">
<stop stop-color="#F8D33A" stop-opacity="0"/>
<stop offset="0.46875" stop-color="#FDCB2E"/>
<stop offset="0.916667" stop-color="#F8D33A" stop-opacity="0"/>
</linearGradient>
<linearGradient id="paint3_linear_967_76425" x1="321.964" y1="105.952" x2="321.964" y2="51.0071" gradientUnits="userSpaceOnUse">
<stop stop-color="#FFC91F"/>
<stop offset="1" stop-color="#F8D33A" stop-opacity="0"/>
</linearGradient>
<linearGradient id="paint4_linear_967_76425" x1="192" y1="183" x2="58.9568" y2="181.679" gradientUnits="userSpaceOnUse">
<stop stop-color="#76808F" stop-opacity="0.04"/>
<stop offset="0.276042" stop-color="#ACB6C5" stop-opacity="0.33"/>
<stop offset="0.796875" stop-color="#ACB6C5" stop-opacity="0.75"/>
<stop offset="1" stop-color="#76808F" stop-opacity="0.24"/>
</linearGradient>
<linearGradient id="paint5_linear_967_76425" x1="360" y1="198.557" x2="360" y2="209.859" gradientUnits="userSpaceOnUse">
<stop stop-color="#929AA5"/>
<stop offset="1" stop-color="#76808F"/>
</linearGradient>
<linearGradient id="paint6_linear_967_76425" x1="349.375" y1="208.754" x2="344.13" y2="208.754" gradientUnits="userSpaceOnUse">
<stop stop-color="#474D57"/>
<stop offset="1" stop-color="#0B0E11"/>
</linearGradient>
<linearGradient id="paint7_linear_967_76425" x1="346.719" y1="199.65" x2="346.719" y2="209.859" gradientUnits="userSpaceOnUse">
<stop stop-color="#929AA5"/>
<stop offset="1" stop-color="#76808F"/>
</linearGradient>
<linearGradient id="paint8_linear_967_76425" x1="373.281" y1="199.65" x2="373.281" y2="209.859" gradientUnits="userSpaceOnUse">
<stop stop-color="#929AA5"/>
<stop offset="1" stop-color="#76808F"/>
</linearGradient>
<linearGradient id="paint9_linear_967_76425" x1="360" y1="196.369" x2="360" y2="186.161" gradientUnits="userSpaceOnUse">
<stop offset="0.333333" stop-color="#F0B90B"/>
<stop offset="1" stop-color="#FBDA3C"/>
</linearGradient>
<linearGradient id="paint10_linear_967_76425" x1="360" y1="209.859" x2="360" y2="198.557" gradientUnits="userSpaceOnUse">
<stop offset="0.333333" stop-color="#F0B90B"/>
<stop offset="1" stop-color="#FBDA3C"/>
</linearGradient>
<linearGradient id="paint11_linear_967_76425" x1="360" y1="25.5567" x2="360" y2="36.8588" gradientUnits="userSpaceOnUse">
<stop stop-color="#929AA5"/>
<stop offset="1" stop-color="#76808F"/>
</linearGradient>
<linearGradient id="paint12_linear_967_76425" x1="349.375" y1="35.7536" x2="344.13" y2="35.7536" gradientUnits="userSpaceOnUse">
<stop stop-color="#474D57"/>
<stop offset="1" stop-color="#0B0E11"/>
</linearGradient>
<linearGradient id="paint13_linear_967_76425" x1="346.719" y1="26.6505" x2="346.719" y2="36.8588" gradientUnits="userSpaceOnUse">
<stop stop-color="#929AA5"/>
<stop offset="1" stop-color="#76808F"/>
</linearGradient>
<linearGradient id="paint14_linear_967_76425" x1="373.281" y1="26.6505" x2="373.281" y2="36.8588" gradientUnits="userSpaceOnUse">
<stop stop-color="#929AA5"/>
<stop offset="1" stop-color="#76808F"/>
</linearGradient>
<linearGradient id="paint15_linear_967_76425" x1="360" y1="23.3692" x2="360" y2="13.1609" gradientUnits="userSpaceOnUse">
<stop offset="0.333333" stop-color="#F0B90B"/>
<stop offset="1" stop-color="#FBDA3C"/>
</linearGradient>
<linearGradient id="paint16_linear_967_76425" x1="360" y1="36.8588" x2="360" y2="25.5567" gradientUnits="userSpaceOnUse">
<stop offset="0.333333" stop-color="#F0B90B"/>
<stop offset="1" stop-color="#FBDA3C"/>
</linearGradient>
<linearGradient id="paint17_linear_967_76425" x1="42.2054" y1="0" x2="42.2054" y2="84.4108" gradientUnits="userSpaceOnUse">
<stop offset="0.333333" stop-color="#F0B90B"/>
<stop offset="1" stop-color="#FBDA3C"/>
</linearGradient>
<linearGradient id="paint18_linear_967_76425" x1="59.1929" y1="107.612" x2="59.1929" y2="83.5121" gradientUnits="userSpaceOnUse">
<stop stop-color="#1E2026"/>
<stop offset="1" stop-color="#76808F"/>
</linearGradient>
<linearGradient id="paint19_linear_967_76425" x1="59.1865" y1="112.967" x2="59.1865" y2="133.05" gradientUnits="userSpaceOnUse">
<stop stop-color="#1E2026"/>
<stop offset="1" stop-color="#76808F"/>
</linearGradient>
<linearGradient id="paint20_linear_967_76425" x1="59.1865" y1="112.967" x2="59.1865" y2="133.05" gradientUnits="userSpaceOnUse">
<stop stop-color="#1E2026"/>
<stop offset="1" stop-color="#76808F"/>
</linearGradient>
<linearGradient id="paint21_linear_967_76425" x1="102.5" y1="80.3618" x2="155.5" y2="80.3618" gradientUnits="userSpaceOnUse">
<stop stop-color="#F0B90B"/>
<stop offset="1" stop-color="#F8D33A" stop-opacity="0"/>
</linearGradient>
<linearGradient id="paint22_linear_967_76425" x1="226" y1="203" x2="297.057" y2="224.593" gradientUnits="userSpaceOnUse">
<stop stop-color="#76808F" stop-opacity="0"/>
<stop offset="0.5" stop-color="#ACB6C5" stop-opacity="0.33"/>
<stop offset="1" stop-color="#ACB6C5" stop-opacity="0.75"/>
</linearGradient>
<linearGradient id="paint23_linear_967_76425" x1="114.875" y1="125.606" x2="185.857" y2="124.189" gradientUnits="userSpaceOnUse">
<stop stop-color="#929AA5"/>
<stop offset="0.536458" stop-color="#929AA5" stop-opacity="0"/>
</linearGradient>
<linearGradient id="paint24_linear_967_76425" x1="224.12" y1="145.219" x2="355" y2="145.5" gradientUnits="userSpaceOnUse">
<stop stop-color="#76808F" stop-opacity="0.17"/>
<stop offset="0.276042" stop-color="#ACB6C5" stop-opacity="0.33"/>
<stop offset="0.796875" stop-color="#ACB6C5" stop-opacity="0.75"/>
<stop offset="0.90625" stop-color="#76808F" stop-opacity="0.17"/>
</linearGradient>
<linearGradient id="paint25_linear_967_76425" x1="214.557" y1="190.634" x2="221.887" y2="197.964" gradientUnits="userSpaceOnUse">
<stop stop-color="#F0B90B"/>
<stop offset="1" stop-color="#F8D33A"/>
</linearGradient>
<linearGradient id="paint26_linear_967_76425" x1="214.557" y1="10.634" x2="221.887" y2="17.9637" gradientUnits="userSpaceOnUse">
<stop stop-color="#F0B90B"/>
<stop offset="1" stop-color="#F8D33A"/>
</linearGradient>
<linearGradient id="paint27_linear_967_76425" x1="302.601" y1="49.1604" x2="251.912" y2="-1.52822" gradientUnits="userSpaceOnUse">
<stop stop-color="#F0B90B"/>
<stop offset="1" stop-color="#F0B90B" stop-opacity="0"/>
</linearGradient>
<linearGradient id="paint28_linear_967_76425" x1="208.372" y1="54.0071" x2="208.372" y2="165.007" gradientUnits="userSpaceOnUse">
<stop stop-color="#F0B90B"/>
<stop offset="1" stop-color="#F8D33A"/>
</linearGradient>
<linearGradient id="paint29_linear_967_76425" x1="3.4375" y1="0" x2="3.4375" y2="9.625" gradientUnits="userSpaceOnUse">
<stop stop-color="#F0B90B"/>
<stop offset="1" stop-color="#F8D33A"/>
</linearGradient>
<linearGradient id="paint30_linear_967_76425" x1="3.4375" y1="0" x2="3.4375" y2="11" gradientUnits="userSpaceOnUse">
<stop stop-color="#F0B90B"/>
<stop offset="1" stop-color="#F8D33A"/>
</linearGradient>
<linearGradient id="paint31_linear_967_76425" x1="317.5" y1="163.132" x2="317.5" y2="150.757" gradientUnits="userSpaceOnUse">
<stop stop-color="#F0B90B"/>
<stop offset="1" stop-color="#F8D33A"/>
</linearGradient>
<linearGradient id="paint32_linear_967_76425" x1="308" y1="79.3404" x2="308" y2="75.3404" gradientUnits="userSpaceOnUse">
<stop stop-color="#F0B90B"/>
<stop offset="1" stop-color="#F8D33A"/>
</linearGradient>
<linearGradient id="paint33_linear_967_76425" x1="318" y1="75.3404" x2="318" y2="64.6737" gradientUnits="userSpaceOnUse">
<stop stop-color="#F0B90B"/>
<stop offset="1" stop-color="#F8D33A"/>
</linearGradient>
<linearGradient id="paint34_linear_967_76425" x1="328" y1="70.0071" x2="328" y2="56.6737" gradientUnits="userSpaceOnUse">
<stop stop-color="#F0B90B"/>
<stop offset="1" stop-color="#F8D33A"/>
</linearGradient>
<linearGradient id="paint35_linear_967_76425" x1="152" y1="24.5" x2="137" y2="24.5" gradientUnits="userSpaceOnUse">
<stop stop-color="#F0B90B"/>
<stop offset="1" stop-color="#F8D33A"/>
</linearGradient>
<linearGradient id="paint36_linear_967_76425" x1="83.2383" y1="182.272" x2="83.2383" y2="167.695" gradientUnits="userSpaceOnUse">
<stop stop-color="#F0B90B"/>
<stop offset="1" stop-color="#F8D33A"/>
</linearGradient>
<linearGradient id="paint37_linear_967_76425" x1="83.2383" y1="57.9483" x2="83.2383" y2="43.3712" gradientUnits="userSpaceOnUse">
<stop stop-color="#F0B90B"/>
<stop offset="1" stop-color="#F8D33A"/>
</linearGradient>
<clipPath id="clip0_967_76425">
<rect width="404" height="228" fill="white"/>
</clipPath>
</defs>
</svg>
