<svg width="464" height="262" viewBox="0 0 464 262" fill="none" xmlns="http://www.w3.org/2000/svg">
<g clip-path="url(#clip0_833_65856)">
<g opacity="0.65">
<path opacity="0.45" fill-rule="evenodd" clip-rule="evenodd" d="M360.131 134.9L373.238 142.467L373.318 142.421V142.513L373.401 142.56L373.318 142.608V148.726L399.46 163.843V128.786L360.131 106.043L360.131 134.9Z" fill="#AEB4BC"/>
<rect opacity="0.39" width="34.9082" height="44.8179" transform="matrix(4.36486e-08 1 0.865676 -0.500605 399.461 128.774)" fill="#5E6673"/>
</g>
<rect width="45.3871" height="44.9642" transform="matrix(0.866044 0.499967 -0.866044 0.499967 399.051 83.6272)" fill="url(#paint0_linear_833_65856)" fill-opacity="0.1"/>
<rect opacity="0.76" width="33.5648" height="33.6763" rx="16.7824" transform="matrix(0.866044 0.499967 -0.866044 0.499967 398.91 91.6765)" fill="#14151A"/>
<rect opacity="0.7" x="380.703" y="55.8416" width="36.674" height="29.5411" fill="url(#paint1_linear_833_65856)"/>
<path opacity="0.96" fill-rule="evenodd" clip-rule="evenodd" d="M383.126 115.743V84.9364C383.359 84.6703 383.6 84.4086 383.848 84.1516C392.438 75.242 406.416 75.1884 415.006 84.098C415.079 84.1739 415.152 84.2503 415.224 84.3271V116.132C415.135 116.227 415.045 116.322 414.954 116.416C414.936 116.435 414.918 116.453 414.9 116.472H383.798C383.797 116.471 383.797 116.47 383.796 116.47C383.566 116.231 383.343 115.989 383.126 115.743Z" fill="url(#paint2_linear_833_65856)"/>
<path fill-rule="evenodd" clip-rule="evenodd" d="M411.625 85.3188C404.558 81.2391 393.101 81.2391 386.034 85.3188C384.923 85.9602 383.986 86.6642 383.225 87.4112H380.739L380.739 92.4557C380.732 92.6224 380.732 92.7891 380.739 92.9557L380.739 93.1471H380.75C380.933 95.6717 382.695 98.1651 386.034 100.093L386.468 100.344C393.535 104.423 404.993 104.423 412.06 100.344C415.509 98.3523 417.275 95.7569 417.357 93.1471H417.36V87.4112H414.604C413.894 86.7573 413.046 86.1389 412.06 85.5698L411.625 85.3188Z" fill="#F0B90B"/>
<rect width="29.6352" height="29.973" rx="14.8176" transform="matrix(0.866044 0.499967 -0.866044 0.499967 399.197 72.5942)" fill="#F8D33A"/>
<rect width="23.6554" height="23.2602" rx="11.6301" transform="matrix(0.866044 0.499967 -0.866044 0.499967 398.705 75.9523)" fill="#F8D33A"/>
<g style="mix-blend-mode:soft-light">
<rect width="23.6554" height="23.2602" rx="11.6301" transform="matrix(0.866044 0.499967 -0.866044 0.499967 398.705 75.9523)" fill="url(#paint3_linear_833_65856)"/>
</g>
<rect width="10.2094" height="9.9967" transform="matrix(0.866025 -0.5 -0.858939 -0.512077 398.451 93.1936)" fill="#F0B90B"/>
<mask id="mask0_833_65856" style="mask-type:alpha" maskUnits="userSpaceOnUse" x="378" y="96" width="42" height="25">
<rect width="33.5648" height="33.6763" rx="16.7824" transform="matrix(0.866044 0.499967 -0.866044 0.499967 398.91 91.6766)" fill="url(#paint4_linear_833_65856)"/>
</mask>
<g mask="url(#mask0_833_65856)">
<path fill-rule="evenodd" clip-rule="evenodd" d="M411.206 118.989C404.141 114.911 392.687 114.911 385.622 118.989C384.511 119.63 383.575 120.334 382.814 121.081H380.328L380.328 126.127C380.322 126.291 380.322 126.455 380.328 126.62L380.328 126.814H380.34C380.523 129.338 382.284 131.83 385.622 133.757L386.057 134.008C393.121 138.086 404.576 138.086 411.64 134.008C415.089 132.017 416.854 129.423 416.936 126.814H416.939V121.081H414.184C413.474 120.427 412.626 119.809 411.64 119.24L411.206 118.989Z" fill="#F0B90B"/>
<rect width="29.6254" height="29.9632" rx="14.8127" transform="matrix(0.866068 0.499926 -0.866068 0.499926 398.78 106.27)" fill="#F8D33A"/>
<rect width="23.6476" height="23.2525" rx="11.6263" transform="matrix(0.866068 0.499926 -0.866068 0.499926 398.289 109.627)" fill="#F8D33A"/>
<g style="mix-blend-mode:soft-light">
<rect width="23.6476" height="23.2525" rx="11.6263" transform="matrix(0.866068 0.499926 -0.866068 0.499926 398.289 109.627)" fill="url(#paint5_linear_833_65856)"/>
</g>
<rect width="10.206" height="9.99339" transform="matrix(0.866049 -0.499959 -0.858964 -0.512036 398.034 126.861)" fill="#F0B90B"/>
</g>
<g style="mix-blend-mode:multiply" opacity="0.05">
<rect width="61.0409" height="45.109" transform="matrix(4.39505e-08 1 0.867175 -0.498003 399.165 67.5261)" fill="#76808F"/>
</g>
<rect opacity="0.08" width="61.0409" height="45.109" transform="matrix(-4.39505e-08 1 -0.867175 -0.498003 399.094 67.5261)" fill="url(#paint6_linear_833_65856)"/>
<g style="mix-blend-mode:multiply" opacity="0.12">
<rect width="61.0409" height="45.109" transform="matrix(4.39505e-08 1 0.867175 -0.498003 399.166 67.5261)" fill="url(#paint7_linear_833_65856)"/>
</g>
<g style="mix-blend-mode:screen" opacity="0.52">
<rect width="61.0409" height="45.109" transform="matrix(-4.39505e-08 1 -0.867175 -0.498003 399.094 67.5261)" fill="url(#paint8_linear_833_65856)"/>
</g>
<rect opacity="0.31" width="6.41222" height="45.6084" transform="matrix(-4.36486e-08 1 -0.865676 -0.500605 399.464 60.9949)" fill="#AEB4BC"/>
<rect opacity="0.31" width="6.46765" height="44.9918" transform="matrix(4.36486e-08 1 0.865676 -0.500605 399.509 61.0767)" fill="#5E6673"/>
<rect width="45.828" height="45.1386" transform="matrix(0.866044 0.499967 -0.866044 0.499967 399.098 15.5267)" fill="url(#paint9_linear_833_65856)" fill-opacity="0.1"/>
<path opacity="0.21" fill-rule="evenodd" clip-rule="evenodd" d="M235.318 256.209V222.559L95.4747 141.806L95.4747 175.456L235.318 256.209Z" fill="#AEB4BC"/>
<path opacity="0.11" d="M233.612 62.1404L373.325 142.796L235.298 222.479L95.5856 141.823L233.612 62.1404Z" fill="#CACED3"/>
<rect opacity="0.23" width="34.6731" height="159.207" transform="matrix(4.37114e-08 1 0.865988 -0.500065 235.371 222.271)" fill="#474D57"/>
<g opacity="0.8">
<mask id="mask1_833_65856" style="mask-type:alpha" maskUnits="userSpaceOnUse" x="142" y="8" width="222" height="161">
<rect width="201.059" height="92.3885" transform="matrix(0.92935 0.3692 0.3692 -0.92935 142.104 93.908)" fill="#D9D9D9"/>
</mask>
<g mask="url(#mask1_833_65856)">
<path fill-rule="evenodd" clip-rule="evenodd" d="M205.472 86.4904V77.0821H172.238V94.2856C169.975 95.7603 167.879 97.3168 165.96 98.9453H152.071V125.709H152.102C152.225 130.079 153.42 134.444 155.692 138.67C160.762 148.1 170.925 156.347 184.696 162.203C189.748 164.352 195.188 166.138 200.896 167.537L200.896 147.623C200.883 147.301 200.883 146.978 200.896 146.656L200.896 138.588H191.254C189.516 136.847 188.106 134.991 187.063 133.05C184.071 127.485 184.242 121.513 187.551 116.008C190.225 111.56 194.835 107.605 200.896 104.51V96.827C200.747 93.2583 202.272 89.6706 205.472 86.4904Z" fill="#76808F"/>
<path d="M232.225 145.794C215.121 145.794 198.466 142.634 184.695 136.778C170.925 130.921 160.762 122.675 155.692 113.244C150.622 103.814 150.913 93.6946 156.52 84.3662C162.127 75.0379 172.758 66.99 186.856 61.3997L205.453 77.0302C197.133 80.329 190.86 85.0781 187.551 90.5828C184.242 96.0875 184.071 102.059 187.062 107.624C190.054 113.189 196.051 118.055 204.177 121.511C212.303 124.967 222.132 126.832 232.225 126.832L232.225 145.794Z" fill="#AEB4BC"/>
</g>
</g>
<path opacity="0.43" fill-rule="evenodd" clip-rule="evenodd" d="M200.913 104.502L200.913 119.989C201.959 120.523 203.048 121.031 204.178 121.511C212.304 124.967 222.132 126.832 232.225 126.832V138.588H232.236V162.147H232.226V170.291C241.812 170.73 251.659 168.833 258.992 164.6C265.085 161.082 268.385 156.562 268.89 151.959V150.139C268.902 150.026 268.913 149.912 268.922 149.799C268.913 149.685 268.902 149.572 268.89 149.458V127.897L268.89 127.897V125.397L268.89 125.396V100.883L268.89 100.882V98.3818L268.89 98.3814L268.89 97.8398H268.845C268.253 102.359 264.963 106.783 258.976 110.24C245.687 117.911 224.142 117.911 210.853 110.24C204.866 106.783 201.577 102.359 200.984 97.8398H200.984C201.132 98.9703 201.449 100.095 201.935 101.2C201.282 99.8909 200.961 98.7709 200.961 97.8398V104.477C200.945 104.485 200.929 104.493 200.913 104.502Z" fill="url(#paint10_linear_833_65856)"/>
<path opacity="0.17" d="M258.976 110.24C245.687 117.912 224.142 117.912 210.853 110.24C197.565 102.569 197.565 90.1304 210.853 82.4589C224.142 74.7873 245.687 74.7873 258.976 82.4589C272.265 90.1305 272.265 102.569 258.976 110.24Z" fill="#CACED3"/>
<path d="M219.543 107.627L223.494 105.346C229.873 107.984 235.84 107.485 239.873 105.156C244.071 102.733 243.659 99.787 239.215 95.7006L246.046 91.7567C247.569 93.1584 247.98 94.4414 247.857 95.6531L254.977 95.8669C255.224 93.6336 254.071 91.4953 251.149 89.3808L255.018 87.1475L250.326 84.4391L246.458 86.6724C240.532 83.9639 234.811 83.9877 230.49 86.4823C226.498 88.7869 226.292 91.8042 231.189 96.1045L223.782 100.381C221.806 98.8604 220.983 97.1023 221.066 95.2492L213.987 95.0591C213.781 97.5537 214.851 100.12 218.637 102.733L214.851 104.919L219.543 107.627ZM236.334 89.6659C237.939 88.7394 239.955 88.6206 242.466 89.5947L236.375 93.1109C234.852 91.5666 234.77 90.5688 236.334 89.6659ZM233.741 102.139C232.177 103.042 229.996 103.256 227.527 102.448L234.029 98.6941C235.675 100.452 234.935 101.45 233.741 102.139Z" fill="url(#paint11_linear_833_65856)"/>
<path d="M304.873 146.032C307.506 152.38 307.609 158.99 305.173 165.365C302.738 171.739 297.827 177.712 290.812 182.831C283.797 187.951 274.86 192.084 264.675 194.92C254.49 197.755 243.323 199.219 232.016 199.201L232.102 181.514C238.772 181.525 245.359 180.661 251.366 178.989C257.374 177.316 262.646 174.878 266.784 171.858C270.922 168.838 273.819 165.315 275.255 161.555C276.692 157.795 276.631 153.896 275.078 150.151L304.873 146.032Z" fill="#D0980B"/>
<rect width="18.8584" height="25.9449" transform="matrix(-1 0 0 1 306.907 131.34)" fill="#D0980B"/>
<rect width="41.9336" height="22.3724" transform="matrix(-1 0 0 1 273.993 168.705)" fill="#D0980B"/>
<path d="M306.908 131.34H288.049V148.358L275.078 150.151C276.631 153.896 276.692 157.795 275.255 161.555C274.294 164.071 272.679 166.481 270.475 168.705H232.06V190.249L232.016 199.201C243.324 199.219 254.49 197.755 264.675 194.919C274.86 192.084 283.797 187.951 290.812 182.831C297.827 177.712 302.738 171.739 305.173 165.365C306.191 162.701 306.766 159.995 306.898 157.285H306.908V157.057C306.933 156.403 306.933 155.748 306.908 155.094V131.34Z" fill="#E9AC11"/>
<path d="M306.907 131.34H288.049V148.358L275.078 150.151C276.631 153.896 276.692 157.795 275.255 161.555C274.294 164.071 272.679 166.481 270.475 168.705H232.059V190.249L232.016 199.201C243.323 199.219 254.49 197.755 264.675 194.919C274.86 192.084 283.797 187.951 290.812 182.831C297.827 177.712 302.737 171.739 305.173 165.365C306.191 162.701 306.766 159.995 306.897 157.285H306.907V157.057C306.933 156.403 306.933 155.748 306.907 155.094V131.34Z" fill="url(#paint12_linear_833_65856)"/>
<path d="M304.872 122.313C307.506 128.661 307.609 135.271 305.173 141.646C302.737 148.02 297.827 153.992 290.812 159.112C283.796 164.231 274.86 168.365 264.675 171.2C254.49 174.036 243.323 175.5 232.016 175.481L232.102 157.795C238.771 157.805 245.359 156.942 251.366 155.269C257.374 153.597 262.646 151.159 266.784 148.139C270.922 145.119 273.818 141.596 275.255 137.836C276.692 134.076 276.631 130.176 275.078 126.432L304.872 122.313Z" fill="#F8D33A"/>
<path opacity="0.39" d="M304.873 122.312C307.506 128.661 307.609 135.271 305.173 141.646C302.738 148.02 297.827 153.992 290.812 159.112C283.797 164.231 274.86 168.364 264.675 171.2C254.49 174.036 243.323 175.5 232.016 175.481L232.102 157.794C238.772 157.805 245.359 156.942 251.366 155.269C257.374 153.597 262.646 151.158 266.784 148.139C270.922 145.119 273.819 141.596 275.255 137.836C276.692 134.076 276.631 130.176 275.078 126.432L304.873 122.312Z" fill="#FCEA9C"/>
<g opacity="0.8">
<mask id="mask2_833_65856" style="mask-type:alpha" maskUnits="userSpaceOnUse" x="105" y="93" width="162" height="142">
<rect x="142.104" y="93.908" width="133.756" height="98.4608" transform="rotate(21.6663 142.104 93.908)" fill="#D9D9D9"/>
</mask>
<g mask="url(#mask2_833_65856)">
<path d="M232.224 171.219C215.121 171.219 198.465 168.059 184.695 162.203C170.925 156.346 160.761 148.1 155.692 138.669C150.622 129.239 150.912 119.119 156.52 109.791C162.127 100.463 172.758 92.4149 186.856 86.8246L205.452 102.455C197.133 105.754 190.86 110.503 187.551 116.008C184.242 121.512 184.07 127.484 187.062 133.049C190.054 138.614 196.051 143.48 204.177 146.936C212.303 150.392 222.131 152.256 232.224 152.256L232.224 171.219Z" fill="#76808F"/>
<path d="M205.472 77.0816H172.237V94.2852C169.975 95.7598 167.878 97.3163 165.96 98.9448H152.071V125.708H152.102C152.225 130.078 153.42 134.443 155.692 138.669C160.762 148.1 170.925 156.346 184.695 162.203C198.466 168.059 215.121 171.219 232.225 171.219V162.147H232.236V138.588H191.253C189.515 136.847 188.106 134.99 187.062 133.049C184.071 127.484 184.242 121.513 187.551 116.008C190.857 110.508 197.123 105.762 205.433 102.463H205.472V77.0816Z" fill="#76808F"/>
<path d="M205.472 77.0816H172.237V94.2852C169.975 95.7598 167.878 97.3163 165.96 98.9448H152.071V125.708H152.102C152.225 130.078 153.42 134.443 155.692 138.669C160.762 148.1 170.925 156.346 184.695 162.203C198.466 168.059 215.121 171.219 232.225 171.219V162.147H232.236V138.588H191.253C189.515 136.847 188.106 134.99 187.062 133.049C184.071 127.484 184.242 121.513 187.551 116.008C190.857 110.508 197.123 105.762 205.433 102.463H205.472V77.0816Z" fill="url(#paint13_linear_833_65856)"/>
<path d="M232.224 145.793C215.12 145.793 198.465 142.634 184.695 136.777C170.924 130.921 160.761 122.674 155.691 113.244C150.622 103.813 150.912 93.694 156.519 84.3657C162.127 75.0373 172.757 66.9895 186.856 61.3992L205.452 77.0296C197.132 80.3285 190.859 85.0776 187.55 90.5823C184.241 96.087 184.07 102.059 187.062 107.623C190.053 113.188 196.051 118.055 204.177 121.511C212.303 124.967 222.131 126.831 232.224 126.831L232.224 145.793Z" fill="#AEB4BC"/>
</g>
</g>
<path d="M190.99 58.0181C200.943 54.2144 212.33 51.8429 224.197 51.1023C236.064 50.3617 248.065 51.2736 259.196 53.7615C270.327 56.2494 280.264 60.241 288.173 65.4018C296.082 70.5626 301.734 76.7425 304.655 83.4237L274.795 87.7747C273.079 83.8478 269.757 80.2157 265.108 77.1824C260.459 74.1492 254.619 71.8032 248.077 70.3409C241.535 68.8787 234.481 68.3427 227.506 68.778C220.532 69.2133 213.839 70.6071 207.989 72.8427L190.99 58.0181Z" fill="#2B2F36"/>
<path d="M191.063 34.4125L253.026 36.2866V43.666H272.119L274.046 58.2439C277.487 59.5861 280.733 61.0936 283.749 62.752L304.716 59.7132V83.594H304.676L304.711 83.6376L288.244 85.815L274.796 87.7746C273.079 83.8477 269.757 80.2156 265.108 77.1823C260.46 74.1491 254.62 71.8031 248.078 70.3408C241.535 68.8786 234.481 68.3426 227.507 68.7779C221.002 69.1838 214.744 70.4233 209.185 72.4017C208.834 72.5614 208.475 72.7244 208.106 72.8906L208.032 72.8264C208.018 72.8318 208.004 72.8372 207.99 72.8426L191.121 58.1319H191.063V58.0818L190.99 58.018C191.014 58.0087 191.039 57.9994 191.063 57.9901V34.4125Z" fill="#2B2F36"/>
<path fill-rule="evenodd" clip-rule="evenodd" d="M274.813 58.5472C277.971 59.812 280.959 61.2174 283.749 62.7521L304.716 59.7133V83.5941H304.676L304.712 83.6377L288.244 85.8151L274.813 87.7721V58.5472Z" fill="#929AA5"/>
<path d="M274.813 87.772L274.796 87.7746C273.079 83.8477 269.757 80.2156 265.108 77.1823C260.46 74.1491 254.62 71.8031 248.077 70.3408C241.535 68.8786 234.481 68.3426 227.507 68.7779C221.002 69.1838 214.743 70.4233 209.185 72.4017C208.853 72.553 208.513 72.7072 208.164 72.8643V37.6922H253.026V43.666H272.119L274.046 58.2439C274.303 58.3441 274.558 58.4452 274.813 58.5472V87.772Z" fill="#474D57"/>
<path opacity="0.59" d="M274.813 87.772L274.796 87.7746C273.079 83.8477 269.757 80.2156 265.108 77.1823C260.46 74.1491 254.62 71.8031 248.077 70.3408C241.535 68.8786 234.481 68.3426 227.507 68.7779C221.002 69.1838 214.743 70.4233 209.185 72.4017C208.853 72.553 208.513 72.7072 208.164 72.8643V37.6922H253.026V43.666H272.119L274.046 58.2439C274.303 58.3441 274.558 58.4452 274.813 58.5472V87.772Z" fill="url(#paint14_linear_833_65856)"/>
<path d="M190.99 34.3163C200.942 30.5126 212.329 28.1411 224.196 27.4005C236.063 26.6599 248.065 27.5717 259.196 30.0597C270.327 32.5476 280.263 36.5391 288.173 41.6999C296.082 46.8608 301.734 53.0406 304.655 59.7218L274.795 64.0728C273.078 60.146 269.756 56.5138 265.108 53.4806C260.459 50.4473 254.619 48.1013 248.077 46.6391C241.535 45.1768 234.481 44.6409 227.506 45.0762C220.531 45.5114 213.839 46.9053 207.989 49.1409L190.99 34.3163Z" fill="#76808F"/>
<g opacity="0.65">
<rect opacity="0.45" width="35.0565" height="45.4322" transform="matrix(-4.36486e-08 1 -0.865676 -0.500605 57.2183 122.548)" fill="#AEB4BC"/>
<rect opacity="0.39" width="34.9082" height="44.8179" transform="matrix(4.36486e-08 1 0.865676 -0.500605 57.2183 122.535)" fill="#5E6673"/>
</g>
<rect width="45.3871" height="44.9642" transform="matrix(0.866044 0.499967 -0.866044 0.499967 56.8085 77.3881)" fill="url(#paint15_linear_833_65856)" fill-opacity="0.1"/>
<rect opacity="0.76" width="33.5648" height="33.6763" rx="16.7824" transform="matrix(0.866044 0.499967 -0.866044 0.499967 56.6686 85.4378)" fill="#14151A"/>
<rect opacity="0.7" x="38.4615" y="49.6027" width="36.674" height="29.5411" fill="url(#paint16_linear_833_65856)"/>
<path opacity="0.96" fill-rule="evenodd" clip-rule="evenodd" d="M40.8839 109.504V78.6972C41.1175 78.4311 41.3582 78.1695 41.6059 77.9125C50.1957 69.0029 64.1743 68.9493 72.7641 77.8589C72.8374 77.9349 72.9101 78.0113 72.9821 78.0882V109.892C72.8932 109.988 72.8033 110.083 72.7124 110.177C72.6945 110.196 72.6765 110.214 72.6585 110.233H41.5563C41.5556 110.232 41.5549 110.231 41.5542 110.231C41.3246 109.992 41.1012 109.75 40.8839 109.504Z" fill="url(#paint17_linear_833_65856)"/>
<path fill-rule="evenodd" clip-rule="evenodd" d="M69.3839 75.8527C62.317 71.773 50.8594 71.773 43.7926 75.8527C42.6816 76.4941 41.7452 77.1982 40.9835 77.9451H38.4976L38.4976 82.9897C38.4907 83.1563 38.4907 83.323 38.4976 83.4897L38.4976 83.6811H38.5085C38.6923 86.2056 40.4536 88.6991 43.7926 90.6266L44.2274 90.8777C51.2943 94.9573 62.7519 94.9573 69.8187 90.8777C73.2683 88.8862 75.034 86.2908 75.1159 83.6811H75.1193V77.9451H72.3634C71.6527 77.2912 70.8045 76.6728 69.8187 76.1038L69.3839 75.8527Z" fill="#F0B90B"/>
<rect width="29.6352" height="29.973" rx="14.8176" transform="matrix(0.866044 0.499967 -0.866044 0.499967 56.955 63.1283)" fill="#F8D33A"/>
<rect width="23.6554" height="23.2602" rx="11.6301" transform="matrix(0.866044 0.499967 -0.866044 0.499967 56.4633 66.4865)" fill="#F8D33A"/>
<g style="mix-blend-mode:soft-light">
<rect width="23.6554" height="23.2602" rx="11.6301" transform="matrix(0.866044 0.499967 -0.866044 0.499967 56.4633 66.4865)" fill="url(#paint18_linear_833_65856)"/>
</g>
<rect width="10.2094" height="9.9967" transform="matrix(0.866025 -0.5 -0.858939 -0.512077 56.2091 83.7277)" fill="#F0B90B"/>
<mask id="mask3_833_65856" style="mask-type:alpha" maskUnits="userSpaceOnUse" x="36" y="90" width="42" height="25">
<rect width="33.5648" height="33.6763" rx="16.7824" transform="matrix(0.866044 0.499967 -0.866044 0.499967 56.6681 85.4379)" fill="url(#paint19_linear_833_65856)"/>
</mask>
<g mask="url(#mask3_833_65856)">
<path fill-rule="evenodd" clip-rule="evenodd" d="M68.9628 109.524C61.8981 105.446 50.4439 105.446 43.3792 109.524C42.2686 110.165 41.3326 110.869 40.5712 111.615H38.0857L38.0857 116.661C38.079 116.825 38.079 116.99 38.0857 117.154L38.0857 117.349H38.0967C38.2804 119.872 40.0413 122.365 43.3792 124.291L43.8139 124.542C50.8786 128.62 62.3328 128.62 69.3975 124.542C72.8461 122.552 74.6113 119.957 74.6931 117.349H74.6963V111.615H71.9413C71.2308 110.962 70.3829 110.343 69.3975 109.775L68.9628 109.524Z" fill="#F0B90B"/>
<rect width="29.6254" height="29.9632" rx="14.8127" transform="matrix(0.866068 0.499926 -0.866068 0.499926 56.538 96.8049)" fill="#F8D33A"/>
<rect width="23.6476" height="23.2525" rx="11.6263" transform="matrix(0.866068 0.499926 -0.866068 0.499926 56.0466 100.162)" fill="#F8D33A"/>
<g style="mix-blend-mode:soft-light">
<rect width="23.6476" height="23.2525" rx="11.6263" transform="matrix(0.866068 0.499926 -0.866068 0.499926 56.0466 100.162)" fill="url(#paint20_linear_833_65856)"/>
</g>
<rect width="10.206" height="9.99339" transform="matrix(0.866049 -0.499959 -0.858964 -0.512036 55.7924 117.396)" fill="#F0B90B"/>
</g>
<g style="mix-blend-mode:multiply" opacity="0.05">
<rect width="61.0409" height="45.109" transform="matrix(4.39505e-08 1 0.867175 -0.498003 56.9229 61.2867)" fill="#76808F"/>
</g>
<rect opacity="0.08" width="61.0409" height="45.109" transform="matrix(-4.39505e-08 1 -0.867175 -0.498003 56.851 61.2867)" fill="url(#paint21_linear_833_65856)"/>
<g style="mix-blend-mode:multiply" opacity="0.12">
<rect width="61.0409" height="45.109" transform="matrix(4.39505e-08 1 0.867175 -0.498003 56.923 61.2867)" fill="url(#paint22_linear_833_65856)"/>
</g>
<g style="mix-blend-mode:screen" opacity="0.49">
<rect width="61.0409" height="45.109" transform="matrix(-4.39505e-08 1 -0.867175 -0.498003 56.851 61.2867)" fill="url(#paint23_linear_833_65856)"/>
</g>
<rect opacity="0.31" width="6.41222" height="45.6084" transform="matrix(-4.36486e-08 1 -0.865676 -0.500605 57.2201 54.7554)" fill="#AEB4BC"/>
<rect opacity="0.31" width="6.46765" height="44.9918" transform="matrix(4.36486e-08 1 0.865676 -0.500605 57.2651 54.837)" fill="#5E6673"/>
<rect width="45.828" height="45.1386" transform="matrix(0.866044 0.499967 -0.866044 0.499967 56.854 9.28717)" fill="url(#paint24_linear_833_65856)" fill-opacity="0.1"/>
<rect width="14.2163" height="14.4256" transform="matrix(0.866044 0.499967 -0.866044 0.499967 397.071 190.131)" fill="#FCEA9C"/>
<rect opacity="0.76" width="25.2412" height="14.1188" transform="matrix(-4.37114e-08 1 -0.865988 -0.500065 396.884 204.372)" fill="#F8D33A"/>
<rect width="25.435" height="14.3258" transform="matrix(4.37114e-08 1 0.865988 -0.500065 396.884 204.294)" fill="#F0B90B"/>
<g style="mix-blend-mode:multiply" opacity="0.36">
<path d="M396.884 204.487L396.884 229.613L396.884 229.613V229.613L390.564 225.964V225.963L384.657 222.553L384.657 211.095L384.657 211.095L384.657 197.427L384.657 197.427L384.657 197.427L396.884 204.487Z" fill="#F8D33A"/>
</g>
<rect opacity="0.19" width="14.2143" height="14.1806" transform="matrix(0.866044 0.499967 -0.866044 0.499967 396.923 215.47)" fill="#FCEA9C"/>
<rect width="14.207" height="14.207" transform="matrix(0.866044 0.499967 -0.866044 0.499967 378.89 216.248)" fill="#929AA5"/>
<rect width="10.1659" height="14.207" transform="matrix(-4.37114e-08 1 -0.865988 -0.500065 378.888 230.425)" fill="url(#paint25_linear_833_65856)" fill-opacity="0.5"/>
<rect width="10.1545" height="14.207" transform="matrix(4.37114e-08 1 0.865988 -0.500065 378.873 230.447)" fill="#5E6673"/>
<rect width="14.2163" height="14.4256" transform="matrix(0.866044 0.499967 -0.866044 0.499967 183.577 174.9)" fill="#FCEA9C"/>
<g opacity="0.96">
<rect opacity="0.27" width="31.0653" height="14.3258" transform="matrix(4.37114e-08 1 0.865988 -0.500065 183.39 214.028)" fill="url(#paint26_linear_833_65856)"/>
<rect opacity="0.22" width="31.0653" height="14.3258" transform="matrix(-4.37114e-08 1 -0.865988 -0.500065 183.54 214.028)" fill="url(#paint27_linear_833_65856)"/>
</g>
<rect opacity="0.76" width="25.2412" height="14.1188" transform="matrix(-4.37114e-08 1 -0.865988 -0.500065 183.39 189.141)" fill="#F8D33A"/>
<rect width="25.435" height="14.3258" transform="matrix(4.37114e-08 1 0.865988 -0.500065 183.39 189.063)" fill="#F0B90B"/>
<g style="mix-blend-mode:multiply" opacity="0.36">
<path d="M183.375 189.256L183.375 214.382L183.375 214.382V214.382L177.055 210.733V210.733L171.149 207.322L171.149 195.864L171.148 195.865L171.148 182.196L171.149 182.197L171.149 182.196L183.375 189.256Z" fill="#F8D33A"/>
</g>
<rect opacity="0.19" width="14.2143" height="14.1806" transform="matrix(0.866044 0.499967 -0.866044 0.499967 183.43 200.239)" fill="#FCEA9C"/>
<rect width="14.207" height="14.207" transform="matrix(0.866044 0.499967 -0.866044 0.499967 208.172 215.561)" fill="#929AA5"/>
<rect width="10.1659" height="14.207" transform="matrix(-4.37114e-08 1 -0.865988 -0.500065 208.171 229.739)" fill="url(#paint28_linear_833_65856)" fill-opacity="0.5"/>
<rect width="10.1545" height="14.207" transform="matrix(4.37114e-08 1 0.865988 -0.500065 208.156 229.76)" fill="#5E6673"/>
<rect width="5.71045" height="47.2675" transform="matrix(4.37114e-08 1 0.865988 -0.500065 94.6143 244.202)" fill="url(#paint29_linear_833_65856)" fill-opacity="0.5"/>
<g clip-path="url(#clip1_833_65856)">
<rect width="92.596" height="47.1159" transform="matrix(0.866044 0.499967 -0.866044 0.499967 55.2277 174.394)" fill="#D6DBE2" fill-opacity="0.1"/>
<path d="M59.1866 197.624C56.3758 196.001 56.3759 193.37 59.1867 191.748C61.9975 190.125 66.5547 190.125 69.3656 191.748C72.1764 193.37 72.1762 196.001 69.3655 197.624C66.5547 199.247 61.9975 199.247 59.1866 197.624Z" fill="url(#paint30_linear_833_65856)" fill-opacity="0.1"/>
<g opacity="0.58">
<rect width="13.2485" height="3.28058" transform="matrix(0.866044 0.499967 -0.866044 0.499967 89.859 204.399)" fill="#929AA5"/>
<rect width="3.28124" height="3.28124" transform="matrix(0.866044 0.499967 -0.866044 0.499967 82.8654 208.436)" fill="#929AA5"/>
<rect width="13.5035" height="3.28124" transform="matrix(0.866044 0.499967 -0.866044 0.499967 87.9802 211.389)" fill="#929AA5"/>
<rect width="3.28124" height="3.28124" transform="matrix(0.866044 0.499967 0.866044 -0.499967 99.1067 221.093)" fill="#929AA5"/>
<rect width="3.28124" height="3.28124" transform="matrix(0.866044 0.499967 -0.866044 0.499967 75.8712 212.474)" fill="#929AA5"/>
<rect width="19.0312" height="3.28124" transform="matrix(0.866044 0.499967 -0.866044 0.499967 82.1232 216.083)" fill="#929AA5"/>
<rect width="3.28124" height="3.28124" transform="matrix(0.866044 0.499967 -0.866044 0.499967 68.8771 216.511)" fill="#929AA5"/>
<rect width="20.3437" height="3.28124" transform="matrix(0.866044 0.499967 -0.866044 0.499967 73.9922 219.464)" fill="#929AA5"/>
<rect width="3.28124" height="3.28124" transform="matrix(0.866044 0.499967 0.866044 -0.499967 91.0425 232.588)" fill="#929AA5"/>
</g>
<path opacity="0.58" d="M42.5304 202.966L42.5624 202.948L35.6224 198.941L42.6074 194.909C44.8825 193.595 48.6688 193.652 51.0644 195.035L63.2098 202.046C65.6055 203.429 65.7032 205.615 63.4281 206.928L56.4431 210.961L49.9656 207.221L49.9335 207.24L42.5304 202.966Z" fill="#929AA5"/>
<path d="M59.1872 197.624C56.3765 196.001 56.3766 193.37 59.1873 191.747C61.9981 190.125 66.5554 190.125 69.3662 191.747C72.177 193.37 72.1769 196.001 69.3661 197.624C66.5554 199.247 61.9981 199.246 59.1872 197.624Z" fill="#F0B90B"/>
</g>
<g opacity="0.79" clip-path="url(#clip2_833_65856)">
<rect width="92.596" height="47.1159" transform="matrix(0.866044 0.499967 -0.866044 0.499967 55.2277 174.394)" fill="#D6DBE2" fill-opacity="0.1"/>
<path d="M59.1866 197.624C56.3758 196.001 56.3759 193.37 59.1867 191.748C61.9975 190.125 66.5547 190.125 69.3656 191.748C72.1764 193.37 72.1762 196.001 69.3655 197.624C66.5547 199.247 61.9975 199.247 59.1866 197.624Z" fill="url(#paint31_linear_833_65856)" fill-opacity="0.1"/>
<g opacity="0.58">
<rect width="13.2485" height="3.28058" transform="matrix(0.866044 0.499967 -0.866044 0.499967 89.859 204.399)" fill="#929AA5"/>
<rect width="3.28124" height="3.28124" transform="matrix(0.866044 0.499967 -0.866044 0.499967 82.8654 208.436)" fill="#929AA5"/>
<rect width="13.5035" height="3.28124" transform="matrix(0.866044 0.499967 -0.866044 0.499967 87.9802 211.389)" fill="#929AA5"/>
<rect width="3.28124" height="3.28124" transform="matrix(0.866044 0.499967 0.866044 -0.499967 99.1067 221.093)" fill="#929AA5"/>
<rect width="3.28124" height="3.28124" transform="matrix(0.866044 0.499967 -0.866044 0.499967 75.8712 212.474)" fill="#929AA5"/>
<rect width="19.0312" height="3.28124" transform="matrix(0.866044 0.499967 -0.866044 0.499967 82.1232 216.083)" fill="#929AA5"/>
<rect width="3.28124" height="3.28124" transform="matrix(0.866044 0.499967 -0.866044 0.499967 68.8771 216.511)" fill="#929AA5"/>
<rect width="20.3437" height="3.28124" transform="matrix(0.866044 0.499967 -0.866044 0.499967 73.9922 219.464)" fill="#929AA5"/>
<rect width="3.28124" height="3.28124" transform="matrix(0.866044 0.499967 0.866044 -0.499967 91.0425 232.588)" fill="#929AA5"/>
</g>
<path opacity="0.58" d="M42.5304 202.966L42.5624 202.948L35.6224 198.941L42.6074 194.909C44.8825 193.595 48.6688 193.652 51.0644 195.035L63.2098 202.046C65.6055 203.429 65.7032 205.615 63.4281 206.928L56.4431 210.961L49.9656 207.221L49.9335 207.24L42.5304 202.966Z" fill="#929AA5"/>
<path d="M59.1872 197.624C56.3765 196.001 56.3766 193.37 59.1873 191.747C61.9981 190.125 66.5554 190.125 69.3662 191.747C72.177 193.37 72.1769 196.001 69.3661 197.624C66.5554 199.247 61.9981 199.246 59.1872 197.624Z" fill="#F0B90B"/>
</g>
<rect width="5.86309" height="92.6006" transform="matrix(-4.37114e-08 1 -0.865988 -0.500065 94.6143 244.091)" fill="#C0C6CF" fill-opacity="0.4"/>
</g>
<path opacity="0.42" d="M304.873 122.312C307.506 128.66 307.609 135.27 305.173 141.645C302.738 148.019 297.827 153.992 290.812 159.111C283.797 164.231 274.86 168.364 264.675 171.2C254.49 174.035 243.324 175.499 232.016 175.481L232.102 157.794C238.772 157.805 245.359 156.941 251.367 155.269C257.374 153.596 262.646 151.158 266.784 148.138C270.922 145.118 273.819 141.595 275.255 137.835C276.692 134.075 276.632 130.176 275.078 126.431L304.873 122.312Z" fill="#FCEA9B"/>
<defs>
<linearGradient id="paint0_linear_833_65856" x1="22.6936" y1="0" x2="22.6936" y2="44.9642" gradientUnits="userSpaceOnUse">
<stop stop-color="#76808F"/>
<stop offset="1" stop-color="#9DA3AC" stop-opacity="0.96"/>
</linearGradient>
<linearGradient id="paint1_linear_833_65856" x1="397.699" y1="83.6243" x2="398.529" y2="55.8263" gradientUnits="userSpaceOnUse">
<stop stop-color="#FFD43E"/>
<stop offset="1" stop-color="#FFE887" stop-opacity="0"/>
</linearGradient>
<linearGradient id="paint2_linear_833_65856" x1="399.204" y1="99.7834" x2="399.627" y2="116.494" gradientUnits="userSpaceOnUse">
<stop stop-color="white" stop-opacity="0"/>
<stop offset="1" stop-color="#F8D33A"/>
</linearGradient>
<linearGradient id="paint3_linear_833_65856" x1="11.8277" y1="0" x2="11.8277" y2="23.2602" gradientUnits="userSpaceOnUse">
<stop/>
<stop offset="0.669271" stop-color="#454545" stop-opacity="0.45"/>
<stop offset="1" stop-color="#D1D1D1" stop-opacity="0.29"/>
</linearGradient>
<linearGradient id="paint4_linear_833_65856" x1="16.7824" y1="0" x2="16.7824" y2="33.6763" gradientUnits="userSpaceOnUse">
<stop stop-color="#FFD43E"/>
<stop offset="1" stop-color="#FFE887"/>
</linearGradient>
<linearGradient id="paint5_linear_833_65856" x1="11.8238" y1="0" x2="11.8238" y2="23.2525" gradientUnits="userSpaceOnUse">
<stop/>
<stop offset="0.669271" stop-color="#454545" stop-opacity="0.45"/>
<stop offset="1" stop-color="#D1D1D1" stop-opacity="0.29"/>
</linearGradient>
<linearGradient id="paint6_linear_833_65856" x1="-1.69265" y1="13.537" x2="45.1285" y2="-9.16521" gradientUnits="userSpaceOnUse">
<stop stop-color="#76808F"/>
<stop offset="1" stop-color="#76808F" stop-opacity="0"/>
</linearGradient>
<linearGradient id="paint7_linear_833_65856" x1="-1.69265" y1="13.537" x2="45.1285" y2="-9.16521" gradientUnits="userSpaceOnUse">
<stop stop-color="#76808F"/>
<stop offset="1" stop-color="#76808F" stop-opacity="0"/>
</linearGradient>
<linearGradient id="paint8_linear_833_65856" x1="-1.69265" y1="13.537" x2="45.1285" y2="-9.16521" gradientUnits="userSpaceOnUse">
<stop stop-color="#76808F"/>
<stop offset="1" stop-color="#76808F" stop-opacity="0"/>
</linearGradient>
<linearGradient id="paint9_linear_833_65856" x1="22.914" y1="0" x2="22.914" y2="45.1386" gradientUnits="userSpaceOnUse">
<stop stop-color="#76808F"/>
<stop offset="1" stop-color="#9DA3AC" stop-opacity="0.96"/>
</linearGradient>
<linearGradient id="paint10_linear_833_65856" x1="234.946" y1="179.217" x2="242.119" y2="315.465" gradientUnits="userSpaceOnUse">
<stop stop-color="#929AA5"/>
<stop offset="1" stop-color="#929AA5" stop-opacity="0"/>
</linearGradient>
<linearGradient id="paint11_linear_833_65856" x1="234.49" y1="84.4391" x2="234.49" y2="107.627" gradientUnits="userSpaceOnUse">
<stop stop-color="#F0B90B"/>
<stop offset="1" stop-color="#F8D33A"/>
</linearGradient>
<linearGradient id="paint12_linear_833_65856" x1="298.181" y1="150.433" x2="232.001" y2="246.013" gradientUnits="userSpaceOnUse">
<stop stop-color="#F0B90B"/>
<stop offset="1" stop-color="#F0B90B" stop-opacity="0"/>
</linearGradient>
<linearGradient id="paint13_linear_833_65856" x1="141.808" y1="55.6714" x2="198.032" y2="166.245" gradientUnits="userSpaceOnUse">
<stop stop-color="#474D57"/>
<stop offset="1" stop-color="#474D57" stop-opacity="0"/>
</linearGradient>
<linearGradient id="paint14_linear_833_65856" x1="184.269" y1="77.6345" x2="329.514" y2="87.7665" gradientUnits="userSpaceOnUse">
<stop stop-color="#76808F"/>
<stop offset="0.590443" stop-color="#76808F" stop-opacity="0"/>
</linearGradient>
<linearGradient id="paint15_linear_833_65856" x1="22.6936" y1="0" x2="22.6936" y2="44.9642" gradientUnits="userSpaceOnUse">
<stop stop-color="#76808F"/>
<stop offset="1" stop-color="#9DA3AC" stop-opacity="0.96"/>
</linearGradient>
<linearGradient id="paint16_linear_833_65856" x1="55.4568" y1="77.3854" x2="56.2869" y2="49.5874" gradientUnits="userSpaceOnUse">
<stop stop-color="#FFD43E"/>
<stop offset="1" stop-color="#FFE887" stop-opacity="0"/>
</linearGradient>
<linearGradient id="paint17_linear_833_65856" x1="56.9625" y1="93.5443" x2="57.3855" y2="110.255" gradientUnits="userSpaceOnUse">
<stop stop-color="white" stop-opacity="0"/>
<stop offset="1" stop-color="#F8D33A"/>
</linearGradient>
<linearGradient id="paint18_linear_833_65856" x1="11.8277" y1="0" x2="11.8277" y2="23.2602" gradientUnits="userSpaceOnUse">
<stop/>
<stop offset="0.669271" stop-color="#454545" stop-opacity="0.45"/>
<stop offset="1" stop-color="#D1D1D1" stop-opacity="0.29"/>
</linearGradient>
<linearGradient id="paint19_linear_833_65856" x1="16.7824" y1="0" x2="16.7824" y2="33.6763" gradientUnits="userSpaceOnUse">
<stop stop-color="#FFD43E"/>
<stop offset="1" stop-color="#FFE887"/>
</linearGradient>
<linearGradient id="paint20_linear_833_65856" x1="11.8238" y1="0" x2="11.8238" y2="23.2525" gradientUnits="userSpaceOnUse">
<stop/>
<stop offset="0.669271" stop-color="#454545" stop-opacity="0.45"/>
<stop offset="1" stop-color="#D1D1D1" stop-opacity="0.29"/>
</linearGradient>
<linearGradient id="paint21_linear_833_65856" x1="-1.69265" y1="13.537" x2="45.1285" y2="-9.16521" gradientUnits="userSpaceOnUse">
<stop stop-color="#76808F"/>
<stop offset="1" stop-color="#76808F" stop-opacity="0"/>
</linearGradient>
<linearGradient id="paint22_linear_833_65856" x1="-1.69265" y1="13.537" x2="45.1285" y2="-9.16521" gradientUnits="userSpaceOnUse">
<stop stop-color="#76808F"/>
<stop offset="1" stop-color="#76808F" stop-opacity="0"/>
</linearGradient>
<linearGradient id="paint23_linear_833_65856" x1="-1.69265" y1="13.537" x2="45.1285" y2="-9.16521" gradientUnits="userSpaceOnUse">
<stop stop-color="#76808F"/>
<stop offset="1" stop-color="#76808F" stop-opacity="0"/>
</linearGradient>
<linearGradient id="paint24_linear_833_65856" x1="22.914" y1="0" x2="22.914" y2="45.1386" gradientUnits="userSpaceOnUse">
<stop stop-color="#76808F"/>
<stop offset="1" stop-color="#9DA3AC" stop-opacity="0.96"/>
</linearGradient>
<linearGradient id="paint25_linear_833_65856" x1="5.08295" y1="0" x2="5.08295" y2="14.207" gradientUnits="userSpaceOnUse">
<stop stop-color="#5E6673"/>
<stop offset="1" stop-color="#5E6673" stop-opacity="0.8"/>
</linearGradient>
<linearGradient id="paint26_linear_833_65856" x1="2.54166" y1="7.17897" x2="17.4046" y2="-2.80554" gradientUnits="userSpaceOnUse">
<stop stop-color="#F8D33A"/>
<stop offset="1" stop-color="#F0B90B" stop-opacity="0"/>
</linearGradient>
<linearGradient id="paint27_linear_833_65856" x1="2.54166" y1="7.17897" x2="17.4046" y2="-2.80554" gradientUnits="userSpaceOnUse">
<stop stop-color="#F8D33A"/>
<stop offset="1" stop-color="#F0B90B" stop-opacity="0"/>
</linearGradient>
<linearGradient id="paint28_linear_833_65856" x1="5.08295" y1="0" x2="5.08295" y2="14.207" gradientUnits="userSpaceOnUse">
<stop stop-color="#5E6673"/>
<stop offset="1" stop-color="#5E6673" stop-opacity="0.8"/>
</linearGradient>
<linearGradient id="paint29_linear_833_65856" x1="2.85522" y1="0" x2="2.85522" y2="47.2675" gradientUnits="userSpaceOnUse">
<stop stop-color="#5E6673"/>
<stop offset="1" stop-color="#5E6673" stop-opacity="0.8"/>
</linearGradient>
<linearGradient id="paint30_linear_833_65856" x1="69.3656" y1="191.748" x2="64.2768" y2="200.563" gradientUnits="userSpaceOnUse">
<stop stop-color="#76808F"/>
<stop offset="1" stop-color="#9DA3AC" stop-opacity="0.96"/>
</linearGradient>
<linearGradient id="paint31_linear_833_65856" x1="69.3656" y1="191.748" x2="64.2768" y2="200.563" gradientUnits="userSpaceOnUse">
<stop stop-color="#76808F"/>
<stop offset="1" stop-color="#9DA3AC" stop-opacity="0.96"/>
</linearGradient>
<clipPath id="clip0_833_65856">
<rect width="447.65" height="252.634" fill="white" transform="translate(8.17517 4.70691)"/>
</clipPath>
<clipPath id="clip1_833_65856">
<rect width="92.596" height="47.1159" fill="white" transform="matrix(0.866044 0.499967 -0.866044 0.499967 55.2277 174.394)"/>
</clipPath>
<clipPath id="clip2_833_65856">
<rect width="92.596" height="47.1159" fill="white" transform="matrix(0.866044 0.499967 -0.866044 0.499967 55.2277 174.394)"/>
</clipPath>
</defs>
</svg>
