<svg width="404" height="228" viewBox="0 0 404 228" fill="none" xmlns="http://www.w3.org/2000/svg">
<g filter="url(#filter0_d_967_71247)">
<circle r="55.3542" transform="matrix(1 0 0 -1 202 65.7617)" fill="url(#paint0_linear_967_71247)"/>
</g>
<rect x="191.465" y="65.4403" width="21.0716" height="26.3395" fill="#171B1F"/>
<path d="M201.998 26.8089C210.726 26.8091 217.802 33.8852 217.802 42.6132C217.802 51.3414 210.726 58.4172 201.998 58.4172C193.27 58.417 186.195 51.3406 186.195 42.6126C186.195 33.8845 193.27 26.8089 201.998 26.8089Z" fill="url(#paint1_linear_967_71247)"/>
<path d="M191.465 65.4403H184.441C176.683 65.4403 170.393 71.7297 170.393 79.488V91.7798H191.465V65.4403Z" fill="url(#paint2_linear_967_71247)"/>
<path d="M212.536 91.7798H233.608V79.488C233.608 71.7297 227.318 65.4403 219.56 65.4403H212.536V91.7798Z" fill="url(#paint3_linear_967_71247)"/>
<path d="M212.536 65.4402L212.536 74.22L203.757 65.4402L212.536 65.4402Z" fill="#76808E"/>
<path d="M191.465 65.4402L191.465 74.22L200.245 65.4402L191.465 65.4402Z" fill="#76808E"/>
<rect x="200.245" y="65.4403" width="3.51193" height="26.3395" fill="#76808E"/>
<circle r="33.2125" transform="matrix(1 0 0 -1 200.395 170.432)" fill="#929AA5"/>
<g filter="url(#filter1_d_967_71247)">
<path d="M200.394 166.025C205.631 166.025 209.876 161.779 209.876 156.542C209.876 151.305 205.631 147.06 200.394 147.06C195.157 147.06 190.912 151.306 190.912 156.543C190.912 161.78 195.157 166.025 200.394 166.025Z" fill="url(#paint4_linear_967_71247)"/>
</g>
<path d="M189.659 169.828C184.916 169.828 181.071 173.721 181.071 178.524V186.132H219.718V178.524C219.718 173.721 215.873 169.828 211.13 169.828H207.037L200.4 176.465L193.752 169.828H189.659Z" fill="#171B1F"/>
<circle r="33.2125" transform="matrix(1 0 0 -1 52.9126 170.432)" fill="#929AA5"/>
<g filter="url(#filter2_d_967_71247)">
<path d="M52.9114 166.025C58.1482 166.025 62.3934 161.779 62.3934 156.542C62.3934 151.305 58.1483 147.06 52.9114 147.06C47.6746 147.06 43.4292 151.306 43.4292 156.543C43.4292 161.78 47.6745 166.025 52.9114 166.025Z" fill="url(#paint5_linear_967_71247)"/>
</g>
<path d="M42.1771 169.828C37.4339 169.828 33.5888 173.721 33.5888 178.524V186.132H72.2361V178.524C72.2361 173.721 68.391 169.828 63.6478 169.828H59.555L52.9179 176.465L46.2699 169.828H42.1771Z" fill="#171B1F"/>
<circle r="33.2125" transform="matrix(1 0 0 -1 351.087 170.432)" fill="#929AA5"/>
<g filter="url(#filter3_d_967_71247)">
<path d="M351.086 166.025C356.323 166.025 360.568 161.779 360.568 156.542C360.568 151.305 356.323 147.06 351.086 147.06C345.85 147.06 341.604 151.306 341.604 156.543C341.604 161.78 345.849 166.025 351.086 166.025Z" fill="url(#paint6_linear_967_71247)"/>
</g>
<path d="M340.352 169.828C335.609 169.828 331.764 173.721 331.764 178.524V186.132H370.411V178.524C370.411 173.721 366.566 169.828 361.823 169.828H357.73L351.093 176.465L344.445 169.828H340.352Z" fill="#171B1F"/>
<path opacity="0.6" d="M169.588 94.8383L104.913 94.8383L53.6496 94.8383C53.242 94.8383 52.9115 95.1688 52.9115 95.5764L52.9115 137.219" stroke="url(#paint7_linear_967_71247)" stroke-width="5.90445"/>
<path d="M110.779 84.8172L100.757 94.8384L110.779 104.86L120.8 94.8384L110.779 84.8172Z" fill="url(#paint8_linear_967_71247)"/>
<path opacity="0.6" d="M233.608 94.8383L298.283 94.8383L349.546 94.8383C349.954 94.8383 350.284 95.1688 350.284 95.5764L350.284 137.219" stroke="url(#paint9_linear_967_71247)" stroke-width="5.90445"/>
<path opacity="0.6" d="M200.395 94.8383L200.395 137.219" stroke="url(#paint10_linear_967_71247)" stroke-width="5.90445"/>
<path d="M292.417 84.8172L302.438 94.8384L292.417 104.86L282.396 94.8384L292.417 84.8172Z" fill="url(#paint11_linear_967_71247)"/>
<path opacity="0.5" fill-rule="evenodd" clip-rule="evenodd" d="M105.194 148.123L126.456 169.384L147.961 148.123L134.839 148.123L134.839 122.719L119.197 122.719L119.197 148.123L105.194 148.123Z" fill="url(#paint12_linear_967_71247)"/>
<path opacity="0.5" fill-rule="evenodd" clip-rule="evenodd" d="M263.055 148.123L284.317 169.384L305.822 148.123L292.7 148.123L292.7 122.719L277.058 122.719L277.058 148.123L263.055 148.123Z" fill="url(#paint13_linear_967_71247)"/>
<defs>
<filter id="filter0_d_967_71247" x="139.266" y="3.02694" width="125.469" height="125.47" filterUnits="userSpaceOnUse" color-interpolation-filters="sRGB">
<feFlood flood-opacity="0" result="BackgroundImageFix"/>
<feColorMatrix in="SourceAlpha" type="matrix" values="0 0 0 0 0 0 0 0 0 0 0 0 0 0 0 0 0 0 127 0" result="hardAlpha"/>
<feOffset/>
<feGaussianBlur stdDeviation="3.69028"/>
<feColorMatrix type="matrix" values="0 0 0 0 0.941176 0 0 0 0 0.72549 0 0 0 0 0.0431373 0 0 0 0.5 0"/>
<feBlend mode="normal" in2="BackgroundImageFix" result="effect1_dropShadow_967_71247"/>
<feBlend mode="normal" in="SourceGraphic" in2="effect1_dropShadow_967_71247" result="shape"/>
</filter>
<filter id="filter1_d_967_71247" x="183.531" y="139.679" width="33.7253" height="33.7261" filterUnits="userSpaceOnUse" color-interpolation-filters="sRGB">
<feFlood flood-opacity="0" result="BackgroundImageFix"/>
<feColorMatrix in="SourceAlpha" type="matrix" values="0 0 0 0 0 0 0 0 0 0 0 0 0 0 0 0 0 0 127 0" result="hardAlpha"/>
<feOffset/>
<feGaussianBlur stdDeviation="3.69028"/>
<feColorMatrix type="matrix" values="0 0 0 0 0.941176 0 0 0 0 0.72549 0 0 0 0 0.0431373 0 0 0 0.5 0"/>
<feBlend mode="normal" in2="BackgroundImageFix" result="effect1_dropShadow_967_71247"/>
<feBlend mode="normal" in="SourceGraphic" in2="effect1_dropShadow_967_71247" result="shape"/>
</filter>
<filter id="filter2_d_967_71247" x="36.0486" y="139.679" width="33.7253" height="33.7261" filterUnits="userSpaceOnUse" color-interpolation-filters="sRGB">
<feFlood flood-opacity="0" result="BackgroundImageFix"/>
<feColorMatrix in="SourceAlpha" type="matrix" values="0 0 0 0 0 0 0 0 0 0 0 0 0 0 0 0 0 0 127 0" result="hardAlpha"/>
<feOffset/>
<feGaussianBlur stdDeviation="3.69028"/>
<feColorMatrix type="matrix" values="0 0 0 0 0.941176 0 0 0 0 0.72549 0 0 0 0 0.0431373 0 0 0 0.5 0"/>
<feBlend mode="normal" in2="BackgroundImageFix" result="effect1_dropShadow_967_71247"/>
<feBlend mode="normal" in="SourceGraphic" in2="effect1_dropShadow_967_71247" result="shape"/>
</filter>
<filter id="filter3_d_967_71247" x="334.224" y="139.679" width="33.7254" height="33.7261" filterUnits="userSpaceOnUse" color-interpolation-filters="sRGB">
<feFlood flood-opacity="0" result="BackgroundImageFix"/>
<feColorMatrix in="SourceAlpha" type="matrix" values="0 0 0 0 0 0 0 0 0 0 0 0 0 0 0 0 0 0 127 0" result="hardAlpha"/>
<feOffset/>
<feGaussianBlur stdDeviation="3.69028"/>
<feColorMatrix type="matrix" values="0 0 0 0 0.941176 0 0 0 0 0.72549 0 0 0 0 0.0431373 0 0 0 0.5 0"/>
<feBlend mode="normal" in2="BackgroundImageFix" result="effect1_dropShadow_967_71247"/>
<feBlend mode="normal" in="SourceGraphic" in2="effect1_dropShadow_967_71247" result="shape"/>
</filter>
<linearGradient id="paint0_linear_967_71247" x1="55.3542" y1="0" x2="55.3542" y2="110.708" gradientUnits="userSpaceOnUse">
<stop offset="0.333333" stop-color="#F0B90B"/>
<stop offset="1" stop-color="#FBDA3C"/>
</linearGradient>
<linearGradient id="paint1_linear_967_71247" x1="201.984" y1="58.4172" x2="201.984" y2="26.8089" gradientUnits="userSpaceOnUse">
<stop stop-color="#1E2026"/>
<stop offset="1" stop-color="#76808F"/>
</linearGradient>
<linearGradient id="paint2_linear_967_71247" x1="201.976" y1="65.4403" x2="201.976" y2="91.7798" gradientUnits="userSpaceOnUse">
<stop stop-color="#1E2026"/>
<stop offset="1" stop-color="#76808F"/>
</linearGradient>
<linearGradient id="paint3_linear_967_71247" x1="201.976" y1="65.4403" x2="201.976" y2="91.7798" gradientUnits="userSpaceOnUse">
<stop stop-color="#1E2026"/>
<stop offset="1" stop-color="#76808F"/>
</linearGradient>
<linearGradient id="paint4_linear_967_71247" x1="200.394" y1="166.025" x2="200.394" y2="147.06" gradientUnits="userSpaceOnUse">
<stop offset="0.333333" stop-color="#F0B90B"/>
<stop offset="1" stop-color="#FBDA3C"/>
</linearGradient>
<linearGradient id="paint5_linear_967_71247" x1="52.9113" y1="166.025" x2="52.9113" y2="147.06" gradientUnits="userSpaceOnUse">
<stop offset="0.333333" stop-color="#F0B90B"/>
<stop offset="1" stop-color="#FBDA3C"/>
</linearGradient>
<linearGradient id="paint6_linear_967_71247" x1="351.086" y1="166.025" x2="351.086" y2="147.06" gradientUnits="userSpaceOnUse">
<stop offset="0.333333" stop-color="#F0B90B"/>
<stop offset="1" stop-color="#FBDA3C"/>
</linearGradient>
<linearGradient id="paint7_linear_967_71247" x1="52.3955" y1="94.8383" x2="149.884" y2="94.8383" gradientUnits="userSpaceOnUse">
<stop offset="0.765625" stop-color="#F0B90B"/>
<stop offset="1" stop-color="#FBDA3C" stop-opacity="0"/>
</linearGradient>
<linearGradient id="paint8_linear_967_71247" x1="100.757" y1="94.8384" x2="120.8" y2="94.8384" gradientUnits="userSpaceOnUse">
<stop stop-color="#F0B90B"/>
<stop offset="1" stop-color="#F8D33A"/>
</linearGradient>
<linearGradient id="paint9_linear_967_71247" x1="350.8" y1="94.8383" x2="253.312" y2="94.8383" gradientUnits="userSpaceOnUse">
<stop offset="0.765625" stop-color="#F0B90B"/>
<stop offset="1" stop-color="#FBDA3C" stop-opacity="0"/>
</linearGradient>
<linearGradient id="paint10_linear_967_71247" x1="200.911" y1="94.8383" x2="103.423" y2="94.8383" gradientUnits="userSpaceOnUse">
<stop offset="0.765625" stop-color="#F0B90B"/>
<stop offset="1" stop-color="#FBDA3C" stop-opacity="0"/>
</linearGradient>
<linearGradient id="paint11_linear_967_71247" x1="302.438" y1="94.8384" x2="282.396" y2="94.8384" gradientUnits="userSpaceOnUse">
<stop stop-color="#F0B90B"/>
<stop offset="1" stop-color="#F8D33A"/>
</linearGradient>
<linearGradient id="paint12_linear_967_71247" x1="129.218" y1="151.527" x2="129.119" y2="125.711" gradientUnits="userSpaceOnUse">
<stop offset="0.118546" stop-color="#929AA5"/>
<stop offset="1" stop-color="#929AA5" stop-opacity="0"/>
</linearGradient>
<linearGradient id="paint13_linear_967_71247" x1="287.079" y1="151.527" x2="286.979" y2="125.711" gradientUnits="userSpaceOnUse">
<stop offset="0.118546" stop-color="#929AA5"/>
<stop offset="1" stop-color="#929AA5" stop-opacity="0"/>
</linearGradient>
</defs>
</svg>
