<svg width="48" height="48" viewBox="0 0 48 48" fill="none" xmlns="http://www.w3.org/2000/svg">
<path fill-rule="evenodd" clip-rule="evenodd" d="M44 8H4V37.5H44V8Z" fill="url(#paint0_linear_6752_58645)"/>
<path d="M25.5 4L27.5 2L29.5 4L27.5 6L25.5 4Z" fill="#E6E8EA"/>
<circle r="10" transform="matrix(1 0 0 -1 36 34)" fill="#F8D33A"/>
<ellipse rx="7.24138" ry="7.24138" transform="matrix(1 0 0 -1 36.0002 33.9998)" fill="url(#paint1_linear_6752_58645)"/>
<path d="M32.2067 33.9999L35.9998 37.793L39.7929 33.9999L35.9998 30.2068L32.2067 33.9999Z" fill="#F0B90B"/>
<path d="M44 20L4 20L4 14L44 14L44 20Z" fill="url(#paint2_linear_6752_58645)"/>
<path d="M20 28L8 28L8 24L20 24L20 28Z" fill="#E6E8EA"/>
<path d="M8 41.5L9.5 43L11 41.5L9.5 40L8 41.5Z" fill="#E6E8EA"/>
<path d="M0.5 15.5H2V14H0.5V15.5Z" fill="#E6E8EA"/>
<defs>
<linearGradient id="paint0_linear_6752_58645" x1="44" y1="8" x2="4" y2="8" gradientUnits="userSpaceOnUse">
<stop stop-color="#929AA5"/>
<stop offset="1" stop-color="#76808F"/>
</linearGradient>
<linearGradient id="paint1_linear_6752_58645" x1="7.24138" y1="0" x2="7.24138" y2="14.4828" gradientUnits="userSpaceOnUse">
<stop stop-color="#F0B90B"/>
<stop offset="1" stop-color="#F8D33A"/>
</linearGradient>
<linearGradient id="paint2_linear_6752_58645" x1="4" y1="17" x2="44" y2="17" gradientUnits="userSpaceOnUse">
<stop stop-color="#F0B90B"/>
<stop offset="1" stop-color="#F8D33A"/>
</linearGradient>
</defs>
</svg>
