<svg width="65" height="64" fill="none" xmlns="http://www.w3.org/2000/svg"><path opacity=".3" d="M29.536 63.78h2.667v-2.666h-2.667v2.667zm27.33-56.666l2 2 2-2-2-2-2 2zm-52.66-2L6.872 7.78 9.54 5.114 6.872 2.447 4.206 5.114z" fill="#AEB4BC"/><path d="M32.5 0l6.003 6.004-6.003 6.004-6.003-6.004L32.5 0z" fill="url(#paint0_linear_4077_104233)"/><path d="M64.5 38.004l-6.004 6.004-6.003-6.004L58.496 32l6.004 6.004z" fill="url(#paint1_linear_4077_104233)"/><path d="M12.507 38.004l-6.004 6.004L.5 38.004 6.503 32l6.004 6.004z" fill="url(#paint2_linear_4077_104233)"/><path d="M21.831 56.107h21.04V51.2h-21.04v4.908z" fill="url(#paint3_linear_4077_104233)"/><path fill-rule="evenodd" clip-rule="evenodd" d="M42.871 23.803h-21.04v-5.136h21.04v5.136zm-13.466-1.712h5.892V20.38h-5.892v1.712z" fill="url(#paint4_linear_4077_104233)"/><path d="M42.871 51.2h-21.04V23.802h21.04V51.2z" fill="url(#paint5_linear_4077_104233)"/><path fill-rule="evenodd" clip-rule="evenodd" d="M16.498 14H7.833v8.667h8.665V14zm0 41.333H7.833V64h8.665v-8.667zM48.494 14h8.666v8.667h-8.666V14zm8.666 41.333h-8.666V64h8.666v-8.667z" fill="url(#paint6_linear_4077_104233)"/><defs><linearGradient id="paint0_linear_4077_104233" x1="32.5" y1="0" x2="32.5" y2="12.008" gradientUnits="userSpaceOnUse"><stop stop-color="#929AA5"/><stop offset="1" stop-color="#76808F"/></linearGradient><linearGradient id="paint1_linear_4077_104233" x1="58.496" y1="32" x2="58.496" y2="44.008" gradientUnits="userSpaceOnUse"><stop stop-color="#929AA5"/><stop offset="1" stop-color="#76808F"/></linearGradient><linearGradient id="paint2_linear_4077_104233" x1="6.503" y1="32" x2="6.503" y2="44.008" gradientUnits="userSpaceOnUse"><stop stop-color="#929AA5"/><stop offset="1" stop-color="#76808F"/></linearGradient><linearGradient id="paint3_linear_4077_104233" x1="42.872" y1="53.653" x2="21.831" y2="53.653" gradientUnits="userSpaceOnUse"><stop stop-color="#929AA5"/><stop offset="1" stop-color="#76808F"/></linearGradient><linearGradient id="paint4_linear_4077_104233" x1="32.351" y1="18.667" x2="32.351" y2="23.803" gradientUnits="userSpaceOnUse"><stop stop-color="#929AA5"/><stop offset="1" stop-color="#76808F"/></linearGradient><linearGradient id="paint5_linear_4077_104233" x1="32.351" y1="23.803" x2="32.351" y2="51.199" gradientUnits="userSpaceOnUse"><stop stop-color="#F0B90B"/><stop offset="1" stop-color="#F8D33A"/></linearGradient><linearGradient id="paint6_linear_4077_104233" x1="32.496" y1="14" x2="32.496" y2="64" gradientUnits="userSpaceOnUse"><stop offset=".333" stop-color="#F0B90B"/><stop offset="1" stop-color="#FBDA3C"/></linearGradient></defs></svg>