<svg width="151" height="311" viewBox="0 0 151 311" fill="none" xmlns="http://www.w3.org/2000/svg">
<path d="M118.659 283.995L129.129 273.525L139.599 273.525L150.068 273.525L139.599 283.995L129.129 294.465L118.659 283.995Z" fill="#D9304E"/>
<path d="M123.896 278.763L100.894 255.76" stroke="#FFBEA6" stroke-width="14.8065"/>
<g style="mix-blend-mode:soft-light" opacity="0.6">
<path d="M123.896 278.763L100.894 255.76" stroke="url(#paint0_linear_1487_132532)" stroke-width="14.8065"/>
</g>
<path d="M117.654 161.809L117.654 184.185C117.654 188.273 114.339 191.588 110.251 191.588L104.764 191.588" stroke="#FFBEA6" stroke-width="14.8065"/>
<g style="mix-blend-mode:soft-light" opacity="0.6">
<path d="M117.654 161.809L117.654 184.185C117.654 188.273 114.339 191.588 110.251 191.588L104.764 191.588" stroke="url(#paint1_linear_1487_132532)" stroke-width="14.8065"/>
</g>
<path d="M29.8712 161.97L29.8712 184.708C29.8712 188.797 33.1858 192.111 37.2745 192.111L42.5625 192.111" stroke="#FFBEA6" stroke-width="14.8065"/>
<g style="mix-blend-mode:soft-light" opacity="0.6">
<path d="M29.8712 161.97L29.8712 184.708C29.8712 188.797 33.1858 192.111 37.2745 192.111L42.5625 192.111" stroke="url(#paint2_linear_1487_132532)" stroke-width="14.8065"/>
</g>
<path d="M84.8086 231.369V255.098C84.8086 257.342 83.9172 259.494 82.3305 261.081L59.1616 284.249" stroke="#FFBEA6" stroke-width="14.8065"/>
<g style="mix-blend-mode:soft-light" opacity="0.6">
<path d="M84.8086 231.369V255.098C84.8086 257.342 83.9172 259.494 82.3305 261.081L59.1616 284.249" stroke="url(#paint3_linear_1487_132532)" stroke-width="14.8065"/>
</g>
<path d="M84.8086 213.654V258.867" stroke="#328DFD" stroke-width="21.1521" stroke-linejoin="round"/>
<g style="mix-blend-mode:soft-light" opacity="0.6">
<path d="M84.8086 213.654V258.867" stroke="black" stroke-width="21.1521" stroke-linejoin="round"/>
</g>
<path d="M43.5127 289.431L53.9824 299.9L64.4522 299.9L74.922 299.9L64.4522 289.431L53.9824 278.961L43.5127 289.431Z" fill="#D9304E"/>
<path d="M83.0789 149.079C88.4481 154.448 88.4481 163.153 83.0789 168.523C77.7096 173.892 69.0043 173.892 63.635 168.523L83.0789 149.079Z" fill="#FFBEA6"/>
<path d="M83.0794 149.079C77.7101 143.71 69.0048 143.71 63.6355 149.079C58.2662 154.449 58.2662 163.154 63.6355 168.523L83.0794 149.079Z" fill="#D9304E"/>
<path d="M88.3125 142.35L63.2598 167.402" stroke="#D9304E" stroke-width="2.11521"/>
<rect width="14.8065" height="14.8065" transform="matrix(0.707107 0.707107 0.707107 -0.707107 107.293 146.238)" fill="#FFBEA6"/>
<rect width="14.8065" height="14.8065" transform="matrix(0.707107 0.707107 0.707107 -0.707107 19.4023 146.762)" fill="#FFBEA6"/>
<path d="M98.0288 258.644L70.4844 231.099C69.364 229.979 68.7498 228.424 68.7498 226.708L68.7498 213.654" stroke="#328DFD" stroke-width="21.1521" stroke-linejoin="round"/>
<path d="M95.2441 192.645L104.961 192.645" stroke="#2B2F36" stroke-width="16.9217"/>
<g style="mix-blend-mode:soft-light" opacity="0.6">
<path d="M95.2441 192.645L104.961 192.645" stroke="url(#paint4_linear_1487_132532)" stroke-width="16.9217"/>
</g>
<path d="M49.9668 192.639L37.2755 192.639" stroke="#2B2F36" stroke-width="16.9217"/>
<path d="M49.9668 192.639L37.2755 192.639" stroke="#2B2F36" stroke-width="16.9217"/>
<path fill-rule="evenodd" clip-rule="evenodd" d="M67.4783 184.184L75.164 191.869L82.8496 184.184H95.3887V230.718H48.854V184.184H67.4783Z" fill="#2B2F36"/>
<g style="mix-blend-mode:soft-light" opacity="0.6">
<path d="M48.8555 202.967L48.8572 230.718L95.3879 230.718L95.3879 222.517H76.9487C71.4793 222.517 66.2339 220.344 62.3663 216.477L48.8555 202.967Z" fill="url(#paint5_linear_1487_132532)"/>
</g>
<path d="M109.445 24.2829L130.726 31.1068V54.1376L143.149 71.5663L130.726 88.995V112.026L109.445 118.85L96.5614 136.924L74.8205 129.952L53.0797 136.924L40.1962 118.85L18.9155 112.026V88.995L6.49219 71.5663L18.9155 54.1376V31.1068L40.1962 24.2829L53.0797 6.20872L74.8205 13.1802L96.5614 6.20872L109.445 24.2829Z" fill="#FCD535"/>
<path d="M59.8945 98.6482H65.761V93.1965C73.5237 92.0706 77.4939 87.33 77.4939 81.2265C77.4939 75.123 73.6422 71.8046 65.2276 69.8491V58.8272C68.3683 59.4791 70.5016 60.9605 72.0422 62.8567L76.9013 58.6495C74.2348 55.3903 70.6793 53.4348 65.761 52.9015V47.5683H59.8945V52.9015C52.4873 53.7311 48.1615 57.7606 48.1615 64.0419C48.1615 69.8491 51.7762 73.5823 60.4278 75.4193V87.4485C56.9316 86.9745 54.0873 85.1967 51.7762 82.5302L46.9764 86.9152C49.9393 90.3521 53.9095 92.9002 59.8945 93.3743V98.6482ZM55.3317 63.7456C55.3317 61.079 57.0501 59.3606 60.4278 58.768V68.7825C56.9316 67.8343 55.3317 66.5307 55.3317 63.7456ZM70.383 81.7598C70.383 84.5449 68.5461 86.6782 65.2276 87.3893V76.4859C69.1979 77.5526 70.383 79.3895 70.383 81.7598ZM96.0183 94.5002C102.774 94.5002 108.166 89.9373 108.166 82.4709V63.7456C108.166 56.2792 102.774 51.7164 96.0183 51.7164C89.3222 51.7164 83.9298 56.2792 83.9298 63.7456V82.4709C83.9298 89.9373 89.3222 94.5002 96.0183 94.5002ZM96.0183 87.6263C92.5814 87.6263 90.5074 85.0782 90.5074 81.4043V64.8122C90.5074 61.1383 92.5814 58.5902 96.0183 58.5902C99.5145 58.5902 101.588 61.1383 101.588 64.8122V81.4043C101.588 85.0782 99.5145 87.6263 96.0183 87.6263Z" fill="#1E2329"/>
<defs>
<linearGradient id="paint0_linear_1487_132532" x1="100.894" y1="255.76" x2="118.537" y2="273.403" gradientUnits="userSpaceOnUse">
<stop/>
<stop offset="1" stop-opacity="0"/>
</linearGradient>
<linearGradient id="paint1_linear_1487_132532" x1="117.654" y1="195.584" x2="117.654" y2="171.007" gradientUnits="userSpaceOnUse">
<stop/>
<stop offset="1" stop-opacity="0"/>
</linearGradient>
<linearGradient id="paint2_linear_1487_132532" x1="29.8712" y1="193.232" x2="29.8712" y2="169.265" gradientUnits="userSpaceOnUse">
<stop/>
<stop offset="1" stop-opacity="0"/>
</linearGradient>
<linearGradient id="paint3_linear_1487_132532" x1="87.9438" y1="262.06" x2="63.2368" y2="286.767" gradientUnits="userSpaceOnUse">
<stop/>
<stop offset="1" stop-opacity="0"/>
</linearGradient>
<linearGradient id="paint4_linear_1487_132532" x1="103.705" y1="199.886" x2="103.705" y2="184.083" gradientUnits="userSpaceOnUse">
<stop/>
<stop offset="1" stop-opacity="0"/>
</linearGradient>
<linearGradient id="paint5_linear_1487_132532" x1="49.3843" y1="217.286" x2="95.919" y2="217.286" gradientUnits="userSpaceOnUse">
<stop/>
<stop offset="1" stop-opacity="0"/>
</linearGradient>
</defs>
</svg>
