<svg width="486" height="360" viewBox="0 0 486 360" fill="none" xmlns="http://www.w3.org/2000/svg">
<path d="M191.72 238.578L191.72 259.415L173.487 277.647L173.487 259.415L173.487 238.578L191.72 238.578Z" fill="#F8D33A"/>
<path d="M265.169 266.335L279.903 281.069L279.903 306.853L267.011 293.961L252.277 279.227L265.169 266.335Z" fill="#F8D33A"/>
<path d="M212.557 238.578L212.557 259.415L191.72 259.415L191.72 238.578L212.557 238.578Z" fill="#935A30"/>
<path d="M279.903 251.601L294.637 266.335L279.903 281.069L265.169 266.335L279.903 251.601Z" fill="#935A30"/>
<path fill-rule="evenodd" clip-rule="evenodd" d="M260.917 238.578L260.917 207.974L234.871 207.974L234.871 238.578L203.616 238.578L203.616 264.624L234.871 264.624C249.256 264.624 260.917 252.963 260.917 238.578Z" fill="#76808F"/>
<path fill-rule="evenodd" clip-rule="evenodd" d="M313.484 217.555L286.229 190.299L267.811 208.717L295.067 235.972L271.718 259.321L290.135 277.739L313.484 254.39C323.656 244.218 323.656 227.727 313.484 217.555Z" fill="#76808F"/>
<path fill-rule="evenodd" clip-rule="evenodd" d="M249.877 152.83L228.724 173.983C220.586 182.12 207.393 182.12 199.256 173.983L180.057 154.784L194.79 140.05L213.99 159.249L235.143 138.096L249.877 152.83Z" fill="#FC6E75"/>
<path d="M182.604 124.627L182.604 142.859L164.371 142.859L164.371 124.627L182.604 124.627Z" fill="#935A30"/>
<path fill-rule="evenodd" clip-rule="evenodd" d="M345.608 130.854L323.427 153.035C319.52 156.942 314.22 159.138 308.693 159.138L280.125 159.138L280.125 138.301L308.693 138.301L330.874 116.12L345.608 130.854Z" fill="#FC6E75"/>
<g style="mix-blend-mode:soft-light" opacity="0.6">
<path fill-rule="evenodd" clip-rule="evenodd" d="M345.608 130.854L324.191 152.272C319.794 156.668 313.832 159.138 307.615 159.138L280.126 159.138L280.126 138.301L307.615 138.301C308.306 138.301 308.968 138.026 309.457 137.538L330.874 116.12L345.608 130.854Z" fill="url(#paint0_linear_9169:86646)"/>
</g>
<path d="M292.172 138.301L275.718 138.301L263.346 150.673L250.974 138.301L234.871 138.301L234.871 195.602H292.172V138.301Z" fill="#FC6E75"/>
<path d="M292.172 215.136H234.871L234.871 195.602H292.172V215.136Z" fill="#76808F"/>
<path d="M342.934 100.582L342.934 118.814L361.166 118.814L361.166 100.582L342.934 100.582Z" fill="#935A30"/>
<path d="M246.592 114.185C246.592 104.835 254.172 97.2554 263.522 97.2554C272.872 97.2554 280.452 104.835 280.452 114.185C280.452 123.535 272.872 131.115 263.522 131.115C254.172 131.115 246.592 123.535 246.592 114.185Z" fill="#935A30"/>
<path opacity="0.25" d="M155.255 80.3483C155.255 93.2946 165.75 103.79 178.697 103.79H234.696C234.696 90.8433 234.696 80.3483 234.696 80.3483H155.255Z" fill="#5E6673"/>
<path opacity="0.25" d="M196.929 107.697C196.929 120.643 207.424 131.138 220.37 131.138H234.695C234.695 107.697 234.695 107.697 234.695 107.697H196.929Z" fill="#5E6673"/>
<path opacity="0.25" d="M124 53C124 65.9463 134.495 76.4414 147.441 76.4414H234.696C234.696 63.4951 224.2 53 211.254 53H124Z" fill="#5E6673"/>
<path opacity="0.25" d="M331.066 80.3483C331.066 93.2946 320.571 103.79 307.625 103.79H291.997C291.997 90.8433 291.997 80.3483 291.997 80.3483H331.066Z" fill="#5E6673"/>
<path opacity="0.25" d="M315.438 107.697C315.438 120.643 304.943 131.138 291.997 131.138C291.997 107.697 291.997 107.697 291.997 107.697H315.438Z" fill="#5E6673"/>
<path opacity="0.25" d="M354.507 53C354.507 65.9463 344.012 76.4414 331.066 76.4414H291.997C291.997 63.4951 302.492 53 315.438 53H354.507Z" fill="#5E6673"/>
<path d="M280.276 90.1156L246.417 90.1156L246.417 87.511L280.276 87.511L280.276 90.1156Z" fill="url(#paint1_linear_9169:86646)"/>
<path opacity="0.25" d="M432.232 170.054C430.991 153.887 417.481 141.155 400.996 141.155C383.694 141.155 369.668 155.181 369.668 172.483V178.749H354.885C343.351 178.749 334 188.1 334 199.634L461 199.634C461 183.567 448.194 170.49 432.232 170.054Z" fill="#5E6673"/>
<path opacity="0.25" d="M481 218.5C481 212.701 476.297 208 470.495 208H442.011C430.407 208 421 217.402 421 229H470.495C476.297 229 481 224.299 481 218.5Z" fill="#5E6673"/>
<path opacity="0.25" d="M130.427 291.094C130.427 273.369 116.07 259 98.3601 259C80.6501 259 66.2933 273.369 66.2933 291.094V298.5H53.4668C31.6699 298.5 14 316.185 14 338H83.067C93.9654 338 102.8 329.158 102.8 318.25L162 318.25C162 303.525 150.073 291.587 135.36 291.587H130.427V291.094Z" fill="#5E6673"/>
<path d="M161 185L171 195L161 205L151 195L161 185Z" fill="#F8D33A"/>
<path opacity="0.07" d="M137 149L141 153L137 157L133 153L137 149Z" fill="#5E6673"/>
<path opacity="0.07" d="M229.5 22L235 27.5L229.5 33L224 27.5L229.5 22Z" fill="#5E6673"/>
<path opacity="0.07" d="M348 256L355 263L348 270L341 263L348 256Z" fill="#5E6673"/>
<path d="M394 70L397 73L394 76L391 73L394 70Z" fill="#F8D33A"/>
<path d="M380.5 239L385 243.5L380.5 248L376 243.5L380.5 239Z" fill="#F8D33A"/>
<defs>
<linearGradient id="paint0_linear_9169:86646" x1="322.679" y1="142.533" x2="287.297" y2="167.743" gradientUnits="userSpaceOnUse">
<stop stop-opacity="0"/>
<stop offset="1"/>
</linearGradient>
<linearGradient id="paint1_linear_9169:86646" x1="246.417" y1="88.8133" x2="280.276" y2="88.8133" gradientUnits="userSpaceOnUse">
<stop stop-color="#F0B90B"/>
<stop offset="1" stop-color="#F8D33A"/>
</linearGradient>
</defs>
</svg>
