<svg width="200" height="200" viewBox="0 0 200 200" fill="none" xmlns="http://www.w3.org/2000/svg">
<g clip-path="url(#clip0_2218_18614)">
<path d="M88.2031 192.882L88.2031 217.725" stroke="#12AAB5" stroke-width="16.8417"/>
<g style="mix-blend-mode:soft-light" opacity="0.6">
<path d="M88.2031 192.882L88.2031 217.725" stroke="url(#paint0_linear_2218_18614)" stroke-width="16.8417"/>
</g>
<path d="M69.2573 217.725L69.2573 192.882L96.625 192.882" stroke="#12AAB5" stroke-width="16.8417"/>
<path d="M102.518 173.516L102.518 149.516C102.518 146.261 99.8785 143.622 96.623 143.622V143.622" stroke="#CB8C54" stroke-width="11.7892"/>
<g style="mix-blend-mode:soft-light" opacity="0.6">
<path d="M102.518 173.516L102.518 149.516C102.518 146.261 99.8785 143.622 96.623 143.622V143.622" stroke="url(#paint1_linear_2218_18614)" stroke-width="11.7892"/>
</g>
<circle cx="57.4642" cy="72.8856" r="6.31509" transform="rotate(-180 57.4642 72.8856)" fill="#6A4C0C"/>
<path d="M96.625 137.726H62.5197V158.357H96.625V137.726Z" fill="#474D57"/>
<g style="mix-blend-mode:soft-light" opacity="0.6">
<path d="M96.625 137.726H62.5197V158.357H96.625V137.726Z" fill="url(#paint2_linear_2218_18614)"/>
</g>
<path d="M34.5724 138.567L34.5724 152.462C34.5724 155.718 37.2115 158.357 40.4671 158.357L59.625 158.357" stroke="#F8D33A" stroke-width="13.4733"/>
<g style="mix-blend-mode:soft-light" opacity="0.6">
<path d="M34.5724 138.567L34.5724 152.462C34.5724 155.718 37.2115 158.357 40.4671 158.357L59.625 158.357" stroke="url(#paint3_linear_2218_18614)" stroke-width="13.4733"/>
</g>
<path d="M54.9254 102.356H22.7306C19.3546 102.356 17.6638 106.438 20.0511 108.825L29.3105 118.085" stroke="#CB8C54" stroke-width="11.7895"/>
<g style="mix-blend-mode:soft-light" opacity="0.6">
<path d="M54.9254 102.356H13.582L29.3105 118.085" stroke="url(#paint4_linear_2218_18614)" stroke-width="11.79"/>
</g>
<path fill-rule="evenodd" clip-rule="evenodd" d="M90.7185 151.618L84.3443 157.992L77.9702 151.618H59.5703V188.671H96.6229V151.618H90.7185Z" fill="#F8D33A"/>
<g style="mix-blend-mode:soft-light" opacity="0.6">
<path fill-rule="evenodd" clip-rule="evenodd" d="M90.7185 151.618L84.3443 157.992L77.9702 151.618H59.5703V188.671H96.6229V151.618H90.7185Z" fill="url(#paint5_linear_2218_18614)"/>
</g>
<path fill-rule="evenodd" clip-rule="evenodd" d="M73.2188 96.4619L66.8443 102.836L60.4698 96.4619H45.5234V137.725H82.5761V96.4619H73.2188Z" fill="#AEB4BC"/>
<g style="mix-blend-mode:soft-light" opacity="0.6">
<path fill-rule="evenodd" clip-rule="evenodd" d="M73.2188 96.4619L66.8443 102.836L60.4698 96.4619H45.5234V137.725H82.5761V96.4619H73.2188Z" fill="url(#paint6_linear_2218_18614)"/>
</g>
<path d="M96.623 185.726L120.628 185.726L108.418 173.516L96.623 173.516L96.623 185.726Z" fill="#5E6673"/>
<path d="M62.5176 185.726L86.5229 185.726L74.3124 173.516L62.5176 173.516L62.5176 185.726Z" fill="#5E6673"/>
<rect x="118.908" y="159.182" width="11.8847" height="11.8847" transform="rotate(135 118.908 159.182)" fill="#E8A37D"/>
<path d="M26.3105 126.356L34.5211 134.777L42.7316 126.356H26.3105Z" fill="#E8A37D"/>
<path d="M26.3105 126.356L34.5211 117.935L42.7316 126.356H26.3105Z" fill="#CB8C54"/>
<path d="M82.783 102.358L95.9862 102.358C97.5496 102.358 99.0489 101.737 100.154 100.631L112.559 88.2265" stroke="#CB8C54" stroke-width="11.7895"/>
<g style="mix-blend-mode:soft-light" opacity="0.6">
<path d="M82.783 102.358L95.9862 102.358C97.5496 102.358 99.0489 101.737 100.154 100.631L112.559 88.2265" stroke="url(#paint7_linear_2218_18614)" stroke-width="11.7895"/>
</g>
<path d="M123.129 76.1664L114.792 84.5028L106.456 76.1664L114.792 67.83L123.129 76.1664Z" fill="#CB8C54"/>
<path d="M90.3613 129.726L95.8354 124.252" stroke="#12AAB5" stroke-width="1.68421"/>
<rect x="82.5684" y="96.4635" width="6.73684" height="13.8947" fill="#AEB4BC"/>
<rect x="34.5762" y="96.4635" width="10.9474" height="13.8947" fill="#AEB4BC"/>
<path d="M62.5179 137.726H45.6758C45.6758 147.027 53.2162 154.568 62.5179 154.568V137.726Z" fill="#474D57"/>
<path d="M121.369 47.3158C121.369 28.3637 136.732 13 155.684 13C174.636 13 190 28.3637 190 47.3158C190 66.2679 174.636 81.6316 155.684 81.6316C136.732 81.6316 121.369 66.2679 121.369 47.3158Z" fill="#5E6673"/>
<path d="M155.683 13.0009C136.731 13.0009 121.367 28.3646 121.367 47.3167C121.367 50.1044 121.699 52.8145 122.327 55.4094L163.775 13.9606C161.18 13.3333 158.47 13.0009 155.683 13.0009Z" fill="#5E6673"/>
<g style="mix-blend-mode:soft-light" opacity="0.6">
<path d="M179.949 71.5807C193.35 58.1796 193.35 36.452 179.949 23.0508L131.419 71.5807C144.821 84.9819 166.548 84.9819 179.949 71.5807Z" fill="url(#paint8_linear_2218_18614)"/>
</g>
<path d="M164.734 50.8948L158.419 57.2106L152.103 50.8948L158.419 44.579L164.734 50.8948Z" fill="#5E6673"/>
<path d="M152.104 63.5275L145.788 69.8433L139.472 63.5275L145.788 57.2117L152.104 63.5275Z" fill="#5E6673"/>
<path d="M161.369 63.5266L158.422 66.474L155.474 63.5266L158.422 60.5793L161.369 63.5266Z" fill="#5E6673"/>
<path d="M174 50.8955L171.053 53.8429L168.105 50.8955L171.053 47.9482L174 50.8955Z" fill="#5E6673"/>
<path d="M172.738 63.5267L171.054 65.2111L169.37 63.5267L171.054 61.8424L172.738 63.5267Z" fill="#5E6673"/>
<path d="M183.683 49.2107L185.367 50.895L183.683 52.5794L181.999 50.895L183.683 49.2107Z" fill="#5E6673"/>
<path d="M158.422 44.5798L152.106 50.8956L145.79 44.5798L152.106 38.2641L158.422 44.5798Z" fill="#474D57"/>
<path d="M158.422 31.9479L152.106 38.2637L145.79 31.9479L152.106 25.6321L158.422 31.9479Z" fill="#474D57"/>
<path d="M145.791 44.5798L139.475 50.8956L133.159 44.5798L139.475 38.2641L145.791 44.5798Z" fill="#474D57"/>
<path d="M142.422 31.9479L139.475 34.8953L136.527 31.9479L139.475 29.0005L142.422 31.9479Z" fill="#474D57"/>
<path d="M141.158 57.211L139.474 58.8954L137.79 57.211L139.474 55.5267L141.158 57.211Z" fill="#474D57"/>
<path d="M160.104 25.6323L158.419 27.3167L156.735 25.6323L158.419 23.948L160.104 25.6323Z" fill="#76808F"/>
<path d="M128.527 44.5786L126.843 46.2629L125.159 44.5786L126.843 42.8943L128.527 44.5786Z" fill="#474D57"/>
<path d="M74.4698 89.8896C78.7449 85.6145 78.7449 78.6832 74.4698 74.4081L58.9883 89.8896C63.2634 94.1648 70.1947 94.1648 74.4698 89.8896Z" fill="#CB8C54"/>
<path d="M58.9883 74.4081C63.2634 70.133 70.1947 70.133 74.4698 74.4081L58.9883 89.8896C54.7132 85.6145 54.7132 78.6832 58.9883 74.4081Z" fill="#6A4C0C"/>
<path d="M68.4122 173.516L68.4122 149.516C68.4122 146.261 65.7731 143.622 62.5176 143.622V143.622" stroke="#CB8C54" stroke-width="11.7892"/>
<g style="mix-blend-mode:soft-light" opacity="0.6">
<path d="M68.4122 173.516L68.4122 149.516C68.4122 146.261 65.7731 143.622 62.5176 143.622V143.622" stroke="url(#paint9_linear_2218_18614)" stroke-width="11.7892"/>
</g>
<path d="M91.7335 145.046C96.0086 140.771 96.0086 133.84 91.7335 129.565L76.252 145.046C80.5271 149.321 87.4584 149.321 91.7335 145.046Z" fill="#E8A37D"/>
<path d="M76.252 129.565C80.5271 125.29 87.4584 125.29 91.7335 129.565L76.252 145.046C71.9768 140.771 71.9768 133.84 76.252 129.565Z" fill="#12AAB5"/>
</g>
<defs>
<linearGradient id="paint0_linear_2218_18614" x1="-2.3381e+07" y1="197.269" x2="-2.28692e+07" y2="-3.96215e+06" gradientUnits="userSpaceOnUse">
<stop/>
<stop offset="1" stop-opacity="0"/>
</linearGradient>
<linearGradient id="paint1_linear_2218_18614" x1="100.519" y1="124.192" x2="100.519" y2="165.036" gradientUnits="userSpaceOnUse">
<stop/>
<stop offset="1" stop-opacity="0"/>
</linearGradient>
<linearGradient id="paint2_linear_2218_18614" x1="96.6242" y1="151.58" x2="81.2591" y2="141.61" gradientUnits="userSpaceOnUse">
<stop stop-opacity="0"/>
<stop offset="1"/>
</linearGradient>
<linearGradient id="paint3_linear_2218_18614" x1="59.625" y1="148.462" x2="34.5724" y2="148.462" gradientUnits="userSpaceOnUse">
<stop/>
<stop offset="1" stop-opacity="0"/>
</linearGradient>
<linearGradient id="paint4_linear_2218_18614" x1="51.0037" y1="107.69" x2="20.9436" y2="107.69" gradientUnits="userSpaceOnUse">
<stop/>
<stop offset="1" stop-opacity="0"/>
</linearGradient>
<linearGradient id="paint5_linear_2218_18614" x1="82.8016" y1="159.066" x2="82.8016" y2="188.671" gradientUnits="userSpaceOnUse">
<stop stop-opacity="0"/>
<stop offset="1"/>
</linearGradient>
<linearGradient id="paint6_linear_2218_18614" x1="59.0762" y1="124.172" x2="45.5234" y2="137.725" gradientUnits="userSpaceOnUse">
<stop stop-opacity="0"/>
<stop offset="1"/>
</linearGradient>
<linearGradient id="paint7_linear_2218_18614" x1="71.902" y1="97.7877" x2="105.567" y2="97.7877" gradientUnits="userSpaceOnUse">
<stop/>
<stop offset="1" stop-opacity="0"/>
</linearGradient>
<linearGradient id="paint8_linear_2218_18614" x1="156.115" y1="81.6316" x2="156.115" y2="24.8178" gradientUnits="userSpaceOnUse">
<stop/>
<stop offset="1" stop-opacity="0"/>
</linearGradient>
<linearGradient id="paint9_linear_2218_18614" x1="66.4132" y1="124.192" x2="66.4132" y2="165.036" gradientUnits="userSpaceOnUse">
<stop/>
<stop offset="1" stop-opacity="0"/>
</linearGradient>
<clipPath id="clip0_2218_18614">
<rect width="200" height="200" fill="white"/>
</clipPath>
</defs>
</svg>
