<svg width="200" height="200" viewBox="0 0 200 200" fill="none" xmlns="http://www.w3.org/2000/svg">
<rect width="17.8327" height="11.6694" transform="matrix(-0.707107 0.707107 0.707107 0.707107 55.5078 143.43)" fill="#E8A37D"/>
<path d="M40.8125 146.229L40.8125 174.627L52.6814 162.758L52.6814 146.229L40.8125 146.229Z" fill="#5E6673"/>
<path d="M103.006 100.512L79.402 124.08L57.7679 145.682" stroke="#8E60F0" stroke-width="16.956"/>
<g style="mix-blend-mode:soft-light" opacity="0.6">
<path d="M93.9102 109.54L75.0518 128.399L57.7672 145.683" stroke="url(#paint0_linear_2218_18587)" stroke-width="16.956"/>
</g>
<path d="M133.35 77.755L169.493 41.612" stroke="#5E6673" stroke-width="14.2787"/>
<g style="mix-blend-mode:soft-light" opacity="0.6">
<path d="M133.35 77.755L169.493 41.612" stroke="url(#paint1_linear_2218_18587)" stroke-width="14.2787"/>
</g>
<path d="M15.6465 130.253L40.0423 105.857C46.5839 99.4886 55.4561 95.9111 64.7072 95.9111L88.8456 95.8893L64.4275 120.307C57.8859 126.675 49.0137 130.253 39.7626 130.253L15.6465 130.253Z" fill="#F8D33A"/>
<g style="mix-blend-mode:soft-light" opacity="0.6">
<path d="M15.6465 130.253L40.0423 105.857C46.5839 99.4886 55.4561 95.9111 64.7072 95.9111L88.8456 95.8893L64.4275 120.307C57.8859 126.675 49.0137 130.253 39.7626 130.253L15.6465 130.253Z" fill="url(#paint2_linear_2218_18587)"/>
</g>
<path d="M83.043 98.1201L68.764 112.378C64.9352 116.1 59.7422 118.19 54.3275 118.19L40.1992 118.203L54.4912 103.933C58.32 100.211 63.513 98.1201 68.9277 98.1201L83.043 98.1201Z" fill="#E56700"/>
<g style="mix-blend-mode:soft-light" opacity="0.6">
<path d="M83.043 98.1201L68.764 112.378C64.9352 116.1 59.7422 118.19 54.3275 118.19L40.1992 118.203L54.4912 103.933C58.32 100.211 63.513 98.1201 68.9277 98.1201L83.043 98.1201Z" fill="url(#paint3_linear_2218_18587)"/>
</g>
<path d="M93.1822 98.6236L75.5101 80.9514L100.883 55.579L121.395 55.579L128.811 62.995L93.1822 98.6236Z" fill="#F0B90B"/>
<path d="M171.857 37.8702L184.354 37.8702L184.354 25.3741L171.857 25.3741L171.857 37.8702Z" fill="#E8A37D"/>
<g style="mix-blend-mode:soft-light" opacity="0.6">
<path d="M184.354 25.3737L171.857 25.3737L171.857 37.8698L184.354 37.8697L184.354 25.3737Z" fill="url(#paint4_linear_2218_18587)"/>
</g>
<path d="M136.862 91.5686C142.55 85.8813 142.55 76.6602 136.862 70.9729L128.673 62.7833L96.921 94.5351L115.408 113.023L136.862 91.5686Z" fill="#5E6673"/>
<path d="M150.344 44.8794C154.701 49.2358 154.56 56.4402 150.029 60.9708C145.498 65.5014 138.294 65.6427 133.938 61.2863L150.344 44.8794Z" fill="#E8A37D"/>
<g style="mix-blend-mode:soft-light" opacity="0.6">
<path d="M150.344 44.8794C154.701 49.2358 154.56 56.4402 150.029 60.9708C145.498 65.5014 138.294 65.6427 133.938 61.2863L150.344 44.8794Z" fill="url(#paint5_linear_2218_18587)"/>
</g>
<path d="M150.345 44.8792C145.64 40.1743 138.153 40.033 133.623 44.5637C129.092 49.0943 129.233 56.5812 133.938 61.2861L150.345 44.8792Z" fill="#935A30"/>
<path d="M107.248 133.876L107.248 150.379L120.479 137.148L112.227 128.897L107.248 133.876Z" fill="#E8A37D"/>
<path d="M95.3789 133.847L95.3789 150.375L95.3789 162.077L107.248 150.375V133.847H95.3789Z" fill="#5E6673"/>
<path d="M70.4575 92.3392L78.6206 84.1757L89.6418 95.1142L81.4369 103.319L70.4575 92.3392Z" fill="url(#paint6_linear_2218_18587)"/>
<path d="M128.675 69.9062L106.644 69.9062C100.284 69.9062 97.0983 77.5963 101.596 82.0938L112.388 92.886" stroke="#5E6673" stroke-width="14.2787"/>
<g style="mix-blend-mode:soft-light" opacity="0.6">
<path d="M128.675 69.9062L106.644 69.9062C100.284 69.9062 97.0983 77.5963 101.596 82.0938L112.388 92.886" stroke="url(#paint7_linear_2218_18587)" stroke-width="14.2787"/>
</g>
<path d="M113.454 139.656L132.841 120.269C135.933 117.177 133.743 111.89 129.37 111.89L108.721 111.89L105.013 111.89C100.331 111.89 96.5353 108.095 96.5355 103.412V103.412" stroke="#8E60F0" stroke-width="16.956"/>
<rect width="12.4961" height="12.4961" transform="matrix(0 1 1 0 115.623 95.8876)" fill="#E8A37D"/>
<g style="mix-blend-mode:soft-light" opacity="0.6">
<rect width="12.4961" height="12.4961" transform="matrix(0 1 1 0 115.623 95.8876)" fill="url(#paint8_linear_2218_18587)"/>
</g>
<defs>
<linearGradient id="paint0_linear_2218_18587" x1="86.1399" y1="117.311" x2="67.975" y2="135.476" gradientUnits="userSpaceOnUse">
<stop/>
<stop offset="1" stop-opacity="0"/>
</linearGradient>
<linearGradient id="paint1_linear_2218_18587" x1="140.712" y1="81.1016" x2="174.847" y2="46.9665" gradientUnits="userSpaceOnUse">
<stop stop-opacity="0.65"/>
<stop offset="1" stop-opacity="0"/>
</linearGradient>
<linearGradient id="paint2_linear_2218_18587" x1="62.6861" y1="119.813" x2="56.0385" y2="126.46" gradientUnits="userSpaceOnUse">
<stop/>
<stop offset="1" stop-opacity="0"/>
</linearGradient>
<linearGradient id="paint3_linear_2218_18587" x1="76.8748" y1="98.1202" x2="63.4347" y2="111.56" gradientUnits="userSpaceOnUse">
<stop/>
<stop offset="1" stop-opacity="0"/>
</linearGradient>
<linearGradient id="paint4_linear_2218_18587" x1="171.857" y1="37.8698" x2="184.354" y2="25.3737" gradientUnits="userSpaceOnUse">
<stop/>
<stop offset="1" stop-opacity="0"/>
</linearGradient>
<linearGradient id="paint5_linear_2218_18587" x1="133.023" y1="67.8391" x2="152.725" y2="48.1372" gradientUnits="userSpaceOnUse">
<stop/>
<stop offset="1" stop-opacity="0"/>
</linearGradient>
<linearGradient id="paint6_linear_2218_18587" x1="87.152" y1="94.628" x2="77.251" y2="97.4176" gradientUnits="userSpaceOnUse">
<stop stop-color="#2B2F36"/>
<stop offset="1" stop-color="#474D57"/>
</linearGradient>
<linearGradient id="paint7_linear_2218_18587" x1="118.012" y1="89.27" x2="128.675" y2="78.6073" gradientUnits="userSpaceOnUse">
<stop stop-opacity="0.65"/>
<stop offset="1" stop-opacity="0"/>
</linearGradient>
<linearGradient id="paint8_linear_2218_18587" x1="12.4961" y1="-3.87309e-07" x2="1.10234e-06" y2="12.4961" gradientUnits="userSpaceOnUse">
<stop/>
<stop offset="1" stop-opacity="0"/>
</linearGradient>
</defs>
</svg>
