<svg xmlns:xlink="http://www.w3.org/1999/xlink" xmlns="http://www.w3.org/2000/svg" viewBox="0 0 96 96" fill="none" class="css-13eh8r2" width="96"  height="96" ><g clip-path="url(#coin-exchange-b96_svg__clip0)" fill="#1E2329"><path opacity="0.2" d="M48 83.64c19.666 0 35.61-15.943 35.61-35.61S67.666 12.42 48 12.42c-19.667 0-35.61 15.943-35.61 35.61S28.333 83.64 48 83.64z" fill="#808080"></path><path d="M91.318 20.586L49.081 62.823l1.414 1.414L92.732 22l-1.414-1.414zM21.03 93.71l-1.41-1.41 1.41-1.41 1.41 1.41-1.41 1.41zm3.18-3.18l-1.41-1.41 1.41-1.42 1.42 1.41-1.42 1.42zm3.18-3.18l-1.41-1.41 1.41-1.41 1.41 1.41-1.41 1.41zm3.18-3.18l-1.41-1.41 1.41-1.41 1.41 1.41-1.41 1.41zm3.18-3.19l-1.41-1.41 1.41-1.41 1.41 1.41-1.41 1.41zm3.19-3.18l-1.41-1.41 1.41-1.41 1.41 1.41-1.41 1.41zM45.51 31.603L3.587 73.528l1.415 1.414 41.924-41.925-1.414-1.414zM58.95 20.99l-1.41-1.41 1.41-1.41 1.41 1.42-1.41 1.4zm3.18-3.18l-1.41-1.41 1.41-1.41 1.41 1.42-1.41 1.4zm3.19-3.19l-1.42-1.41 1.42-1.41 1.41 1.41-1.41 1.41zm3.18-3.18l-1.41-1.41 1.41-1.41 1.41 1.41-1.41 1.41zm3.18-3.18l-1.41-1.41 1.41-1.41 1.41 1.41-1.41 1.41zm3.18-3.18l-1.42-1.41 1.41-1.41 1.41 1.41-1.4 1.41z" fill="#1E2329"></path><path d="M48 75.99c15.442 0 27.96-12.518 27.96-27.96S63.442 20.07 48 20.07 20.04 32.588 20.04 48.03 32.558 75.99 48 75.99z" fill="url(&quot;#coin-exchange-b96_svg__paint0_linear&quot;)"></path><path d="M17 75.52H3V61.5h2v12.02h12v2zM93.15 34h-2V22.18H78.86v-2h14.29V34z" fill="#1E2329"></path><path d="M61.66 61.69l-1.41-1.41c6.8-6.73 6.86-17.69.13-24.49-6.73-6.8-17.69-6.86-24.49-.13l-.13.13-1.41-1.41c7.54-7.54 19.78-7.54 27.32 0 7.54 7.54 7.54 19.77-.01 27.31z" fill="#FBDA3C"></path><path d="M48 67.35c-10.67 0-19.32-8.65-19.31-19.32 0-5.12 2.04-10.03 5.66-13.66l1.41 1.41c-6.73 6.8-6.67 17.76.13 24.49 6.75 6.68 17.61 6.68 24.36 0l1.41 1.41A19.1 19.1 0 0148 67.35z" fill="#F0B90B"></path></g><defs><linearGradient id="coin-exchange-b96_svg__paint0_linear" x1="20.044" y1="48.033" x2="75.964" y2="48.033" gradientUnits="userSpaceOnUse"><stop stop-color="#F0B90B"></stop><stop offset="0.993" stop-color="#FBDA3C"></stop></linearGradient><clipPath id="coin-exchange-b96_svg__clip0"><path fill="#fff" d="M0 0h96v96H0z"></path></clipPath><linearGradient id="coin-exchange-b96_svg__paint0_linear" x1="20.044" y1="48.033" x2="75.964" y2="48.033" gradientUnits="userSpaceOnUse"><stop stop-color="#F0B90B"></stop><stop offset="0.993" stop-color="#FBDA3C"></stop></linearGradient></defs></svg>